/* XPM */
static char *big_knight_run_anim_f0[] = {
/* columns rows colors chars-per-pixel */
"64 64 8 1 ",
"  c None",
". c #040406",
"X c #060608",
"o c #AC3232",
"O c #DF7126",
"+ c #847E87",
"@ c #9BADB7",
"# c white",
/* pixels */
"                                                                ",
"                                                                ",
"                                                                ",
"                                                                ",
"                    XXXXXXXXXXXX                                ",
"                    XXXXXXXXXXXX                                ",
"                    XXXXXXXXXXXX                                ",
"                    XXXXXXXXXXXX                                ",
"                    XXXXooooooooXXXX                            ",
"                    XXXXooooooooXXXX                            ",
"                    XXXXooooooooXXXX                            ",
"                    XXXXooooooooXXXX                            ",
"                        XXXX++++XXXXXXXXXXXXXXXX                ",
"                        XXXX++++XXXXXXXXXXXXXXXX                ",
"                        XXXX++++XXXXXXXXXXXXXXXX                ",
"                        XXXX++++XXXXXXXXXXXXXXXX                ",
"                    XXXX++++++++@@@@@@@@@@@@@@@@XXXX            ",
"                    XXXX++++++++@@@@@@@@@@@@@@@@XXXX            ",
"                    XXXX++++++++@@@@@@@@@@@@@@@@XXXX            ",
"                    XXXX++++++++@@@@@@@@@@@@@@@@XXXX            ",
"                XXXX++++@@@@@@@@@@@@@@@@@@@@@@@@XXXX            ",
"                XXXX++++@@@@@@@@@@@@@@@@@@@@@@@@XXXX            ",
"                XXXX++++@@@@@@@@@@@@@@@@@@@@@@@@XXXX            ",
"                XXXX++++@@@@@@@@@@@@@@@@@@@@@@@@XXXX            ",
"                XXXX@@@@@@@@####################XXXX            ",
"                XXXX@@@@@@@@####################XXXX            ",
"                XXXX@@@@@@@@####################XXXX            ",
"                XXXX@@@@@@@@####################XXXX            ",
"                XXXX@@@@@@@@####XXXXXXXXXXXXXXXXXXXX            ",
"                XXXX@@@@@@@@####XXXXXXXXXXXXXXXXXXXX            ",
"                XXXX@@@@@@@@####XXXXXXXXXXXXXXXXXXXX            ",
"                XXXX@@@@@@@@####XXXXXXXXXXXXXXXXXXXX            ",
"                XXXX++++@@@@############XXXX####XXXX            ",
"                XXXX++++@@@@############XXXX####XXXX            ",
"                XXXX++++@@@@############XXXX####XXXX            ",
"                XXXX++++@@@@############XXXX####XXXX            ",
"                    XXXX++++++++ooooooooOOOOooooXXXX            ",
"                    XXXX++++++++ooooooooOOOOooooXXXX            ",
"                    XXXX++++++++ooooooooOOOOooooXXXX            ",
"                    XXXX++++++++ooooooooOOOOooooXXXX            ",
"                ooooXXXXoooooooo++++++++++++++++XXXX            ",
"                ooooXXXXoooooooo++++++++++++++++XXXX            ",
"                ooooXXXXoooooooo++++++++++++++++XXXX            ",
"                ooooXXXXoooooooo++++++++++++++++XXXX            ",
"        ooooooooooooXXXX++++++++@@@@@@@@@@@@@@@@XXXX            ",
"        ooooooooooooXXXX++++++++@@@@@@@@@@@@@@@@XXXX            ",
"        ooooooooooooXXXX++++++++@@@@@@@@@@@@@@@@XXXX            ",
"        ooooooooooooXXXX++++++++@@@@@@@@@@@@@@@@XXXX            ",
"            ooooooooXXXX++++++++XXXXXXXXXXXXXXXX                ",
"            ooooooooXXXX++++++++XXXXXXXXXXXXXXXX                ",
"            ooooooooXXXX++++++++XXXXXXXXXXXXXXXX                ",
"            ooooooooXXXX++++++++XXXXXXXXXXXXXXXX                ",
"                    XXXX++++....                                ",
"                    XXXX++++....                                ",
"                    XXXX++++....                                ",
"                    XXXX++++....                                ",
"                    ........                                    ",
"                    ........                                    ",
"                    ........                                    ",
"                    ........                                    ",
"                                                                ",
"                                                                ",
"                                                                ",
"                                                                "
};
