/* XPM */
static char *big_knight_run_anim_f3[] = {
/* columns rows colors chars-per-pixel */
"64 64 9 1 ",
"  c None",
". c #040406",
"X c #060608",
"o c #565258",
"O c #AC3232",
"+ c #DF7126",
"@ c #847E87",
"# c #9BADB7",
"$ c white",
/* pixels */
"                                                                ",
"                                                                ",
"                                                                ",
"                                                                ",
"                    XXXXXXXXXXXX                                ",
"                    XXXXXXXXXXXX                                ",
"                    XXXXXXXXXXXX                                ",
"                    XXXXXXXXXXXX                                ",
"                    XXXXOOOOOOOOXXXX                            ",
"                    XXXXOOOOOOOOXXXX                            ",
"                    XXXXOOOOOOOOXXXX                            ",
"                    XXXXOOOOOOOOXXXX                            ",
"                        XXXX@@@@XXXXXXXXXXXXXXXX                ",
"                        XXXX@@@@XXXXXXXXXXXXXXXX                ",
"                        XXXX@@@@XXXXXXXXXXXXXXXX                ",
"                        XXXX@@@@XXXXXXXXXXXXXXXX                ",
"                    XXXX@@@@@@@@################XXXX            ",
"                    XXXX@@@@@@@@################XXXX            ",
"                    XXXX@@@@@@@@################XXXX            ",
"                    XXXX@@@@@@@@################XXXX            ",
"                XXXX@@@@########################XXXX            ",
"                XXXX@@@@########################XXXX            ",
"                XXXX@@@@########################XXXX            ",
"                XXXX@@@@########################XXXX            ",
"                XXXX########$$$$$$$$$$$$$$$$$$$$XXXX            ",
"                XXXX########$$$$$$$$$$$$$$$$$$$$XXXX            ",
"                XXXX########$$$$$$$$$$$$$$$$$$$$XXXX            ",
"                XXXX########$$$$$$$$$$$$$$$$$$$$XXXX            ",
"                XXXX########$$$$XXXXXXXXXXXXXXXXXXXX            ",
"                XXXX########$$$$XXXXXXXXXXXXXXXXXXXX            ",
"                XXXX########$$$$XXXXXXXXXXXXXXXXXXXX            ",
"                XXXX########$$$$XXXXXXXXXXXXXXXXXXXX            ",
"                XXXX@@@@####$$$$$$$$$$$$XXXX$$$$XXXX            ",
"                XXXX@@@@####$$$$$$$$$$$$XXXX$$$$XXXX            ",
"                XXXX@@@@####$$$$$$$$$$$$XXXX$$$$XXXX            ",
"                XXXX@@@@####$$$$$$$$$$$$XXXX$$$$XXXX            ",
"                    XXXX@@@@@@@@OOOOOOOO++++OOOOXXXX            ",
"                    XXXX@@@@@@@@OOOOOOOO++++OOOOXXXX            ",
"                    XXXX@@@@@@@@OOOOOOOO++++OOOOXXXX            ",
"                    XXXX@@@@@@@@OOOOOOOO++++OOOOXXXX            ",
"                OOOOXXXXOOOOOOOO@@@@@@@@@@@@@@@@XXXX            ",
"                OOOOXXXXOOOOOOOO@@@@@@@@@@@@@@@@XXXX            ",
"                OOOOXXXXOOOOOOOO@@@@@@@@@@@@@@@@XXXX            ",
"                OOOOXXXXOOOOOOOO@@@@@@@@@@@@@@@@XXXX            ",
"        OOOOOOOOOOOOXXXX@@@@@@@@################XXXX            ",
"        OOOOOOOOOOOOXXXX@@@@@@@@################XXXX            ",
"        OOOOOOOOOOOOXXXX@@@@@@@@################XXXX            ",
"        OOOOOOOOOOOOXXXX@@@@@@@@################XXXX            ",
"            OOOOOOOOOOOOXXXXXXXXXXXXXXXXXXXX@@@@....            ",
"            OOOOOOOOOOOOXXXXXXXXXXXXXXXXXXXX@@@@....            ",
"            OOOOOOOOOOOOXXXXXXXXXXXXXXXXXXXX@@@@....            ",
"            OOOOOOOOOOOOXXXXXXXXXXXXXXXXXXXX@@@@....            ",
"                                    ....oooo....                ",
"                                    ....oooo....                ",
"                                    ....oooo....                ",
"                                    ....oooo....                ",
"                                    ........                    ",
"                                    ........                    ",
"                                    ........                    ",
"                                    ........                    ",
"                                                                ",
"                                                                ",
"                                                                ",
"                                                                "
};
