/* XPM */
static char *big_knight_run_anim_f5[] = {
/* columns rows colors chars-per-pixel */
"64 64 9 1 ",
"  c None",
". c #040406",
"X c #060608",
"o c #565258",
"O c #AC3232",
"+ c #DF7126",
"@ c #847E87",
"# c #9BADB7",
"$ c white",
/* pixels */
"                                                                ",
"                                                                ",
"                                                                ",
"                                                                ",
"                            XXXX                                ",
"                            XXXX                                ",
"                            XXXX                                ",
"                            XXXX                                ",
"                    XXXXXXXXOOOOXXXX                            ",
"                    XXXXXXXXOOOOXXXX                            ",
"                    XXXXXXXXOOOOXXXX                            ",
"                    XXXXXXXXOOOOXXXX                            ",
"                    XXXXOOOO@@@@XXXXXXXXXXXXXXXX                ",
"                    XXXXOOOO@@@@XXXXXXXXXXXXXXXX                ",
"                    XXXXOOOO@@@@XXXXXXXXXXXXXXXX                ",
"                    XXXXOOOO@@@@XXXXXXXXXXXXXXXX                ",
"                    XXXX@@@@@@@@################XXXX            ",
"                    XXXX@@@@@@@@################XXXX            ",
"                    XXXX@@@@@@@@################XXXX            ",
"                    XXXX@@@@@@@@################XXXX            ",
"                XXXX@@@@####$$$$$$$$$$$$$$$$$$$$XXXX            ",
"                XXXX@@@@####$$$$$$$$$$$$$$$$$$$$XXXX            ",
"                XXXX@@@@####$$$$$$$$$$$$$$$$$$$$XXXX            ",
"                XXXX@@@@####$$$$$$$$$$$$$$$$$$$$XXXX            ",
"                XXXX########$$$$XXXXXXXXXXXXXXXXXXXX            ",
"                XXXX########$$$$XXXXXXXXXXXXXXXXXXXX            ",
"                XXXX########$$$$XXXXXXXXXXXXXXXXXXXX            ",
"                XXXX########$$$$XXXXXXXXXXXXXXXXXXXX            ",
"                XXXX########$$$$$$$$$$$$XXXX$$$$XXXX            ",
"                XXXX########$$$$$$$$$$$$XXXX$$$$XXXX            ",
"                XXXX########$$$$$$$$$$$$XXXX$$$$XXXX            ",
"                XXXX########$$$$$$$$$$$$XXXX$$$$XXXX            ",
"                XXXX@@@@############$$$$$$$$$$$$XXXX            ",
"                XXXX@@@@############$$$$$$$$$$$$XXXX            ",
"                XXXX@@@@############$$$$$$$$$$$$XXXX            ",
"                XXXX@@@@############$$$$$$$$$$$$XXXX            ",
"                    XXXX@@@@@@@@OOOOOOOO++++OOOOXXXX            ",
"                    XXXX@@@@@@@@OOOOOOOO++++OOOOXXXX            ",
"                    XXXX@@@@@@@@OOOOOOOO++++OOOOXXXX            ",
"                    XXXX@@@@@@@@OOOOOOOO++++OOOOXXXX            ",
"            OOOOOOOOXXXXOOOOOOOO@@@@@@@@@@@@@@@@XXXX            ",
"            OOOOOOOOXXXXOOOOOOOO@@@@@@@@@@@@@@@@XXXX            ",
"            OOOOOOOOXXXXOOOOOOOO@@@@@@@@@@@@@@@@XXXX            ",
"            OOOOOOOOXXXXOOOOOOOO@@@@@@@@@@@@@@@@XXXX            ",
"        OOOOOOOOOOOOXXXX@@@@@@@@@@@@############XXXX            ",
"        OOOOOOOOOOOOXXXX@@@@@@@@@@@@############XXXX            ",
"        OOOOOOOOOOOOXXXX@@@@@@@@@@@@############XXXX            ",
"        OOOOOOOOOOOOXXXX@@@@@@@@@@@@############XXXX            ",
"                        XXXX@@@@@@@@XXXXXXXXXXXX                ",
"                        XXXX@@@@@@@@XXXXXXXXXXXX                ",
"                        XXXX@@@@@@@@XXXXXXXXXXXX                ",
"                        XXXX@@@@@@@@XXXXXXXXXXXX                ",
"                            XXXXoooo....                        ",
"                            XXXXoooo....                        ",
"                            XXXXoooo....                        ",
"                            XXXXoooo....                        ",
"                                ........                        ",
"                                ........                        ",
"                                ........                        ",
"                                ........                        ",
"                                                                ",
"                                                                ",
"                                                                ",
"                                                                "
};
