/* XPM */
static char *col[] = {
/* columns rows colors chars-per-pixel */
"64 64 113 2 ",
"   c None",
".  c #6F3636",
"X  c #633D32",
"o  c #693E34",
"O  c #723737",
"+  c #713837",
"@  c #733738",
"#  c #753A39",
"$  c #7B3A3A",
"%  c #365523",
"&  c #3E5627",
"*  c #3C5826",
"=  c #3E5528",
"-  c #3E5C29",
";  c #454F29",
":  c #53462C",
">  c #56492F",
",  c #59492E",
"<  c #45532A",
"1  c #4A552C",
"2  c #415B29",
"3  c #4E5B2E",
"4  c #505D2F",
"5  c #5C4C31",
"6  c #465C34",
"7  c #495E35",
"8  c #5D5333",
"9  c #5B5F33",
"0  c #664134",
"q  c #6C4236",
"w  c #614D33",
"e  c #714136",
"r  c #744439",
"t  c #7A463A",
"y  c #77483B",
"u  c #7E493D",
"i  c #655434",
"p  c #695737",
"a  c #6B5638",
"s  c #72513A",
"d  c #45622B",
"f  c #49662E",
"g  c #476B2E",
"h  c #4B692F",
"j  c #4C6A30",
"k  c #4D633C",
"l  c #566232",
"z  c #536B3C",
"x  c #57713F",
"c  c #546746",
"v  c #56694B",
"b  c #596C4C",
"n  c #587240",
"m  c #5E7250",
"M  c #647B56",
"N  c #617058",
"B  c #697561",
"V  c #6E7A67",
"C  c #787D74",
"Z  c #833C3D",
"A  c #893E3F",
"S  c #85453F",
"D  c #80493D",
"F  c #8C3F41",
"G  c #9B3745",
"H  c #943C43",
"J  c #983944",
"K  c #8D4041",
"L  c #698159",
"P  c #74806D",
"I  c #7A8772",
"U  c #7E8C76",
"Y  c #7D817A",
"T  c #82867F",
"R  c #83917A",
"E  c #819078",
"W  c #878787",
"Q  c #888C85",
"!  c #888888",
"~  c #898989",
"^  c #8A898A",
"/  c #8B8A8B",
"(  c #8B8B8C",
")  c #8C8A8D",
"_  c #8C8B8D",
"`  c #8C8C8C",
"'  c #8D8D8D",
"]  c #8F8E8F",
"[  c #8F938B",
"{  c #8F8F90",
"}  c #939392",
"|  c #939393",
" . c #959496",
".. c #969596",
"X. c #949991",
"o. c #989C94",
"O. c #999E96",
"+. c #9A9A99",
"@. c #9A9A9A",
"#. c #9C9B9D",
"$. c #9D9C9E",
"%. c #A0A0A0",
"&. c #A1A0A1",
"*. c #A2A2A3",
"=. c #A3A4A3",
"-. c #A3A2A4",
";. c #A4A4A4",
":. c #A5A5A5",
">. c #A6A5A7",
",. c #A6A6A6",
"<. c #A7A6A8",
"1. c #A8A7A9",
"2. c #A9A8AA",
/* pixels */
"        ,.,.,.1.2.,.O.R L x l i u K K D a l j h h h h j j j j h h h h h h h h h h j l a D K K u i l x L R O.,.2.1.,.,.,.        ",
"        ,.,.,.,.<.,.X.E L x l i t F K u p l h h h h h h h h h h h h h h h h h h h h l p u F F t i l x L R O.,.<.,.,.,.,.        ",
"        ,.,.,.,.,.%.X.U M z l i t A A t i l f f d f f f f f f f f f f f f f f d f f l i t A A t i l z M U X.,.,.,.,.,.,.        ",
"        #.#.#.#.#.#.[ I M z 4 5 r Z Z r i 3 d d d d d d d d d d d d d d d d d d d d 3 i r Z Z r 5 4 z M I [ #.#.#.#.#.#.        ",
"        } } } } } } Q P m k 1 , q $ $ q 5 1 2 - - 2 2 2 2 2 2 2 2 2 2 2 2 2 2 2 - 2 1 5 q $ $ q , 1 k m P Q } } } } } }         ",
"        ` ` ` ` { ` T V b 7 < > X @ @ o > < = * * * * = = = = = = * = = = = = * * = < > o @ @ X > < 7 b V T ` { ` ` ` `         ",
"        ` ` ` ` ` ` Y B c 6 ; > X . @ X > < = * * * = = = = = = = * = = = = = * * = < > X @ . X > ; 6 c B Y ` ` ` ` ` `         ",
"          W W ` ` W C N k < ; > X . . X > 1 2 - 2 2 2 2 2 2 2 2 2 2 2 2 2 2 2 2 - 2 1 > X . . X > ; 2 k N C W ` ` ` W           ",
"                      v 6 < ; > X . . 0 5 3 d d d d d d d d d d d d d d d d d d d d 3 5 0 . . X > ; < 6 v                       ",
"                        - = ; > X . + q 8 3 f f h f f f f f f f f f f f f f f f f f 3 8 q + . X > ; = -                         ",
"                        = = ; > X @ # q 8 l h h h h h h h h h h h h h h h h h h h h l 8 q # @ X > ; = =                         ",
"                        % = ; > o $ $ r i l h h h h h h h h h h h h h h h h h h h h l i r $ $ o > ; = %                         ",
"                        % = ; , q Z Z y i l h h h h h h h h h h h h h h h h h h h h l i y Z Z + , ; = %                         ",
"                        % = 1 5 r Z F u p l h h h h h h h h h h h h h h h h h h h h l p u F Z r 5 1 = %                         ",
"                        * = 1 w t F K u p l h h h h h h h h h h h h h h h h h h h h l p u K F t 5 1 = *                         ",
"                        - 2 1 w t F K u a l h h h h h h h h h h h h h h h h h h h h l a D K F t w 1 2 *                         ",
"                        d d 4 i t F K u p l h h h h h h h h h h h h h h h h h h h h l p u K F t i 4 d d                         ",
"                        f f l i u K K u p l h h h h h h h h h h h h h h h h h h h h l p u K K u i l f f                         ",
"                        f h l p u K K u p l h h h h h h h h h h h h h h h h h h h h l p u K K u p l h f                         ",
"                        f h l p u K F u p l h h h h h h h h h h h h h h h h h h h h l p u K K u p l h f                         ",
"                        f h l p u K K u p l h h h h h h h h h h h h h h h h h h h h l p u K K u p l h f                         ",
"                        f h l p u K K u p l h h h h h h h h h h h h h h h h h h h h l p u K K u p l h f                         ",
"                        f h l p u K K u p l h h h h h h h h h h h h h h h h h h h h l p u K K u p l h f                         ",
"                        f h l p u K K u p l h h h h h h h h h h h h h h h h h h h h l p u K K u p l h f                         ",
"                        f h l p u K K u p l h h h h h h h h h h h h h h h h h h h h l p u K K u p l h f                         ",
"                        f h l p u K K u p l h h h h h h h h h h h h h h h h h h h h l p u K K u p l h f                         ",
"                        f h l p u K K u p l h h h h h h h h h h h h h h h h h h h h l p u K K u p l h f                         ",
"                        f h l p u K K u p l h h h h h h h h h h h h h h h h h h h h l p u K K u p l h f                         ",
"                        f h l p u K K u p l h h h h h h h h h h h h h h h h h h h h l p u K K u p l h f                         ",
"                        f h l p u K K u p l h h h h h h h h h h h h h h h h h h h h l p u K K u p l h f                         ",
"                        f h l p u K K u p l h h h h h h h h h h h h h h h h h h h h l p u K K u p l h f                         ",
"                        f h l p u K K u p l h h h h h h h h h h h h h h h h h h h h l p u K K u p l h f                         ",
"                        f h l p u K K u p l h h h h h h h h h h h h h h h h h h h h l p u K K u p l h f                         ",
"                        f h l p u K K u p l h h h h h h h h h h h h h h h h h h h h l p u K K u p l h f                         ",
"                        f h l p u K K u p l h h h h h h h h h h h h h h h h h h h h l p u K K u p l h f                         ",
"                        f h l p u K K u p l h h h h h h h h h h h h h h h h h h h h l p u K K u p l h f                         ",
"                        f h l p u K K u p l h h h h h h h h h h h h h h h h h h h h l p u K K u p l h f                         ",
"                        f h l p u K K u p l h h h h h h h h h h h h h h h h h h h h l p u K K u p l h f                         ",
"                        f h l p u K K u p l h h h h h h h h h h h h h h h h h h h h l p u K K u p l h f                         ",
"                        f h l p u K K u p l h h h h h h h h h h h h h h h h h h h h l p u K K u p l h f                         ",
"                        f h l p u K K u p l h h h h h h h h h h h     h h h h h h h l p u K K u i l h f                         ",
"                        f h l p u K K u p l h h h h h h h h h h         h h h h h h l p u K K u p l h f                         ",
"                        f h l p u K K u p l h h h h h h h h h h         h h h h h h l a S F F D a l h f                         ",
"                        f h l p u K K u p l h h h h h h h h h h       h h h h h f h 9 s S H H S s 9 h                           ",
"                        f h l p u K K u p l h f h               h h h h h h h h f     u K H H K u                               ",
"                        f h l p u K K u p l h f                 h h h h h h h h         H H H H                                 ",
"                        f h l p u K K u p l h f                 h h h h h h h f         G J J J                                 ",
"                        f h l p u K K u p l h f f               h h h h h h h           G J J J                                 ",
"                        f h l p u K K u p l h h h h h           h h h h h               J J J J                                 ",
"                        f h l p u K K u p l h h h h h h         h h h h                 J J J J                                 ",
"                        f h l a D F K u p l h h h h h h         h h h h                 J J J J                                 ",
"                          h 9 s S H K u p l h h h h h h h     h h h h h                   J J                                   ",
"                              u K H K u p l h h h h h h h h h h h h h h                                                         ",
"                                H H K u p l h h h h h h h h h h h h h h                                                         ",
"                                G J F u a l h h h h h h h h h h h h h h                                                         ",
"                                G J H S s 9 h f h h h h h h h h h h h h                                                         ",
"                                G J H K u     f h h h h h h h h h h h h                                                         ",
"                                J J H H         h h h h h h h h h h h h                                                         ",
"                                J J J G         f h h h h h h h h h h h                                                         ",
"                                  J J             h h h h h h h h h h                                                           ",
"                                                                                                                                ",
"                                                                                                                                ",
"                                                                                                                                ",
"                                                                                                                                "
};
