/* XPM */
static char *g_i0[] = {
/* columns rows colors chars-per-pixel */
"64 64 155 2 ",
"   c None",
".  c #030306",
"X  c #070807",
"o  c #060608",
"O  c #070809",
"+  c #0B0C0A",
"@  c #140E0D",
"#  c #180E0E",
"$  c #0E110C",
"%  c #12140E",
"&  c #18100F",
"*  c #13190F",
"=  c #1E1411",
"-  c #161D11",
";  c #1A1D12",
":  c #201411",
">  c #261914",
",  c #2B1B16",
"<  c #301C17",
"1  c #311F18",
"2  c #1B2413",
"3  c #1E2916",
"4  c #212515",
"5  c #2C2217",
"6  c #222E17",
"7  c #2E2518",
"8  c #252F19",
"9  c #2D2D1A",
"0  c #312319",
"q  c #3D251C",
"w  c #302E1A",
"e  c #3C2A1D",
"r  c #243219",
"t  c #29361A",
"y  c #2B3C1C",
"u  c #353A1E",
"i  c #3E3320",
"p  c #44271E",
"a  c #44291F",
"s  c #492D21",
"d  c #443221",
"f  c #4E3023",
"g  c #423821",
"h  c #4B3C24",
"j  c #523224",
"k  c #5A3627",
"l  c #553A26",
"z  c #5D3728",
"x  c #5D3928",
"c  c #653C2B",
"v  c #693F2D",
"b  c #2E401E",
"n  c #30431F",
"m  c #324520",
"M  c #3B4422",
"N  c #354A22",
"B  c #3B4E24",
"V  c #375123",
"C  c #3B5325",
"Z  c #3F5728",
"A  c #3F5B28",
"S  c #454324",
"D  c #4C4627",
"F  c #414E25",
"G  c #4A4A27",
"H  c #4D4C28",
"J  c #514127",
"K  c #544629",
"L  c #5C452A",
"P  c #534E2A",
"I  c #5B4C2C",
"U  c #435126",
"Y  c #405927",
"T  c #445728",
"R  c #4B5429",
"E  c #425C29",
"W  c #4A5A2B",
"Q  c #53532C",
"!  c #5D512E",
"~  c #545C2E",
"^  c #5C582F",
"/  c #5D5D31",
"(  c #63422C",
")  c #6C422E",
"_  c #654E2F",
"`  c #62522F",
"'  c #6B4A30",
"]  c #744531",
"[  c #744C32",
"{  c #7A4C34",
"}  c #7B4D34",
"|  c #784F34",
" . c #7A4E34",
".. c #794D34",
"X. c #7D4C35",
"o. c #7E4C35",
"O. c #7F4C35",
"+. c #7F4D35",
"@. c #7C4A34",
"#. c #665130",
"$. c #655731",
"%. c #655130",
"&. c #6E5032",
"*. c #6F5032",
"=. c #685632",
"-. c #6D5533",
";. c #6C5733",
":. c #6C5633",
">. c #615B31",
",. c #605F32",
"<. c #6C5833",
"1. c #6D5834",
"2. c #725233",
"3. c #775034",
"4. c #775034",
"5. c #785134",
"6. c #45612C",
"7. c #46602C",
"8. c #46612C",
"9. c #44652C",
"0. c #46652C",
"q. c #45622C",
"w. c #49622D",
"e. c #4C622D",
"r. c #4E622E",
"t. c #48662D",
"y. c #49652D",
"u. c #46682D",
"i. c #47692E",
"p. c #476A2E",
"a. c #49682E",
"s. c #49692E",
"d. c #4B682F",
"f. c #4A6A2F",
"g. c #4B692F",
"h. c #50642F",
"j. c #4D6C30",
"k. c #566030",
"l. c #526530",
"z. c #516630",
"x. c #526530",
"c. c #5E6032",
"v. c #5F6032",
"b. c #804A35",
"n. c #804B35",
"m. c #814B35",
"M. c #804C35",
"N. c #804C36",
"B. c #814C36",
"V. c #804D36",
"C. c #814D36",
"Z. c #814E36",
"A. c #824E37",
"S. c #824F37",
"D. c #834F37",
/* pixels */
"                                                                                                                                ",
"                                                                                                                                ",
"                                                                                                                                ",
"                                                                                                                                ",
"                                                  o o o o o o o o o o o o o o o o o o                                           ",
"                                                o o o o o o o o o o o o o o o o o o o o                                         ",
"                                                # # # # # # # # # # # # * # # # # # # #                                         ",
"                                              & : > , , , , 1 1 1 1 1 1 1 1 1 , , , > : *                                       ",
"                                          o O = , q a s s f j j j j j j j j f s s a q , = O o                                   ",
"                                        o o # > q f x c v ) ) ) ) ) ) ) ) ) ) v c x j q > # o o                                 ",
"                                        O # = 1 s x ) ] @.@.@.@.@.@.@.@.@.@.@.@.] ) x s 1 = # O                                 ",
"                                      # : , 1 a j v ] @.@.D.D.D.D.D.D.D.D.D.D.@.@.] v j a 1 > = #                               ",
"                  o o o o o o o o o O : < q s j c ] @.@.D.D.D.D.D.D.D.D.D.D.D.@.@.@.] c j s q , = O o o o o o o o o o           ",
"                o o o o o o o o o o # > q j x v ] { @.@.@.@.@.@.@.@.@.@.@.@.@.@.@.@.{ ] v x j q > # o o o o o o o o o o         ",
"                o o o O O O $ $ $ $ ; 7 d x ( { { @.@.@.@.@.@.@.@.@.@.@.@.@.@.@.@.@.@.@.] ) x f 0 ; * $ $ $ O O O o o o         ",
"                o o O $ * - 2 2 2 3 8 u S I _ &.{ @.@.D.D.D.D.D.D.D.D.D.D.D.D.D.D.D.D.@.@.] ) l i 9 3 2 2 2 - * $ O o o         ",
"                o o O * 2 r y y y m m B R ~ / &.2.@.@.D.D.D.D.D.D.D.D.D.D.D.D.D.D.D.D.D.D.@.{ ( D M m b y y r 2 * O o o         ",
"                o o O - 6 y m B C Y Y Y t.t.l.,.&.@.@.@.@.@.@.@.@.@.@.@.@.@.@.@.@.@.@.@.@.@.{ %.Q W Y C C m y 6 - O o o         ",
"                o o $ - 6 y m C Y 0.t.a.a.a.l./ &.5.@.@.@.{ { { { { { { { { { { { { { { { { &.%./ t.0.Y C m y 6 - $ o o         ",
"                  o $ - 3 r y m C Y 0.i.a.a.l.v.&.5.@.{ ' ' _ _ _ _ _ _ _ _ _ _ _ _ _ _ _ _ ` ^ h.t.Y C m y r 2 - O o           ",
"                      * - 2 3 y m C Y 0.i.a.l.v.<.2.@.{ _ I P Q P P P P P P P Q P P P P P P Q R W Y C m y 3 2 - *               ",
"                        O $ * 3 y m C 0.0.t.l.,.&.2.{ ' I R U U U U U U U U U U U U U U U U U U U C m y 3 * $ O                 ",
"                        o o O ; t M U Y 0.t.l./ &.{ { _ P U C C C C C C C C C C C C C C C C C B B m y r - $ o o                 ",
"                        o o O ; w S G W t.t.l./ &.{ ' _ P F V V V C C C C V V V V V V C C C m m b y r 2 * O o                   ",
"                        o o O > e h P Q ~ t.h./ %.' ) L G F C V C C C C C C V V V V C C C C m b r 3 - * $                       ",
"                        o o # > a l L ! ~ t.h.~ ! ( ( L H F C C C C C C C C C C C C C C C C m y 3 * $ O                         ",
"                        o o # , p k ( I ~ t.t.~ I L L P G U C m m m m m B C C C C C C C B m y 6 - $ o o                         ",
"                        o o # , p k ( I Q W Y R G P P G R T C m b y y b m C Y Y Y Y C m n y 6 2 $ O o o                         ",
"                        o o # , p k ( I Q T T U U H G R W Y C m r 2 2 r m Z 0.t.t.0.C m y 2 - $ O o o o                         ",
"                        o o # , a k ( I G U C C C U U Y t.0.Y m 6 - - 6 m Y t.j.j.t.Y m r - $ O o o o o                         ",
"                        o o # , a k ( L P F F C C C C Y 0.t.Y m r 2 2 r m Y a.j.j.a.Y m r ; $ O O o o o                         ",
"                        o o # , a z ( ( L G H F B C C Y 0.t.0.C y r r y C 0.j.j.j.j.0.C b r 2 * $ O o o                         ",
"                        o o # , a x ) ) ( L K H F C C Y 0.t.t.Y C m m B Y t.j.j.j.j.t.Y C m y 6 - O o o                         ",
"                        o o # , a k c ) ) ( L K F B C Z 0.t.t.t.0.Y Y Y t.t.a.j.j.a.a.t.t.Y C y 2 $ o o                         ",
"                        o o # > q j k c c c ( K H F C Z 0.t.a.a.j.a.a.a.a.a.a.a.a.a.a.j.j.a.Y m 3 $ o o                         ",
"                          o # : < q s j z c ( L H F C Z 0.t.a.j.j.j.j.j.j.a.a.a.a.a.a.j.j.j.Y m 3 * o o                         ",
"                              * = > 1 p j c ( L G F C Z 0.t.a.j.j.j.j.j.a.a.a.a.a.a.j.j.j.j.Y m 3 $ o o                         ",
"                                O # = 1 s z ( L H F C Z 0.t.a.a.j.j.a.a.a.a.a.a.a.a.j.j.j.a.Y m 3 $ o o                         ",
"                                o o # , q j l J H B C Z 0.t.a.a.j.a.a.a.a.a.a.a.a.a.j.j.j.a.Y m 3 $ o o                         ",
"                                  o O : 1 q a d M B C Y 0.t.a.j.j.j.j.j.j.j.j.j.j.j.j.j.j.a.Y m 3 $ o o                         ",
"                                      # : , 5 9 u B C Y 0.a.j.j.j.j.j.j.j.j.j.j.j.j.j.j.j.j.Y m 3 $ o o                         ",
"                                        # # = 4 t m C Y 0.t.a.a.j.a.a.a.a.a.a.a.a.a.a.j.j.a.Y m 3 $ o o                         ",
"                                        o o $ 2 r m C Y 0.t.t.0.0.Y Y Y Y Y Y Y Y Y Y 0.t.t.Y m 3 $ o o                         ",
"                                        o o O - r m C Y Y 0.Y Z B m m m m m m m m m m C Y Y C y 2 $ o o                         ",
"                                        o o O 2 r m C Y Y Y C m y r 3 3 3 3 3 3 2 3 8 y m C C y 2 $ o o                         ",
"                                        o o $ 2 r m C C C C m y 6 - * $ $ $ $ $ $ * - 6 y m m y 2 $ o o                         ",
"                                        o o $ 2 r m C C B m y r - $ o o o o O O O $ * 2 t b y r 2 O o o                         ",
"                                        o o $ 2 t m B m n y 6 2 * O o o o o o O * - 2 3 r r r 2 * O o o                         ",
"                                      o o o $ 2 y m m n r 3 - * O o o o o o O * 2 6 r r 3 2 - * $ X o                           ",
"                                      o o o $ 2 t m m y 3 * $ O o o o o o o O - r y y r 2 * $ O X o                             ",
"                                      o o o O - r y y r 2 $ o o o     o o o O - r y y r 2 $ o o o                               ",
"                                      o o o O * 2 6 6 2 * O o o       o o o O * 2 r r 3 * O o o                                 ",
"                                      o o o O $ * - - * $ o o         o o o O $ * - - * $ X o                                   ",
"                                      o o o o O O O O O O o           o o o O O O O O O O o                                     ",
"                                      o o o o o o o o o o             o o o o o o o o o o                                       ",
"                                      o o o o o o o o o               o o o o o o o o o                                         ",
"                                        o o o o o o o                   o o o o o o o                                           ",
"                                                                                                                                ",
"                                                                                                                                ",
"                                                                                                                                ",
"                                                                                                                                ",
"                                                                                                                                ",
"                                                                                                                                ",
"                                                                                                                                "
};
