/* XPM */
static char *g_i2[] = {
/* columns rows colors chars-per-pixel */
"64 64 155 2 ",
"   c None",
".  c #030306",
"X  c #070807",
"o  c #060608",
"O  c #070809",
"+  c #0B0C0A",
"@  c #140E0D",
"#  c #0D110C",
"$  c #12140E",
"%  c #18100E",
"&  c #13190F",
"*  c #1E1411",
"=  c #161D11",
"-  c #1A1D12",
";  c #211512",
":  c #261914",
">  c #2B1B16",
",  c #301C17",
"<  c #311F18",
"1  c #172011",
"2  c #1B2413",
"3  c #1E2916",
"4  c #212615",
"5  c #2D2117",
"6  c #222E17",
"7  c #2E2518",
"8  c #252F19",
"9  c #2D2D1A",
"0  c #312319",
"q  c #3D251C",
"w  c #302E1A",
"e  c #3C2A1D",
"r  c #243219",
"t  c #29361A",
"y  c #2B3C1C",
"u  c #353A1E",
"i  c #3E3320",
"p  c #44271E",
"a  c #44291F",
"s  c #442E20",
"d  c #4A2D21",
"f  c #433421",
"g  c #4E3023",
"h  c #4B3C24",
"j  c #523224",
"k  c #5A3627",
"l  c #553A27",
"z  c #5D3728",
"x  c #5D3928",
"c  c #653D2B",
"v  c #693F2D",
"b  c #2E401E",
"n  c #30431F",
"m  c #324521",
"M  c #3B4422",
"N  c #354A22",
"B  c #3B4E24",
"V  c #375123",
"C  c #3B5225",
"Z  c #3F5728",
"A  c #3F5B28",
"S  c #444324",
"D  c #4D4327",
"F  c #434D25",
"G  c #4B4B27",
"H  c #4D4D28",
"J  c #544628",
"K  c #5D452B",
"L  c #534D2A",
"P  c #5B4C2C",
"I  c #435126",
"U  c #405927",
"Y  c #445728",
"T  c #4B5429",
"R  c #425C29",
"E  c #4A5A2B",
"W  c #53532C",
"Q  c #5D512E",
"!  c #545C2E",
"~  c #5C582F",
"^  c #5D5D31",
"/  c #64432C",
"(  c #6C422E",
")  c #654E2F",
"_  c #62522F",
"`  c #6B4A30",
"'  c #744531",
"]  c #744C32",
"[  c #7A4C34",
"{  c #7B4D34",
"}  c #784F34",
"|  c #7A4E34",
" . c #794D34",
".. c #7D4C35",
"X. c #7E4C35",
"o. c #7F4C35",
"O. c #7F4D35",
"+. c #7C4A34",
"@. c #665130",
"#. c #655731",
"$. c #655130",
"%. c #6E5032",
"&. c #6F5032",
"*. c #685632",
"=. c #6D5533",
"-. c #6C5733",
";. c #6C5633",
":. c #615B31",
">. c #605F32",
",. c #6C5833",
"<. c #6D5834",
"1. c #725233",
"2. c #775034",
"3. c #775034",
"4. c #785134",
"5. c #45612C",
"6. c #46602C",
"7. c #46612C",
"8. c #44652C",
"9. c #46652C",
"0. c #46622C",
"q. c #49622D",
"w. c #4C622D",
"e. c #4E622E",
"r. c #48662D",
"t. c #49652D",
"y. c #46682D",
"u. c #47692E",
"i. c #476A2E",
"p. c #49682E",
"a. c #49692E",
"s. c #4B682F",
"d. c #4A6A2F",
"f. c #4B692F",
"g. c #50642F",
"h. c #4E6D31",
"j. c #566030",
"k. c #526530",
"l. c #516630",
"z. c #526530",
"x. c #5E6032",
"c. c #5F6032",
"v. c #507032",
"b. c #804A35",
"n. c #804B35",
"m. c #814B35",
"M. c #804C35",
"N. c #804C36",
"B. c #814C36",
"V. c #804D36",
"C. c #814D36",
"Z. c #814E36",
"A. c #824E37",
"S. c #824F37",
"D. c #834F37",
/* pixels */
"                                                                                                                                ",
"                                                                                                                                ",
"                                                                                                                                ",
"                                                                                                                                ",
"                                                                                                                                ",
"                                                                                                                                ",
"                                                                                                                                ",
"                                                                                                                                ",
"                                                  . . . . . . . . . . . . . . . . . .                                           ",
"                                                o o o o o o o o o o o o o o o o o o o o                                         ",
"                                                @ @ @ @ @ @ % % % % @ % @ @ @ @ @ @ @ @                                         ",
"                                              % ; : > > > > < < < < < < < < > > > > : ; %                                       ",
"                                          . + * > q a d d g j j j j j j j j g d d a q > * + .                                   ",
"                                        . o @ : q j z c v ( ( ( ( ( ( ( ( ( ( v c z j q : @ O .                                 ",
"                                        + @ * < d z ( ' ........................' ( z d < * @ +                                 ",
"                                      @ * > < a j v ' ....D.D.D.D.D.D.D.D.D.D.....' v j a < : * @                               ",
"                  o o . . . . . . . + ; , q d k c ' ....D.D.D.D.D.D.D.D.D.D.D.......' c j d q > * + . . . . . . . o o           ",
"                o o o o o o o . . o @ : q j z v ' ' ................................' ' ( z j q : @ o . . o o o o o o o         ",
"                o o o + + + # # # % - 7 f z / ' ' ......................................' ( z d 0 - % # # # + + + o o o         ",
"                . o + # % = 2 2 2 3 8 u S P ) *.' ....D.D...D.D.D.D.D.D.D.D.D.D.D.D.......' ( l i 9 3 2 2 2 = % # + o .         ",
"                . o + % 2 r y y y m m B T ! ^ *.1.....D.D.D.D.D.D.D.D.D.D.D.D.D.D.D.D.D.D...' K D M m b y y r 2 % + o .         ",
"                . o + = 6 y B C C U U 5.r.r.k.:.*.4.........................................' $.W E U C C B y 6 = + o .         ",
"                . o # = 6 y B C U 5.r.p.p.p.k.^ *.1.......' ' ' ' ' ' ' ' ' ' ' ' ' ' ' ' ' *.$.^ r.5.U C B y 6 = # o .         ",
"                  o # = 3 r y B C U 5.u.p.p.k.x.<.1...' ` ` ) ) ) ) ) ) ) ) ) ) ) ) ) ) ) ) _ ~ ! r.U C B y r 3 = # o           ",
"                      % = 2 3 y m C U 5.u.p.k.>.<.1...' ) P W W L L L L L L L L L L L L L L W T E U C B y 3 2 & %               ",
"                        + # & 3 y B C 5.5.r.k.:.*.1.' ` P T I I I I I I I I I I I I I I I I I I I C B y 3 & # +                 ",
"                        . o # - t M I U 5.r.k.:.*.' ' ) L I C C C C C C C C C C C C C C C C C B B B b r = # o .                 ",
"                        . . + - w S H E r.r.k.^ *.' ` ) L I C V V V C V V V V V V V V V C C B B b y r 2 & + .                   ",
"                        . . @ : e h L W ! r.k.^ $.` ( K H B C V V C C C C C C V V C C C C C B b r 3 - & #                       ",
"                        . o @ : e l K Q ! r.g.! ) / / K G F C C C C C C C C C C C C C C C C B y 2 & # +                         ",
"                        . o @ > p k / Q ! r.r.! P K K J G I C B B B B B B C C C C C C C B B y 6 = + o .                         ",
"                        . o @ > p k / P W E U T H L J L T Y C B b y y b B C U U U U C B n y 6 - # + . .                         ",
"                        . o @ > p k / P W Y I I F G G T E U Z m r 2 2 r m C 5.r.r.5.C B t 2 = # + o . .                         ",
"                        . o @ > a k / P H I C C C F I U r.5.U m 6 = = 6 m U r.h.h.r.U m r = # + o o o o                         ",
"                        . o @ > a k / K L F F B C C C U 5.r.U B r 2 2 r m U p.h.h.p.U B r = # + + O o o                         ",
"                        . o @ > a z / / P L G F B C C U 5.r.5.C y r r y C 5.h.h.h.h.5.C b r 2 & # + o .                         ",
"                        . o @ > a z ( ( / K L G F C C U 5.r.r.U C B B C U 5.p.h.h.h.r.U C B y 3 = + o .                         ",
"                        . o @ > a k c ( / / K J G B C Z 5.r.r.r.5.U U 5.5.r.p.h.h.p.p.r.5.U C y 2 # o .                         ",
"                        . o @ : q j k z z k l D S B C U 5.r.p.h.h.p.p.p.p.p.p.h.p.p.h.h.h.p.U m 3 # o .                         ",
"                          o @ ; < q a a a a s f M B C U 5.r.h.h.h.h.h.h.h.h.h.h.h.h.h.h.v.h.U m 3 % o .                         ",
"                              * ; : > > > > 5 w u B C U 5.r.p.h.h.h.h.h.h.h.h.h.h.h.h.h.v.h.U m 3 % o .                         ",
"                                @ @ @ @ @ @ * 4 y B C U 5.r.p.p.h.p.p.p.p.p.p.p.p.p.p.h.h.p.U m 3 % o .                         ",
"                                o o o . . o # 2 r B C U 5.5.r.5.5.U U U U U U U U U U 5.r.r.U m 3 # o .                         ",
"                                  . . . . . + = r m C U U 5.U Z B B m m m m m m m m m C U U C b 2 # o .                         ",
"                                      . . . + 1 r m C U U U C B y r 3 3 3 3 3 3 2 3 8 y B C C y 2 # o .                         ",
"                                        . o # 2 r m C C C C B y 6 = % # # # # # # % = 6 y B B y 2 # o .                         ",
"                                        . o # 2 r m B C B B y 8 = # o . . o O + + # & 2 r y y r 2 + o .                         ",
"                                        . o # 2 t B B B n y 6 2 % + . . . . o + % = 2 3 6 r 6 2 & + . .                         ",
"                                        . o # 2 y B B n r 3 = % + . . . . . + % 2 6 r r 3 2 = & # X .                           ",
"                                      . . o # 2 t m B y 3 & + + . . . . . . + = r y y r 2 & # + X .                             ",
"                                      . . o + = r y y r 2 # . . .     . . . + = r y y r 2 # . . .                               ",
"                                      . . o + & 2 6 6 2 & + . .       . . . + & 2 r r 3 & + . .                                 ",
"                                      . . o + # & = = & # . .         . . o + # & = 2 & # X .                                   ",
"                                      . . o o + + + + + + .           . . o O + + + + + + .                                     ",
"                                      . . . o o o o . . .             . . . o o o o . . .                                       ",
"                                      . . . . . . . . .               . . . . . . . . .                                         ",
"                                        . . . . . . .                   . . . . . . .                                           ",
"                                                                                                                                ",
"                                                                                                                                ",
"                                                                                                                                ",
"                                                                                                                                ",
"                                                                                                                                ",
"                                                                                                                                ",
"                                                                                                                                "
};
