/* XPM */
static char *g_i5[] = {
/* columns rows colors chars-per-pixel */
"64 64 158 2 ",
"   c None",
".  c #030306",
"X  c #070807",
"o  c #060608",
"O  c #070809",
"+  c #0B0C0A",
"@  c #140E0D",
"#  c #180E0E",
"$  c #0E110C",
"%  c #12140E",
"&  c #18100F",
"*  c #13190F",
"=  c #1E1411",
"-  c #161D11",
";  c #191C12",
":  c #211412",
">  c #2A1715",
",  c #261914",
"<  c #2B1B16",
"1  c #311F18",
"2  c #172112",
"3  c #1A2313",
"4  c #1E2916",
"5  c #212515",
"6  c #2C2217",
"7  c #222D17",
"8  c #2D2418",
"9  c #242F18",
"0  c #2A2D1A",
"q  c #302318",
"w  c #3D251C",
"e  c #302E1A",
"r  c #253219",
"t  c #29371A",
"y  c #2C3C1D",
"u  c #32301B",
"i  c #353A1E",
"p  c #3D3420",
"a  c #363F20",
"s  c #44271E",
"d  c #442A1F",
"f  c #492D21",
"g  c #433120",
"h  c #4E3023",
"j  c #423821",
"k  c #523124",
"l  c #5A3627",
"z  c #553A27",
"x  c #5D3728",
"c  c #5D3928",
"v  c #653C2B",
"b  c #693F2D",
"n  c #2E401E",
"m  c #30431F",
"M  c #324620",
"N  c #3D4322",
"B  c #354A22",
"V  c #3C4E24",
"C  c #365123",
"Z  c #3A5224",
"A  c #3E5827",
"S  c #3F5728",
"D  c #3F5B28",
"F  c #474525",
"G  c #4F4026",
"H  c #424E25",
"J  c #4A4A27",
"K  c #4C4728",
"L  c #4E4B28",
"P  c #514127",
"I  c #544628",
"U  c #5C452A",
"Y  c #534E2A",
"T  c #5B4C2C",
"R  c #435126",
"E  c #405927",
"W  c #455729",
"Q  c #4B552A",
"!  c #425C29",
"~  c #4A5C2B",
"^  c #53532B",
"/  c #5D512E",
"(  c #545B2E",
")  c #5A582F",
"_  c #5D5D31",
"`  c #64422C",
"'  c #6C422E",
"]  c #644D2F",
"[  c #62522F",
"{  c #6B4B30",
"}  c #744531",
"|  c #744C32",
" . c #7A4C34",
".. c #7B4D34",
"X. c #784F34",
"o. c #7A4E34",
"O. c #794D34",
"+. c #7D4C35",
"@. c #7E4C35",
"#. c #7F4C35",
"$. c #7F4D35",
"%. c #7C4A34",
"&. c #675231",
"*. c #655130",
"=. c #6E5032",
"-. c #6F5032",
";. c #685632",
":. c #6D5533",
">. c #6C5733",
",. c #6C5633",
"<. c #615B31",
"1. c #665832",
"2. c #605F32",
"3. c #6C5833",
"4. c #6D5834",
"5. c #725233",
"6. c #775034",
"7. c #775034",
"8. c #785134",
"9. c #44642B",
"0. c #47612C",
"q. c #46652C",
"w. c #45672D",
"e. c #45622C",
"r. c #4A632D",
"t. c #4C622D",
"y. c #4E622E",
"u. c #4E632E",
"i. c #48652D",
"p. c #49652E",
"a. c #49682E",
"s. c #4B692F",
"d. c #486A2E",
"f. c #486B2F",
"g. c #4A6A2F",
"h. c #4A6B2F",
"j. c #4B692F",
"k. c #55602F",
"l. c #50642F",
"z. c #4E6D31",
"x. c #566030",
"c. c #526530",
"v. c #516630",
"b. c #526530",
"n. c #5E6032",
"m. c #5F6032",
"M. c #507032",
"N. c #804A35",
"B. c #804B35",
"V. c #804C35",
"C. c #804C36",
"Z. c #814C36",
"A. c #804D36",
"S. c #814D36",
"D. c #814E36",
"F. c #824E37",
"G. c #824F37",
"H. c #834F37",
/* pixels */
"                                                                                                                                ",
"                                                                                                                                ",
"                                                                                                                                ",
"                                                                                                                                ",
"                                                  . . . . . . . . . . . . . . . . . .                                           ",
"                                                o o o o o o o o o o o o o o o o o o o o                                         ",
"                                                # # # # # # # & & # & & & & # # # # # #                                         ",
"                                              & : , < < < < 1 1 1 1 1 1 1 1 1 < < < , : &                                       ",
"                                          . + = < w d f f h k k k k k k k k h f f d w < = + .                                   ",
"                                        . o # , w k c v b ' ' ' ' ' ' ' ' ' ' b v c k w , # o .                                 ",
"                                        + # = 1 f c ' } %.%.%.%.%.%.%.%.%.%.%.%.} ' c f 1 = # +                                 ",
"                                      # = < 1 d k b } %.%.H.H.H.H.H.H.H.H.H.H.%.%.} b k d 1 , = #                               ",
"                                  . + = < w f k v } %.%.H.H.H.H.H.H.H.H.H.H.H.%.%.%.} v k f w < = + .                           ",
"                                . o # , w k c b }  .%.%.%.%.%.%.%.%.%.%.%.%.%.%.%.%. .} b c k w , # o .                         ",
"                                $ & ; 8 g c `  . .%.%.%.%.%.%.%.%.%.%.%.%.%.%.%.%.%.%.%.} ' c f q ; & $                         ",
"                              * 2 4 0 i F T ] =. .%.%.H.H.H.H.H.H.H.H.H.H.H.H.H.H.H.H.%.%.} ' z p 0 3 2 *                       ",
"                          . $ 2 r y B V Q ( _ =.5.%.%.H.H.H.H.H.H.H.H.H.H.H.H.H.H.H.H.H.%.%. .] K N y r 2 + .                   ",
"                        . O $ 4 y Z ! 0.i.i.c.<.=.%.%.%.%.%.%.%.%.%.%.%.%.%.%.%.%.%.%.%.%.%. .*./ ~ Z y 4 $ o .                 ",
"                        + $ - 0 B D i.g.g.g.c._ =.8.%.%.%. . . . . . . . . . . . . . . . . .=.<._ i.! B r - $ +                 ",
"                      & - 3 4 y B D 0.d.g.g.c._ =.8.%. .{ { ] ] ] ] ] ] ] ] ] ] ] ] ] ] ] ] [ ) l.i.! B y 4 3 - &               ",
"                  o $ - 3 r y m B A ! 0.d.g.c.m.=.5.%. .] T Y ^ Y Y Y Y Y Y Y Y Y Y Y Y Y ^ ^ Q ~ ! ! Z B y r 4 - $ o           ",
"                . o $ - 5 y B B Z Z Z ! 0.i.c.2.=.5. .{ T Q R R R R R R R R R R R R R R R R R R Z Z Z Z B B y 9 - $ o .         ",
"                . o + - 5 y B V V V R ! 0.i.c._ =. . .] Y R Z Z Z Z Z Z Z Z Z Z Z Z Z Z Z Z Z V B B B B B B y 5 - + o .         ",
"                . o + & 3 r y B N F J Q i.i.c._ =. .{ ] Y R Z C C C Z Z C C C C C C C Z Z C B B y y r r t r r 3 & + o .         ",
"                . o + + & ; 5 i j G Y ^ ( i.l._ *.{ ' U J H Z C C Z Z Z Z Z Z Z Z Z Z Z Z Z B y r 3 3 3 3 3 - & $ + o .         ",
"                o o o O O + = 6 g z U / ( i.l.) / ` ` U J H Z Z Z Z Z Z Z Z Z Z Z Z Z Z Z Z B y 4 * $ + + $ + + + o o o         ",
"                o o o . . o # < d l ` / ( i.i.( T U U I J V Z Z Z Z Z Z Z Z Z Z Z Z Z Z Z Z B r 3 $ o . . o o o o o o o         ",
"                  o o . . . # < s l ` T ^ ~ ! Q Q Y I J H V Z Z Z Z Z Z Z Z Z Z Z Z Z Z Z Z B r 3 + . . . . . . . o o           ",
"                      . . o # > s l ` T ^ W ! R R J J H H V Z Z Z Z Z Z Z Z Z Z Z Z Z Z Z Z B r 3 + . . .                       ",
"                        . o # < d l ` T J R Z Z Z R V V Z Z Z Z Z Z Z Z Z Z Z Z Z Z Z Z Z Z B r 3 $ o .                         ",
"                        . o # < d l ` U Y H H Z Z Z Z Z Z Z Z V B B B B V Z Z Z Z Z Z Z V B y 5 - + o .                         ",
"                        . o # < d x ` ` U J J H V Z Z Z A A Z B n y y n B Z ! ! ! ! Z B m y 5 3 & + o .                         ",
"                        . o # < d c ' ' ` U I J H Z Z A ! ! Z B r 4 4 r B Z 0.i.i.0.Z B t 3 - $ + + o o                         ",
"                        . o # < d l v ' ' ` U I H V Z ! 0.0.! B 5 - - 5 B ! i.z.z.i.! B r - + + O o o o                         ",
"                        . o # , w k x v v v ` I J H Z ! 0.i.! B r 3 3 r B ! g.z.z.g.! B r ; $ + + O o o                         ",
"                          o # : 1 w f k x v ` U J H Z ! 0.i.0.Z y r r y Z 0.g.z.z.g.0.Z n r 3 - $ + o .                         ",
"                              & = , 1 s k v ` U J H Z ! 0.i.i.! Z B B Z ! i.g.z.z.g.i.! Z B y 4 - + o .                         ",
"                                + # = 1 f l ` U J H Z D 0.i.i.i.0.! ! 0.0.i.g.z.z.g.i.i.0.! Z y 3 $ o .                         ",
"                                . o # < w k z P H V Z ! 0.i.g.g.g.g.g.g.g.g.g.g.g.g.g.z.z.g.! B 4 $ o .                         ",
"                                  . + : 1 w d j N V Z ! 0.i.g.z.z.z.z.z.z.z.z.z.z.z.z.z.M.z.! B 4 & o .                         ",
"                                      # : < 6 0 i V Z ! 0.i.z.z.z.z.z.z.z.z.z.z.z.z.z.z.M.z.! B 4 & o .                         ",
"                                        # # = 5 t B Z ! 0.i.g.g.g.g.g.g.g.g.g.g.g.g.g.z.z.g.! B 4 & o .                         ",
"                                        . o $ 3 r B Z ! 0.0.i.0.! ! ! ! ! ! ! ! ! ! ! 0.i.i.! n 4 $ o .                         ",
"                                        . . + - r B Z ! ! 0.! D V B B B B B B B B B B Z ! ! Z y 3 $ o .                         ",
"                                        . . + - r B Z E ! ! Z B y r 4 4 4 4 4 4 4 4 0 y B Z V y 3 $ o .                         ",
"                                        . o $ 3 r B Z Z Z Z B y 5 - & $ $ $ $ $ $ & - 5 y B B y 3 $ o .                         ",
"                                        . o $ 3 r B V Z V B y 9 - $ o . . o O + + $ * 3 r y y r 3 $ o .                         ",
"                                        . o $ 3 t B V B m y 5 3 & + . . . . o + & - 3 4 5 r 5 3 * + . .                         ",
"                                      . . o $ 3 y B B m r 4 - & + . . . . . + & 3 5 r r 4 3 - * $ + .                           ",
"                                      . . o $ 3 t B B y 4 * $ + . . . . . . + - r y y r 3 * $ + X .                             ",
"                                      . . o + - r y y r 3 $ . . .     . . . + - r y y r 3 $ . . .                               ",
"                                      . . o + * 3 5 5 3 * + . .       . . . + * 3 r r 4 * + . .                                 ",
"                                      . . o + $ * - - * $ . .         . . o + $ * - 3 * $ X .                                   ",
"                                      . . o o + + + + + + .           . . o O + + + + + + .                                     ",
"                                      . . . o o o o . . .             . . . o o o o . . .                                       ",
"                                      . . . . . . . . .               . . . . . . . . .                                         ",
"                                        . . . . . . .                   . . . . . . .                                           ",
"                                                                                                                                ",
"                                                                                                                                ",
"                                                                                                                                ",
"                                                                                                                                ",
"                                                                                                                                ",
"                                                                                                                                ",
"                                                                                                                                "
};
