/* XPM */
static char *g_r0[] = {
/* columns rows colors chars-per-pixel */
"64 64 157 2 ",
"   c None",
".  c #020206",
"X  c #060608",
"o  c #070809",
"O  c #0B0C0A",
"+  c #140E0D",
"@  c #180E0E",
"#  c #0E120C",
"$  c #12140E",
"%  c #18100F",
"&  c #12190F",
"*  c #1E1411",
"=  c #161D11",
"-  c #191C12",
";  c #211512",
":  c #2A1715",
">  c #261914",
",  c #2B1B16",
"<  c #311F18",
"1  c #172112",
"2  c #1A2313",
"3  c #1E2916",
"4  c #212515",
"5  c #2C2217",
"6  c #212D17",
"7  c #2D2418",
"8  c #252F18",
"9  c #2A2D1A",
"0  c #302318",
"q  c #3D251C",
"w  c #302E1B",
"e  c #253319",
"r  c #29371B",
"t  c #2C3C1D",
"y  c #32301B",
"u  c #353A1E",
"i  c #3D3420",
"p  c #363F20",
"a  c #44271E",
"s  c #43291F",
"d  c #492D21",
"f  c #433120",
"g  c #4E3023",
"h  c #423821",
"j  c #523224",
"k  c #5A3627",
"l  c #553A27",
"z  c #5D3728",
"x  c #5D3928",
"c  c #653D2B",
"v  c #6A3F2D",
"b  c #2F401E",
"n  c #30431F",
"m  c #324521",
"M  c #3D4323",
"N  c #354A22",
"B  c #3C4E24",
"V  c #365123",
"C  c #3A5224",
"Z  c #3E5927",
"A  c #3F5A28",
"S  c #464425",
"D  c #4F4026",
"F  c #424D25",
"G  c #4B4A27",
"H  c #4C4728",
"J  c #4D4C28",
"K  c #514127",
"L  c #554529",
"P  c #5B452A",
"I  c #534E2A",
"U  c #5B4C2C",
"Y  c #435126",
"T  c #455729",
"R  c #4B552A",
"E  c #425C29",
"W  c #4A5C2B",
"Q  c #53532B",
"!  c #5D512E",
"~  c #545B2E",
"^  c #5A582F",
"/  c #5D5D31",
"(  c #63422C",
")  c #6C422E",
"_  c #644D2F",
"`  c #70412E",
"'  c #62522F",
"]  c #6B4B30",
"[  c #744531",
"{  c #744C32",
"}  c #7A4C34",
"|  c #7B4D34",
" . c #784F34",
".. c #7A4E34",
"X. c #794D34",
"o. c #7D4C35",
"O. c #7E4C35",
"+. c #7F4C35",
"@. c #7F4D35",
"#. c #7C4A34",
"$. c #675231",
"%. c #655130",
"&. c #6E5032",
"*. c #6F5032",
"=. c #685632",
"-. c #6D5533",
";. c #6C5733",
":. c #6C5633",
">. c #615B31",
",. c #665832",
"<. c #605F32",
"1. c #6C5833",
"2. c #6D5834",
"3. c #725233",
"4. c #775034",
"5. c #775034",
"6. c #785134",
"7. c #44642B",
"8. c #47612C",
"9. c #46652C",
"0. c #45672D",
"q. c #45612C",
"w. c #4A632D",
"e. c #4C622D",
"r. c #4E622E",
"t. c #4E632E",
"y. c #48652D",
"u. c #49652E",
"i. c #49682E",
"p. c #4B692F",
"a. c #486A2E",
"s. c #486B2F",
"d. c #4A6A2F",
"f. c #4A6B2F",
"g. c #4B692F",
"h. c #55602F",
"j. c #50642F",
"k. c #4E6D30",
"l. c #566030",
"z. c #526530",
"x. c #516630",
"c. c #526530",
"v. c #5E6032",
"b. c #5F6032",
"n. c #517132",
"m. c #804A35",
"M. c #814B35",
"N. c #804B35",
"B. c #804C35",
"V. c #804C36",
"C. c #814C36",
"Z. c #804D36",
"A. c #814D36",
"S. c #814E36",
"D. c #824E37",
"F. c #824F37",
"G. c #834F37",
/* pixels */
"                                                                                                                                ",
"                                                                                                                                ",
"                                                                                                                                ",
"                                                                                                                                ",
"                                                  . . . . . . . . . . . . . . . . . .                                           ",
"                                                X X X X X X X X X X X X X X X X X X X X                                         ",
"                                                @ @ @ @ @ @ @ % % % % % % % % @ @ @ @ @                                         ",
"                                              % ; > , , , , < < < < < < < < < , , , > ; %                                       ",
"                                          . O * , q s d d g j j j j j j j j g d d s q , * O .                                   ",
"                                        . X @ > q j x c v ) ) ) ) ) ) ) ) ) ) v c x j q > @ X .                                 ",
"                                        O @ * < d x ) [ #.#.#.#.#.#.#.#.#.#.#.#.[ ) x d < * @ O                                 ",
"                                      @ * , < s j v [ #.#.G.G.G.G.G.G.G.G.G.G.#.#.[ v j s < > * @                               ",
"                                  . O * , q d j c [ #.#.#.G.G.G.G.G.G.G.G.G.G.#.#.#.[ c j d q , * O .                           ",
"                                . X @ > q j x v [ } #.#.#.#.#.#.#.#.#.#.#.#.#.#.#.#.} [ v x j q > @ X .                         ",
"                                # % - 7 f x ( } } #.#.#.#.#.#.#.#.#.#.#.#.#.#.#.#.#.#.#.[ ) x d 0 - % #                         ",
"                              & 1 3 8 u S U _ &.} #.#.G.G.G.G.G.G.G.G.G.G.G.G.G.G.G.G.#.#.[ ) l i 9 2 1 &                       ",
"                          . # 1 e t N B R ~ / &.3.#.#.G.G.G.G.G.G.G.G.G.G.G.G.G.G.G.G.G.#.#.} ( H M t e 1 O .                   ",
"                        . o # 3 t C E 8.y.y.z.>.&.#.#.#.#.#.#.#.#.#.#.#.#.#.#.#.#.#.#.#.#.#.} %.Q W C t 3 # X .                 ",
"                        O # = 8 N A y.d.d.d.z./ &.6.#.#.#.} } } } } } } } } } } } } } } } } &.>./ y.E N e = # O                 ",
"                      % = 2 3 t N A 8.a.d.d.z./ &.6.#.} ] ] _ _ _ _ _ _ _ _ _ _ _ _ _ _ _ _ ' ^ ~ y.E N t 3 2 = %               ",
"                  X # = 2 e t n N Z E 8.a.d.z.b.&.3.#.} _ U I Q I I I I I I I I I I I I I Q Q R W E E C N t e 3 = # X           ",
"                . X # = 4 t N N C C C E 8.y.z.<.&.3.} ] U R Y Y Y Y Y Y Y Y Y Y Y Y Y Y Y Y Y Y C C C C N N t 8 = # X .         ",
"                . X O = 4 t N B B B Y E 8.y.z./ &.} } _ I Y C C C C C C C C C C C C C C C C C B N N N N N N t 4 = O X .         ",
"                . X O % 2 e t N M S J R y.y.z./ &.} ] _ I Y C V V V C C V V V V V V V C C C N N t t r r r e e 2 % O X .         ",
"                . X O O % - 4 u h D I Q ~ y.j./ %.] ) P J F C V V C C C C C C C C C C C C C N t e 2 2 2 2 2 = % # O X .         ",
"                X X X o o O * 5 f l P ! ~ y.j.~ ! ( ( P G F C C C C C C C C C C C C C C C C N t 3 & # O O # O O O X X X         ",
"                X X X . . X @ , s k ( U ~ y.y.~ U P P L G B C C C C C C C C C C C C C C C C N e 2 # X . . X X X X X X X         ",
"                  X X . . . @ , a k ( U Q W E R R I L G F B C C C C C C C C C C C C C C C C N e 2 O . . . . . . . X X           ",
"                      . . . @ : a k ( U Q T E Y Y G G F F B C C C C C C C C C C C C C C C C N e 2 O . . .                       ",
"                        . X @ , s k ( U J Y C C C Y B B C C C C C C C C C C C C C C C C C C N e 2 # X .                         ",
"                        . X @ , s k ( P I F F C C C C C C C C B N N N N B C C C C C C C B N t 4 = O X .                         ",
"                        . X @ , s k c ( P G G F B C C C Z Z C N b t t b N C E E E E C N n t 4 2 % O X .                         ",
"                        . X @ , s k c ( ( P L G F C C Z E E C N e 3 3 e N C 8.y.y.8.C N r 2 = # O O X X                         ",
"                        . X @ , s k c ) ) ( P L F B C A 8.8.E N 4 = = 4 N E y.k.k.y.E N e = O O o X X X                         ",
"                        . X @ , s k v v v v ( L G F C E 8.y.E N e 2 2 e N E d.k.k.d.E N e - # O O o X X                         ",
"                        . X @ , s z v ) v v ( P G F C E 8.y.8.C t e e t C 8.d.k.k.d.8.C b e 2 = # O X .                         ",
"                        . X @ , s x v ` v v ( L G F C E 8.y.8.E C N N C E y.d.k.k.d.y.E C N t 3 = O X .                         ",
"                        . X @ , s k c v v v ( L G F C A 8.y.y.y.8.E E 8.8.y.d.k.d.d.y.y.8.E C t 2 # X .                         ",
"                        . X @ > q j z c c c ( P G F C A 8.y.d.d.d.d.d.d.d.d.d.d.d.d.d.k.k.d.E N 3 # X .                         ",
"                          X @ ; < q d j z c ( P G F C A 8.y.k.k.k.k.k.k.k.k.k.k.k.k.k.n.n.k.8.N 4 % X .                         ",
"                              % * > < a j c ( P G F C A 8.y.k.k.k.k.k.k.k.k.k.k.k.k.k.n.n.k.E N 3 % X .                         ",
"                                O @ * < d z ( P G F C A 8.y.d.d.d.d.d.d.d.d.d.d.d.d.d.k.k.y.E N 3 # X .                         ",
"                                . X @ , q j l K F B C Z 8.8.y.8.E E E E E E E E E E E E E E C t 2 # X .                         ",
"                                  . O ; < q s h M B C Z E 8.E A B N N N N N N N N N N N N N t e 2 # X                           ",
"                                      @ ; , 5 w u B C Z E E C N t e 3 3 3 3 3 3 3 3 3 3 3 3 2 2 =                               ",
"                                        @ @ * 4 t N C C C C N t 4 = % # # # # # # # # % # # # #                                 ",
"                                        . X # 2 e N C C B N t 8 = # X . . X X X X X X X X X X X                                 ",
"                                        . . O 1 e N B N n t 4 2 % O . . . . . . . . . . . . . .                                 ",
"                                        . . O 2 t N N n e 3 = % O . . . . . . . . . . . . . .                                   ",
"                                      . . X # 2 r N N t 3 & O O . .                                                             ",
"                                      . . X O = e t t e 2 # . . .                                                               ",
"                                      . . X O & 2 4 4 2 & O . .                                                                 ",
"                                      . . X O # & = = & # . .                                                                   ",
"                                      . . X o O O O O O O .                                                                     ",
"                                      . . . X X X X . . .                                                                       ",
"                                      . . . . . . . . .                                                                         ",
"                                        . . . . . . .                                                                           ",
"                                                                                                                                ",
"                                                                                                                                ",
"                                                                                                                                ",
"                                                                                                                                ",
"                                                                                                                                ",
"                                                                                                                                ",
"                                                                                                                                "
};
