/* XPM */
static char *g_r1[] = {
/* columns rows colors chars-per-pixel */
"64 64 152 2 ",
"   c None",
".  c #020206",
"X  c #060608",
"o  c #070809",
"O  c #0B0C0A",
"+  c #140E0D",
"@  c #0E110C",
"#  c #12140E",
"$  c #18100F",
"%  c #13190F",
"&  c #1E1411",
"*  c #161D11",
"=  c #191E12",
"-  c #211412",
";  c #261914",
":  c #2B1B16",
">  c #311C17",
",  c #311F18",
"<  c #162011",
"1  c #1B2413",
"2  c #1E2915",
"3  c #212615",
"4  c #212D17",
"5  c #2E2518",
"6  c #272F19",
"7  c #2D2D1A",
"8  c #312319",
"9  c #3D251C",
"0  c #3C2A1D",
"q  c #233017",
"w  c #243219",
"e  c #29361B",
"r  c #2B3B1C",
"t  c #35391E",
"y  c #3E3320",
"u  c #44271E",
"i  c #43291F",
"p  c #492D21",
"a  c #423421",
"s  c #4E3023",
"d  c #4B3C24",
"f  c #523124",
"g  c #5A3627",
"h  c #553A26",
"j  c #5D3728",
"k  c #5D3928",
"l  c #653C2B",
"z  c #693F2D",
"x  c #2E411E",
"c  c #30431F",
"v  c #324420",
"b  c #3B4422",
"n  c #354A22",
"m  c #3B4E24",
"M  c #375123",
"N  c #3B5225",
"B  c #3E5927",
"V  c #3F5A28",
"C  c #454324",
"Z  c #4C4627",
"A  c #414E25",
"S  c #4A4A27",
"D  c #4D4C28",
"F  c #514127",
"G  c #544629",
"H  c #5C452A",
"J  c #534E2A",
"K  c #5B4C2C",
"L  c #435126",
"P  c #445728",
"I  c #4B5429",
"U  c #425C2A",
"Y  c #4A5A2B",
"T  c #53532C",
"R  c #5D512E",
"E  c #545C2E",
"W  c #5C582F",
"Q  c #5D5D31",
"!  c #63422C",
"~  c #6C422E",
"^  c #654E2F",
"/  c #62522F",
"(  c #6B4A30",
")  c #744531",
"_  c #744C32",
"`  c #7A4C34",
"'  c #7B4D34",
"]  c #784F34",
"[  c #7A4E34",
"{  c #794D34",
"}  c #7D4C35",
"|  c #7E4C35",
" . c #7F4C35",
".. c #7F4D35",
"X. c #7C4A34",
"o. c #665130",
"O. c #655731",
"+. c #655130",
"@. c #6E5032",
"#. c #6F5032",
"$. c #685632",
"%. c #6D5533",
"&. c #6C5733",
"*. c #6C5633",
"=. c #615B31",
"-. c #605F32",
";. c #6C5833",
":. c #6D5834",
">. c #725233",
",. c #775034",
"<. c #775034",
"1. c #785134",
"2. c #45612C",
"3. c #46602C",
"4. c #46612C",
"5. c #44652C",
"6. c #46652C",
"7. c #45622C",
"8. c #49622D",
"9. c #4C622D",
"0. c #4E622E",
"q. c #48662D",
"w. c #49652E",
"e. c #46682D",
"r. c #47692E",
"t. c #476A2E",
"y. c #49682E",
"u. c #49692E",
"i. c #4B682F",
"p. c #4A6A2F",
"a. c #4B692F",
"s. c #50642F",
"d. c #4D6C30",
"f. c #566030",
"g. c #526530",
"h. c #516630",
"j. c #526530",
"k. c #5E6032",
"l. c #5F6032",
"z. c #507032",
"x. c #804A35",
"c. c #804B35",
"v. c #814B35",
"b. c #804C35",
"n. c #804C36",
"m. c #814C36",
"M. c #804D36",
"N. c #814D36",
"B. c #814E36",
"V. c #824E37",
"C. c #824F37",
"Z. c #834F37",
/* pixels */
"                                                X X X X X X X X X X X X X X X X X X X X                                         ",
"                                                X X X X X X X X X X X X X X X X X X X X                                         ",
"                                                + + + + + + + + # # + + + + + + + + + +                                         ",
"                                              # - ; ; ; ; ; , , , , , , , , ; ; ; ; ; - $                                       ",
"                                          X o & ; 9 i p p s f f f f f f f f s p p i 9 ; & o X                                   ",
"                                        X X + ; 9 f j l z ~ ~ ~ ~ ~ ~ ~ ~ ~ ~ z l j f 9 ; + o X                                 ",
"                                        o + & , p j ~ ) | | | | | | | | | | | | ) ~ j p , & + o                                 ",
"                                      + & ; , i f z ) | | Z.Z.Z.Z.Z.Z.Z.Z.Z.Z.| | ) z f i , ; & +                               ",
"                  X X X X X X X X X o - > 9 p f l ) | | | Z.Z.Z.Z.Z.Z.Z.Z.Z.Z.| | | ) l f p 9 ; & o X X X X X X X X X           ",
"                X X X X X X X X X X + ; 9 f j z ) ` | | | | | | | | | | | | | | | | ` ) z j f 9 ; + X X X X X X X X X X         ",
"                X X X o o o @ @ @ @ = 5 a j ! ` ` | | | | | | | | | | | | | | | | | | | ) ~ j p 8 = # @ @ @ o o o X X X         ",
"                X X o @ % * 1 1 1 2 6 t C K ^ %.` | | Z.Z.| | | | | | | Z.Z.Z.Z.Z.Z.Z.| | ) ~ h y 7 2 1 1 1 * # o o X X         ",
"                X X o # 1 q r r r v v m I E Q O.>.| | Z.Z.Z.Z.Z.| | | Z.Z.Z.Z.Z.Z.Z.Z.Z.Z.| ` ! Z b v x r r q 1 # o X X         ",
"                X X o * 4 r n N N P P P 0.0.g.=.%.` | | | | | | | | | | | | | | | | | | | | ` O.T Y P N N n r 4 * o X X         ",
"                X X @ * 4 r n N P 6.0.p.p.p.g.Q %.>.| | | ` ` ` ` ` ` ` ` ` ` ` ` ` ` ` ` ` %.O.W 0.6.P N n r 4 * @ X X         ",
"                  X @ * 2 q r n N P 6.t.t.p.g.k.;.>.| ` ( ( ^ ^ ^ ^ ^ ^ ^ ^ ^ ^ ^ ^ ^ ^ ^ ^ / W E 0.P N n r q 2 * @ X           ",
"                      # * 1 2 q n N P 6.t.p.g.k.;.>.| ` ^ K G G G G G G G G T T T G G G G T T I Y P N n r 2 1 * #               ",
"                        o @ % 2 r n B 6.6.0.g.Q %.>.` ( K I L L L L L L L L L L L L L L L L L L L N n r 2 % @ o                 ",
"                        X X @ = e b L P 6.0.g.Q %.` ` ^ G L N N N N N N N N N N N N N N N N N m n n r q * @ X X                 ",
"                        X X o = 7 C S Y 0.0.g.Q %.` ( ^ S N M M M N N N M M M M M M M N N N n n x r q 1 % o X                   ",
"                        X X + ; 0 d G T E 0.g.Q O.( ~ H S m N M M N N N N N M M M M N N N N n x q 2 1 % @                       ",
"                        X X + ; 0 h H R E 0.s.E / ! ! H S A N N N N N N N N N N N N N N N N n r 1 % @ o                         ",
"                        X X + ; i g ! R E 0.0.E K H H G S L N M n n n n m N N N N N N N m n r 4 * o o X                         ",
"                        X X + ; u g ! K T Y P I S G G G I P N n x r r x n N P P P P N n c r 4 * @ o X X                         ",
"                        X X + ; u g ! K T P P L L S S I Y P N v q 1 1 q v B 6.0.0.6.B n e 1 * @ o X X X                         ",
"                        X X + ; i g ! K S L N N N A L P 0.6.P v 4 * * 4 v P 0.d.d.0.P v q * @ o X X X X                         ",
"                        X X + ; i g ! H G A m m N N N P 6.0.P n q 1 1 q n P p.d.d.p.P n q * @ o o X X X                         ",
"                        X X + ; i j ! ! H S S A m N N P 6.0.6.N r q q r N 6.d.d.d.d.6.N x q 1 * @ o X X                         ",
"                        X X + ; i j ~ ~ ! H G S A N N V 6.0.6.P N n n m P 0.p.d.d.p.0.P N n r 2 * o X X                         ",
"                        X X + ; i g l ~ ~ ! H G A m N V 6.0.p.6.6.P P 6.0.0.p.p.d.p.p.0.6.P N r 1 @ X X                         ",
"                        X X + ; 9 f j l l l ! H S A N V 6.0.p.p.p.p.p.p.p.p.p.p.p.p.p.d.d.p.P v 2 @ X X                         ",
"                          X + - > 9 p f l l ! H S A N V 6.0.p.d.d.d.d.d.d.p.p.p.p.p.p.d.d.d.P v 2 @ X X                         ",
"                              $ - ; , u f l ! H S A N V 6.0.d.d.d.d.d.d.d.p.p.p.p.p.p.d.d.d.P v 2 @ X X                         ",
"                                o + & , p j ! H S A N V 6.0.p.p.p.p.p.p.p.p.p.p.p.p.p.d.d.p.P v 2 @ X X                         ",
"                                X X + ; 9 f h F S m N B P 6.0.p.p.p.p.p.p.p.p.p.p.p.p.d.d.p.P v 2 @ X X                         ",
"                                  X o - > 9 i a b m N B P 6.6.0.p.p.d.d.d.d.d.d.d.d.d.d.z.d.P v 2 @ X X X                       ",
"                                      + - - 5 7 t m N N B P P 6.0.p.d.d.d.d.d.d.d.d.d.z.z.d.P v 2 @ X X X X X                   ",
"                                        + + & 3 r n N N N N N P 6.0.p.p.p.p.p.p.p.p.p.d.d.p.P v 2 @ o X X X X X                 ",
"                                        o @ % 2 r n m m n n n m N P P P P P P P P P P P P P N x 4 * o o X X X X                 ",
"                                      @ % < 2 q x n m n x r q r r x v v v v v v v v v v v v x r q 2 * # o o X X                 ",
"                                  X @ * 2 q r c n N n x q 1 1 1 1 1 2 2 2 2 2 2 2 2 2 2 2 2 2 6 q e q 1 % o X X                 ",
"                                X X @ * 4 r n n N m n r 2 % @ o @ @ @ # @ @ @ @ @ @ @ @ @ @ * 1 e r r q * @ X X                 ",
"                                X X o * 4 r v n n v r q 1 @ X X X X X X X X X X X X X X X X @ 1 q r r 4 * @ X X                 ",
"                                X X o # 1 q e r r q q 1 * o X X X X X X X X X X X X X X X X o * 2 q q 1 % o X X                 ",
"                                X X o @ # * 1 1 1 1 = * #                                     # * 1 * % @ o X X                 ",
"                                X X X o o o @ @ @ @ @ o                                         @ @ o o o X X X                 ",
"                                X X X X X X X X X X X X                                         X X X X X X X X                 ",
"                                X X X X X X X X X X X X                                         X X X X X X X                   ",
"                                  X X X X X X X X X X                                             X X X X X X                   ",
"                                                                                                                                ",
"                                                                                                                                ",
"                                                                                                                                ",
"                                                                                                                                ",
"                                                                                                                                ",
"                                                                                                                                ",
"                                                                                                                                ",
"                                                                                                                                ",
"                                                                                                                                ",
"                                                                                                                                ",
"                                                                                                                                ",
"                                                                                                                                ",
"                                                                                                                                ",
"                                                                                                                                ",
"                                                                                                                                "
};
