/* XPM */
static char *g_r2[] = {
/* columns rows colors chars-per-pixel */
"64 64 151 2 ",
"   c None",
".  c #020205",
"X  c #070907",
"o  c #060608",
"O  c #070808",
"+  c #0B0C0A",
"@  c #140E0D",
"#  c #0E110C",
"$  c #12140E",
"%  c #18100F",
"&  c #13190F",
"*  c #1F1411",
"=  c #161D11",
"-  c #1A1D12",
";  c #201512",
":  c #261914",
">  c #2B1B16",
",  c #301C17",
"<  c #311F18",
"1  c #1A2313",
"2  c #1E2916",
"3  c #212E17",
"4  c #2E2518",
"5  c #272F19",
"6  c #2D2D1A",
"7  c #312319",
"8  c #3D251C",
"9  c #3B2B1D",
"0  c #253319",
"q  c #29341A",
"w  c #2B3C1C",
"e  c #31311B",
"r  c #36381F",
"t  c #3E3320",
"y  c #44271E",
"u  c #43291E",
"i  c #4A2D21",
"p  c #542F24",
"a  c #443221",
"s  c #4E3023",
"d  c #4C3D25",
"f  c #523224",
"g  c #5A3627",
"h  c #553926",
"j  c #5D3728",
"k  c #5D3928",
"l  c #653C2B",
"z  c #693F2D",
"x  c #2E401E",
"c  c #30421F",
"v  c #324520",
"b  c #394422",
"n  c #354A22",
"m  c #3C4E24",
"M  c #375123",
"N  c #3B5325",
"B  c #3E5927",
"V  c #3F5B28",
"C  c #434124",
"Z  c #4C4627",
"A  c #414E25",
"S  c #4A4B27",
"D  c #4D4C28",
"F  c #544629",
"G  c #5C452A",
"H  c #534D2A",
"J  c #5B4C2C",
"K  c #435126",
"L  c #485027",
"P  c #445728",
"I  c #4A5329",
"U  c #425C29",
"Y  c #4A5A2B",
"T  c #53532C",
"R  c #5D512E",
"E  c #545C2E",
"W  c #5C582F",
"Q  c #5D5D31",
"!  c #63422C",
"~  c #6C422E",
"^  c #654E2F",
"/  c #62522F",
"(  c #6B4A30",
")  c #744531",
"_  c #744C32",
"`  c #7A4C34",
"'  c #7B4D34",
"]  c #784F34",
"[  c #7A4E34",
"{  c #794D34",
"}  c #7D4C35",
"|  c #7E4C35",
" . c #7F4C35",
".. c #7F4D35",
"X. c #7C4A34",
"o. c #665130",
"O. c #655731",
"+. c #655130",
"@. c #6E5032",
"#. c #6F5032",
"$. c #685632",
"%. c #6D5533",
"&. c #6C5733",
"*. c #6C5633",
"=. c #615B31",
"-. c #605F32",
";. c #6C5833",
":. c #6D5834",
">. c #725233",
",. c #775034",
"<. c #775034",
"1. c #785134",
"2. c #45612C",
"3. c #46602C",
"4. c #46612C",
"5. c #44652C",
"6. c #46652C",
"7. c #45622C",
"8. c #49622D",
"9. c #4C622D",
"0. c #4E622E",
"q. c #48662D",
"w. c #49652E",
"e. c #46682D",
"r. c #47692E",
"t. c #476A2E",
"y. c #49682E",
"u. c #49692E",
"i. c #4B682F",
"p. c #4A6A2F",
"a. c #4B692F",
"s. c #50642F",
"d. c #4D6C30",
"f. c #566030",
"g. c #526530",
"h. c #516630",
"j. c #526530",
"k. c #5E6032",
"l. c #5F6032",
"z. c #804A35",
"x. c #804B35",
"c. c #814B35",
"v. c #804C35",
"b. c #804C36",
"n. c #814C36",
"m. c #804D36",
"M. c #814D36",
"N. c #814E36",
"B. c #824E37",
"V. c #824F37",
"C. c #834F37",
/* pixels */
"                                                                                                                                ",
"                                                                                                                                ",
"                                                                                                                                ",
"                                                                                                                                ",
"                                                  o o o o o o o o o o o o o o o o o o                                           ",
"                                                o o o o o o o o o o o o o o o o o o o o                                         ",
"                                                @ @ @ @ @ @ @ @ @ @ @ @ & @ @ @ @ @ @ @                                         ",
"                                              % ; : > > > > < < < < < < < < < > > > : ; &                                       ",
"                                          o O * > 8 u i i s f f f f f f f f s i i u 8 > * O o                                   ",
"                                        o o @ : 8 f k l z ~ ~ ~ ~ ~ ~ ~ ~ ~ ~ z l k f 8 : @ o o                                 ",
"                                        O @ * < i k ~ ) X.X.X.X.X.X.X.X.X.X.X.X.) ~ k i < * @ O                                 ",
"                                      @ ; > < u f z ) X.X.C.C.C.C.C.C.C.C.C.C.X.X.) z f u < : * @                               ",
"                  o o o o o o o o o O ; , 8 i f l ) X.X.C.C.C.C.C.C.C.C.C.C.C.X.X.X.) l f i 8 > * O o o o o o o o o o           ",
"                o o o o o o o o o o @ : 8 f k z ) ` X.X.X.X.X.X.X.X.X.X.X.X.X.X.X.X.` ) z k f 8 : @ o o o o o o o o o o         ",
"                o o o O O O # # # # - 4 a k ! ` ` X.X.X.X.X.X.X.X.X.X.X.X.X.X.X.X.X.X.X.) ~ k i 7 - & # # # O O O o o o         ",
"                o o O # & = 1 1 1 2 5 r C J ^ @.` X.X.C.C.C.C.C.C.C.C.C.C.C.C.C.C.C.C.X.X.) ~ h t 6 2 1 1 1 = & # O o o         ",
"                o o O & 1 0 w w w v v m I E Q @.>.X.X.C.C.C.C.C.C.C.C.C.C.C.C.C.C.C.C.C.C.X.` ! Z b v x w w 0 1 & O o o         ",
"                o o O = 3 w n m N U U U q.q.g.=.@.X.X.X.X.X.X.X.X.X.X.X.X.X.X.X.X.X.X.X.X.X.` +.T Y U N N n w 3 = O o o         ",
"                o o # = 3 w n N U 6.q.y.y.y.g.Q @.1.X.X.X.` ` ` ` ` ` ` ` ` ` ` ` ` ` ` ` ` @.+.Q q.6.U N n w 3 = # o o         ",
"                  o # = 2 0 w n N U 6.r.y.y.g.l.@.1.X.` ( ( ^ ^ ^ ^ ^ ^ ^ ^ ^ ^ ^ ^ ^ ^ ^ ^ / W E q.U N n w 0 1 = O o           ",
"                      & = 1 3 w v N U 6.r.y.g.l.;.>.X.` ^ J H T H H H H H H H H H H H H H H T I Y U N n w 2 1 = &               ",
"                        O # & 2 w n N U 6.q.g.-.@.>.` ( J I K K K K K K K K K K K K K K K K K K K N n w 2 & # O                 ",
"                        o o O - q b K U 6.q.g.Q @.` ` ^ H K N N N N N N N N N N N N N N N N N m m n w 0 = # o o                 ",
"                        o o O - 6 C S Y q.q.g.Q @.` ( ^ H A M M M N N N N M M M M M M N N N n n x w 0 1 & O o                   ",
"                        o o O : 9 d H T E q.g.Q +.( ~ G S A N M N N N N N N M M M M N N N N n x 0 2 = & #                       ",
"                        o o @ : u h G R E q.s.E R ! ! G D A N N N N N N N N N N N N N N N N n w 1 & # O                         ",
"                        o o @ > y g ! J E q.q.E J G G H S K N n n n n n m N N N N N N N m n w 3 = O o o                         ",
"                        o o @ > y g ! J T Y U I S H H S I P N n x w w x n N U U U U N n c w 3 - # O o o                         ",
"                        o o @ > y g ! J T P K K A D D I Y U N v 0 1 1 0 v B 6.q.q.6.N n q 1 = # O o o o                         ",
"                        o o @ > u g ! J S K N N N m K U q.6.U v 3 = = 3 v U q.d.y.q.U v 0 = # O o o o o                         ",
"                        o o @ > u g ! G H A A m N N N U 6.q.U n 0 - - 0 n U y.d.d.y.U n 0 - # O O o o o                         ",
"                        o o @ > u j ! ! G D D A m N N U 6.q.6.N w 0 0 w N 6.d.d.d.y.6.N x 0 1 & # O o o                         ",
"                        o o @ > u k ~ ~ ! G F D A N N V 6.q.q.U N n n m U q.d.d.d.d.q.U N n w 3 = O o o                         ",
"                        o o @ > u g l ~ ~ ! G F A m N V 6.q.q.q.6.U U U q.q.y.d.d.y.q.q.6.U N w 1 # o o                         ",
"                        o o @ : 8 f j l l l ! F D A N V 6.q.y.y.y.y.y.y.y.y.y.y.y.y.y.d.d.y.U v 2 # o o                         ",
"                          o @ ; < 8 i f j l l G D A N V 6.q.y.d.d.d.d.d.d.y.y.y.y.y.y.d.d.d.U v 2 & o o                         ",
"                              % ; > < y p l l G D A N V 6.q.y.d.d.d.d.d.y.y.y.y.y.y.y.d.d.d.U v 2 # o o                         ",
"                                O @ * < i k ! G D A N V 6.q.y.y.d.y.y.y.y.y.y.y.y.y.y.d.d.y.U v 2 # o o                         ",
"                                o o @ > u h G H D K N B U 6.q.y.y.y.y.y.y.y.y.y.y.y.y.d.d.y.U v 2 # o o                         ",
"                                o o O : 9 d H H L K N B U 6.6.q.y.d.d.d.d.d.d.d.d.d.d.d.d.y.U v 2 # o o                         ",
"                                o o O - r C D I K N N N B U U 6.q.d.d.d.d.d.d.d.d.d.d.d.d.y.U v 2 # o o                         ",
"                                o o # 1 q b m K N N N N N N N U 6.q.y.y.y.y.y.y.y.y.y.d.d.y.U v 2 # o o                         ",
"                                o o O = 3 w v n n v v v v v n m N U U U U U U U U U U 6.q.q.U v 2 # o o                         ",
"                                o o O & 1 3 0 0 0 0 0 0 0 0 0 w w c v v v v v c v v n N U U N x 1 # o o                         ",
"                                o o O O & = 1 1 1 1 1 1 1 1 1 1 1 2 2 2 2 2 2 1 2 2 0 w n N N w 1 # o o                         ",
"                                o o o O O O O # # # # # O # O # # # # & # # # # # & = 3 w n n w 1 # o o                         ",
"                                o o o o o o o o o o o o o o o o o o o o o o o o o o # 1 0 w w 0 = O o o                         ",
"                                o o o o o o o o o o o o o o o o o o o o o o o o o o O & 1 3 3 1 & O o o                         ",
"                                  o o o o o o o o o o o o o o o o o o o o o o o o o o # & & & & O O o o o                       ",
"                                                                                    o X O O O O o o o o o                       ",
"                                                                                      o o o o o o o o o o                       ",
"                                                                                        o o o o o o o o o                       ",
"                                                                                          o o o o o o o                         ",
"                                                                                                                                ",
"                                                                                                                                ",
"                                                                                                                                ",
"                                                                                                                                ",
"                                                                                                                                ",
"                                                                                                                                ",
"                                                                                                                                ",
"                                                                                                                                ",
"                                                                                                                                ",
"                                                                                                                                ",
"                                                                                                                                "
};
