/* XPM */
static char *g_r3[] = {
/* columns rows colors chars-per-pixel */
"64 64 157 2 ",
"   c None",
".  c #020205",
"X  c #070807",
"o  c #080A07",
"O  c #060608",
"+  c #070808",
"@  c #0B0C0A",
"#  c #140E0D",
"$  c #0E110C",
"%  c #12140E",
"&  c #18100F",
"*  c #12190E",
"=  c #1E1411",
"-  c #161D10",
";  c #1B1D12",
":  c #211512",
">  c #2A1715",
",  c #261914",
"<  c #2B1B16",
"1  c #311F18",
"2  c #172011",
"3  c #1A2313",
"4  c #1E2915",
"5  c #2D2117",
"6  c #222D17",
"7  c #2D2418",
"8  c #252F18",
"9  c #2A2D1A",
"0  c #302318",
"q  c #3D251C",
"w  c #3D2C1E",
"e  c #253319",
"r  c #29361A",
"t  c #2C3C1D",
"y  c #32301C",
"u  c #36381F",
"i  c #3D3420",
"p  c #363F20",
"a  c #44271E",
"s  c #43291F",
"d  c #492D21",
"f  c #433120",
"g  c #4E3023",
"h  c #423821",
"j  c #4F3E25",
"k  c #523224",
"l  c #5A3627",
"z  c #553A26",
"x  c #5D3728",
"c  c #5D3928",
"v  c #653D2B",
"b  c #6A3F2D",
"n  c #2E401E",
"m  c #30421F",
"M  c #324620",
"N  c #3B4422",
"B  c #354A22",
"V  c #3C4E24",
"C  c #365123",
"Z  c #3A5224",
"A  c #3E5927",
"S  c #3F5B28",
"D  c #454424",
"F  c #4F4026",
"G  c #424E25",
"H  c #4A4A27",
"J  c #4C4728",
"K  c #4D4C28",
"L  c #554528",
"P  c #5B452A",
"I  c #534E2A",
"U  c #5B4C2C",
"Y  c #435126",
"T  c #455729",
"R  c #4B552A",
"E  c #425C29",
"W  c #4A5C2B",
"Q  c #53532B",
"!  c #5D512E",
"~  c #545B2E",
"^  c #5A582F",
"/  c #5D5D31",
"(  c #63422C",
")  c #6C422E",
"_  c #644D2F",
"`  c #70412E",
"'  c #62522F",
"]  c #6B4B30",
"[  c #744531",
"{  c #744C32",
"}  c #7A4C34",
"|  c #7B4D34",
" . c #784F34",
".. c #7A4E34",
"X. c #794D34",
"o. c #7D4C35",
"O. c #7E4C35",
"+. c #7F4C35",
"@. c #7F4D35",
"#. c #7C4A34",
"$. c #675231",
"%. c #655130",
"&. c #6E5032",
"*. c #6F5032",
"=. c #685632",
"-. c #6D5533",
";. c #6C5733",
":. c #6C5633",
">. c #615B31",
",. c #665832",
"<. c #605F32",
"1. c #6C5833",
"2. c #6D5834",
"3. c #725233",
"4. c #775034",
"5. c #775034",
"6. c #785134",
"7. c #44642B",
"8. c #47612C",
"9. c #46652C",
"0. c #45672D",
"q. c #46622C",
"w. c #4A632D",
"e. c #4C622D",
"r. c #4E622E",
"t. c #4E632E",
"y. c #48652D",
"u. c #49652E",
"i. c #49682E",
"p. c #4B692F",
"a. c #486A2E",
"s. c #486B2F",
"d. c #4A6A2F",
"f. c #4A6B2F",
"g. c #4B692F",
"h. c #55602F",
"j. c #50642F",
"k. c #4E6D30",
"l. c #566030",
"z. c #526530",
"x. c #516630",
"c. c #526530",
"v. c #5E6032",
"b. c #5F6032",
"n. c #507032",
"m. c #804A35",
"M. c #814B35",
"N. c #804B35",
"B. c #804C35",
"V. c #804C36",
"C. c #814C36",
"Z. c #804D36",
"A. c #814D36",
"S. c #814E36",
"D. c #824E37",
"F. c #824F37",
"G. c #834F37",
/* pixels */
"                                                                                                                                ",
"                                                                                                                                ",
"                                                                                                                                ",
"                                                                                                                                ",
"                                                  . . . . . . . . . . . . . . . . . .                                           ",
"                                                O O O O O O O O O O O O O O O O O O O O                                         ",
"                                                # # # # # # # & & & & & & & & # # # # #                                         ",
"                                              & : , < < < 1 1 1 1 1 1 1 1 1 1 < < < , : &                                       ",
"                                          . @ = < q s d d g k k k k k k k k g d d s q < = @ .                                   ",
"                                        . O # , q k c v b ) ) ) ) ) ) ) ) ) ) b v c k q , # O .                                 ",
"                                        @ # = 1 d c ) [ #.#.#.#.#.#.#.#.#.#.#.#.[ ) c d 1 = # @                                 ",
"                                      # = < 1 s k b [ #.#.G.G.G.G.G.G.G.G.G.G.#.#.[ b k s 1 , = #                               ",
"                                  . @ = < q d k v [ #.#.G.G.G.G.G.G.G.G.G.G.G.#.#.#.[ v k d q < = @ .                           ",
"                                . O # , q k c b [ } #.#.#.#.#.#.#.#.#.#.#.#.#.#.#.#.} [ b c k q , # O .                         ",
"                                $ & ; 7 f c ( } } #.#.#.#.#.#.#.#.#.#.#.#.#.#.#.#.#.#.#.[ ) c d 0 ; & $                         ",
"                              * 2 4 8 u D U _ &.} #.#.G.G.G.G.G.G.G.G.G.G.G.G.G.G.G.G.#.#.[ ) z i 9 3 2 *                       ",
"                          . @ 3 e t B V R ~ / &.3.#.#.G.G.G.G.G.G.G.G.G.G.G.G.G.G.G.G.G.#.#.} ( J N t e 2 @ .                   ",
"                        . O & 3 t Z E 8.y.y.z.>.&.#.#.#.#.#.#.#.#.#.#.#.#.#.#.#.#.#.#.#.#.#.} %.Q W Z t 4 $ O .                 ",
"                        @ $ - 8 B S y.d.d.d.z./ &.6.#.#.#.} } } } } } } } } } } } } } } } } &.>./ y.E B e - $ @                 ",
"                      & - 3 4 t B S 8.a.d.d.z./ &.6.#.} ] ] _ _ _ _ _ _ _ _ _ _ _ _ _ _ _ _ ' ^ ~ y.E B t 6 3 - &               ",
"                  O $ - 3 e t m B A E 8.a.d.z.b.&.3.#.} _ U I Q I I I I I I I I I I I I I Q Q R W E E Z B t e 4 - $ O           ",
"                . O $ - 6 t B B Z Z Z E 8.y.z.<.&.3.} ] U R Y Y Y Y Y Y Y Y Y Y Y Y Y Y Y Y Y Y Z Z Z Z B B t 6 - $ O .         ",
"                . O @ - 6 t B V V V Y E 8.y.z./ &.} } _ I Y Z Z Z Z Z Z Z Z Z Z Z Z Z Z Z Z Z V B B B B B B t 6 - @ O .         ",
"                . O @ & 3 e t B N D K R y.y.z./ &.} ] _ I Y Z C C C Z Z C C C C C C C Z Z Z B B t t r r r e e 3 & @ O .         ",
"                . O @ @ & ; 6 u h F I Q ~ y.j./ %.] ) P K G Z C C Z Z Z Z Z Z Z Z Z Z Z Z Z B t e 3 3 3 3 3 - & $ @ O .         ",
"                O O O + + @ = 5 f z P ! ~ y.j.~ ! ( ( P H G Z Z Z Z Z Z Z Z Z Z Z Z Z Z Z Z B t 4 * $ @ @ $ @ @ @ O O O         ",
"                O O O . . O # < s l ( _ ~ y.y.~ U P P L H V Z Z Z Z Z Z Z Z Z Z Z Z Z Z Z Z B e 3 $ O . . O O O O O O O         ",
"                  O O . . . # < a l ( U Q W E R R I L H G V Z Z Z Z Z Z Z Z Z Z Z Z Z Z Z Z B e 3 @ . . . . . . . O O           ",
"                      . . O # > a l ( U Q T E Y Y H H G G V Z Z Z Z Z Z Z Z Z Z Z Z Z Z Z Z B e 3 @ . . .                       ",
"                        . O # < s l ( U K Y Z Z Z Y V V Z Z Z Z Z Z Z Z Z Z Z Z Z Z Z Z Z Z B e 3 $ O .                         ",
"                        . O # < s l ( P I G G Z Z Z Z Z Z Z Z V B B B B V Z Z Z Z Z Z Z V B t 6 - @ O .                         ",
"                        . O # < s l v ( P H H G V Z Z Z A A Z B n t t n B Z E E E E Z B m t 6 3 & @ O .                         ",
"                        . O # < s l v ( ( P L H G Z Z A E E Z B e 4 4 e B Z 8.y.y.8.Z B r 3 - $ @ @ O O                         ",
"                        . O # < s l v ) ) ( P L H V Z S 8.8.E B 6 - - 6 B E y.k.k.y.E B e - @ @ + O O O                         ",
"                        . O # < s l b b b b ( L H G Z E 8.y.E B e ; 3 e B E d.k.k.d.E B e ; $ @ @ + O O                         ",
"                        . O # < s x b ) b b ( P H G Z E 8.y.8.Z t e e t Z 8.d.k.k.d.8.Z n e 3 - $ @ O .                         ",
"                        . O # < s x b ` b b ( L H G Z E 8.y.y.E Z B B V E y.d.k.k.d.y.E Z B t 4 - @ O .                         ",
"                        . O # < s l v b b b ( L H G Z S 8.y.y.y.8.E E 8.8.y.d.k.k.d.y.y.8.E Z t 3 $ O .                         ",
"                        . O # , q k x v v v ( P H G Z A E 8.y.d.d.d.d.d.d.d.d.d.d.d.d.k.k.d.E B 4 $ O .                         ",
"                          O # : 1 q d k x v ( P K Y Z A E 8.8.d.k.k.k.k.k.k.k.k.k.k.k.k.n.k.E B 4 & O .                         ",
"                              & : , 1 a k v ( U K Y Z Z A E E 8.d.k.k.k.k.k.k.k.k.k.k.k.n.k.E B 4 & O .                         ",
"                                @ # = 1 d x ( P H G Z Z Z Z Z E 8.y.d.d.d.d.d.d.d.d.d.k.k.d.E B 4 & O .                         ",
"                                . O # < q k z j D N B B B B B V Z S E E E E E E E E E 8.y.y.E n 4 $ O .                         ",
"                                  . @ : 1 q w w u r e e e e e t t n B B B B B B B B B Z E E Z t 3 $ O .                         ",
"                                      & : , , , ; 3 3 3 3 3 3 3 3 4 4 6 4 4 4 4 4 4 e t B Z Z t 3 $ O .                         ",
"                                        # # # # @ $ $ $ $ $ $ $ $ $ $ & $ $ $ $ $ & - 6 t B B t 3 $ O .                         ",
"                                        . O O O O O O O O O O O O O O O O O O + @ @ & 3 e t t e 3 @ O .                         ",
"                                        . . . . . . . . . . . . . . . . . . . + @ $ * 3 4 6 6 3 * @ . .                         ",
"                                          . . . . . . . . . . . . . . . . . . @ & - 3 3 3 2 * * $ o .                           ",
"                                                                    . . . . @ $ - 4 4 3 * $ @ o X .                             ",
"                                                                      . . . @ $ 2 4 4 3 & @ . . .                               ",
"                                                                      . . . X $ * 2 2 * $ . . .                                 ",
"                                                                      . . . . @ $ $ & $ @ . .                                   ",
"                                                                      . . . . . X @ @ X . .                                     ",
"                                                                      . . . . . . . . . .                                       ",
"                                                                      . . . . . . . . .                                         ",
"                                                                        . . . . . . .                                           ",
"                                                                                                                                ",
"                                                                                                                                ",
"                                                                                                                                ",
"                                                                                                                                ",
"                                                                                                                                ",
"                                                                                                                                ",
"                                                                                                                                "
};
