/* XPM */
static char *g_r4[] = {
/* columns rows colors chars-per-pixel */
"64 64 154 2 ",
"   c None",
".  c #020206",
"X  c #060608",
"o  c #0B0C0A",
"O  c #140E0D",
"+  c #180E0E",
"@  c #0E120C",
"#  c #12140E",
"$  c #18100F",
"%  c #13190F",
"&  c #1E1411",
"*  c #161D11",
"=  c #1A1D12",
"-  c #201411",
";  c #261914",
":  c #2B1B16",
">  c #301C17",
",  c #311F18",
"<  c #172011",
"1  c #1A2313",
"2  c #1F2916",
"3  c #212515",
"4  c #2C2217",
"5  c #212D17",
"6  c #2E2518",
"7  c #272F19",
"8  c #2D2D1A",
"9  c #312319",
"0  c #3D251C",
"q  c #302E1A",
"w  c #3C2A1D",
"e  c #253219",
"r  c #2A351A",
"t  c #2B3C1C",
"y  c #353A1E",
"u  c #3E3320",
"i  c #44271E",
"p  c #44291F",
"a  c #492D21",
"s  c #443221",
"d  c #4E3023",
"f  c #423821",
"g  c #4B3C24",
"h  c #523224",
"j  c #5A3627",
"k  c #553A26",
"l  c #5D3728",
"z  c #5D3928",
"x  c #653C2B",
"c  c #693F2D",
"v  c #2E401E",
"b  c #30421F",
"n  c #324520",
"m  c #3B4422",
"M  c #354A22",
"N  c #3C4E24",
"B  c #375123",
"V  c #3B5325",
"C  c #3F5B28",
"Z  c #454324",
"A  c #4C4627",
"S  c #414E25",
"D  c #4A4A27",
"F  c #4D4C28",
"G  c #514127",
"H  c #544629",
"J  c #5C452A",
"K  c #534E2A",
"L  c #5B4C2C",
"P  c #435126",
"I  c #405927",
"U  c #445728",
"Y  c #4B5429",
"T  c #425C29",
"R  c #4A5A2B",
"E  c #53532C",
"W  c #5D512E",
"Q  c #545C2E",
"!  c #5C582F",
"~  c #5D5D31",
"^  c #63422C",
"/  c #6C422E",
"(  c #654E2F",
")  c #62522F",
"_  c #6B4A30",
"`  c #744531",
"'  c #744C32",
"]  c #7A4C34",
"[  c #7B4D34",
"{  c #784F34",
"}  c #7A4E34",
"|  c #794D34",
" . c #7D4C35",
".. c #7E4C35",
"X. c #7F4C35",
"o. c #7F4D35",
"O. c #7C4A34",
"+. c #665130",
"@. c #655731",
"#. c #655130",
"$. c #6E5032",
"%. c #6F5032",
"&. c #685632",
"*. c #6D5533",
"=. c #6C5733",
"-. c #6C5633",
";. c #615B31",
":. c #605F32",
">. c #6C5833",
",. c #6D5834",
"<. c #725233",
"1. c #775034",
"2. c #775034",
"3. c #785134",
"4. c #45612C",
"5. c #46602C",
"6. c #46612C",
"7. c #44652C",
"8. c #46652C",
"9. c #45622C",
"0. c #49622D",
"q. c #4C622D",
"w. c #4E622E",
"e. c #48662D",
"r. c #49652E",
"t. c #46682D",
"y. c #47692E",
"u. c #476A2E",
"i. c #49682E",
"p. c #49692E",
"a. c #4B682F",
"s. c #4A6A2F",
"d. c #4B692F",
"f. c #50642F",
"g. c #4D6C30",
"h. c #566030",
"j. c #526530",
"k. c #516630",
"l. c #526530",
"z. c #5E6032",
"x. c #5F6032",
"c. c #507032",
"v. c #804A35",
"b. c #804B35",
"n. c #814B35",
"m. c #804C35",
"M. c #804C36",
"N. c #814C36",
"B. c #804D36",
"V. c #814D36",
"C. c #814E36",
"Z. c #824E37",
"A. c #824F37",
"S. c #834F37",
/* pixels */
"                                                X X X X X X X X X X X X X X X X X X X X                                         ",
"                                                X X X X X X X X X X X X X X X X X X X X                                         ",
"                                                + + + + + + + + # # + + + + + + + + + +                                         ",
"                                              # - ; ; ; ; ; ; , , , , , , , ; ; ; ; ; - #                                       ",
"                                          X o & ; 0 i a a d d h h h h h h h d a a i 0 ; & o X                                   ",
"                                        X X + ; 0 h l x c / / / / / / / / / / c x l h 0 ; + X X                                 ",
"                                        o + & , a l / `  . . . . . . . . . . . .` / l a , & + o                                 ",
"                                      + & ; , i h c `  . .S.S.S.S.S.S.S.S.S.S. . .` c h i , ; & +                               ",
"                  X X X X X X X X X o - > 0 a h x `  . . .S.S.S.S.S.S.S.S.S.S. . . .` x h a 0 ; & o X X X X X X X X X           ",
"                X X X X X X X X X X + ; 0 h l c ` ]  . . . . . . . . . . . . . . . .] ` c l h 0 ; + X X X X X X X X X X         ",
"                X X X o o o @ @ @ @ = 6 s l ^ ] ]  . . . . . . . . . . . . . . . . . . .` / l a 9 = # @ @ @ o o o X X X         ",
"                X X o @ # * 1 1 1 2 7 y Z L ( *.]  . .S.S.S.S.S. . . . .S.S.S.S.S.S.S. . .` / k w 8 2 1 1 1 * # o o X X         ",
"                X X o # 1 e t t t n n N Y Q ~ *.<. . .S.S.S.S.S.S. . .S.S.S.S.S.S.S.S.S.S. .] ^ A m n v t t e 1 # o X X         ",
"                X X o * 5 t M V V I I I w.w.j.;.*.]  . . . . . . . . . . . . . . . . . . . .] #.E R I V V M t 5 * o X X         ",
"                X X o * 5 t M V I 8.w.s.s.s.j.~ *.<. . . .] ] ] ] ] ] ] ] ] ] ] ] ] ] ] ] ] *.#.! w.8.I V M t 5 * o X X         ",
"                  X o * 2 e t M V I 8.u.u.s.j.z.>.<. .] _ ( ( ( ( ( ( ( ( ( ( ( ( ( ( ( ( ( ) ! Q w.I V M t e 2 * o X           ",
"                      # * 1 2 e M V I 8.u.s.j.z.>.<. .] ( L H H H H H H H H E E E H H H H H E Y R I V M t 2 1 * #               ",
"                        o @ % 2 t M V 8.8.w.j.~ *.<.] _ L Y P P P P P P P P P P P P P P P P P P P V M t 2 % @ o                 ",
"                        X X o = r m P I 8.w.j.~ *.] ] ( H P V V V V V V V V V V V V V V V V V N M M t e * @ X X                 ",
"                        X X o = 8 Z D R w.w.j.~ *.] _ ( D V B B B V V V B B B B B B B V V V M M v t 5 1 % o X                   ",
"                        X X o ; w g H E Q w.j.~ #._ / J D N V B B V V V V V V B B B V V V V M v e 2 1 % @                       ",
"                        X X + ; w k J W Q w.f.Q ) ^ ^ J D S V V V V V V V V V V V V V V V V M t 1 % @ o                         ",
"                        X X + ; i j ^ W Q w.w.Q L J J H D P V B M M M M N V V V V V V V N M t 5 * o X X                         ",
"                        X X + ; i j ^ L E R I Y D H H H Y U V M v t t v M V I I I I V M b t 5 * @ o X X                         ",
"                        X X + ; i j ^ L E U I P P D D Y R I V n e 1 1 e n V 8.w.w.8.C M r 1 * @ o X X X                         ",
"                        X X + ; i j ^ L D P V V V P P I w.8.I n 5 * * 5 n I w.g.g.w.I n e * o o X X X X                         ",
"                        X X + ; i j ^ J H S N N V V V I 8.w.I M e 1 1 e n I s.g.g.s.I M e * @ o o X X X                         ",
"                        X X + ; i l ^ ^ J D D S N V V I 8.w.8.V t e e t V 8.g.g.g.g.8.V v e 1 * @ o X X                         ",
"                        X X + ; i l / / ^ J H D S V V C 8.w.w.I V M M N I w.s.g.g.s.w.I V M t 2 * o X X                         ",
"                        X X + ; i j x / / ^ J H S N V C 8.w.w.w.8.I I 8.w.w.s.g.g.s.s.w.8.I V t 1 @ X X                         ",
"                        X X + ; 0 h l x x x ^ H D S V C 8.w.s.s.s.s.s.s.s.s.s.s.s.s.s.g.g.s.I n 2 @ X X                         ",
"                          X + - > 0 a h x x ^ J D S V C 8.8.s.g.g.g.g.g.g.s.s.s.s.s.s.g.g.g.I n 2 @ X X                         ",
"                              $ & ; , i h x ^ J D S V C 8.w.s.g.g.g.g.s.s.s.s.s.s.s.s.g.g.g.I n 2 @ X X                         ",
"                                o + & , a j ^ J D S V C 8.w.s.s.s.s.s.s.s.s.s.s.s.s.s.g.g.s.I n 2 @ X X                         ",
"                                X X + ; 0 h k G D N V C 8.w.s.s.s.s.s.s.s.s.s.s.s.s.s.g.g.s.I n 2 @ X X                         ",
"                                  X o - > 0 i f m N V I 8.w.s.s.s.s.s.s.s.s.s.s.s.s.s.g.g.s.I n 2 @ X X                         ",
"                                      + - ; 4 q y N V I 8.w.s.g.s.s.s.s.s.s.s.s.s.s.g.g.g.s.I n 2 @ X X                         ",
"                                        + + & 3 r M V I 8.w.s.s.s.s.s.s.s.s.s.s.s.s.g.g.g.s.I n 2 @ X X                         ",
"                                        X X @ 1 e n V I 8.w.w.s.s.s.s.s.s.s.s.s.s.s.g.g.g.s.I n 2 @ X X                         ",
"                                        X X o * e M V I I 8.8.w.s.g.g.g.g.g.g.g.g.g.g.g.c.g.I n 2 @ X X                         ",
"                                        X X o * e M V I I I I 8.w.g.g.g.g.g.g.g.g.g.g.c.c.g.I n 2 @ X X                         ",
"                                        X X o 1 e n V V V V V I 8.w.s.s.s.s.s.s.s.s.s.g.g.s.I n 2 @ X X                         ",
"                                        X X @ * e t n M n n M N V I I I I I I I I I I I I I V t 1 @ X X                         ",
"                                          X o * 2 e e e e e e t t n n n n n n n n n n n n n t e 1 @ X                           ",
"                                              # * 1 1 1 1 1 1 1 1 2 2 2 2 2 2 2 2 2 2 2 2 2 2 1 *                               ",
"                                                @ @ @ @ o @ o @ @ @ @ @ @ @ @ @ @ @ @ @ # # @ @                                 ",
"                                                X X X X X X X X X X X X X X X X X X X X X X X X                                 ",
"                                                X X X X X X X X X X X X X X X X X X X X X X X X                                 ",
"                                                  X X X X X X X X X X X X X X X X X X X X X X                                   ",
"                                                                                                                                ",
"                                                                                                                                ",
"                                                                                                                                ",
"                                                                                                                                ",
"                                                                                                                                ",
"                                                                                                                                ",
"                                                                                                                                ",
"                                                                                                                                ",
"                                                                                                                                ",
"                                                                                                                                ",
"                                                                                                                                ",
"                                                                                                                                ",
"                                                                                                                                ",
"                                                                                                                                ",
"                                                                                                                                "
};
