/* XPM */
static char *g_r5[] = {
/* columns rows colors chars-per-pixel */
"64 64 154 2 ",
"   c None",
".  c #020205",
"X  c #070807",
"o  c #060608",
"O  c #070808",
"+  c #0B0C0A",
"@  c #140E0D",
"#  c #0E120C",
"$  c #12140E",
"%  c #18100F",
"&  c #131A0F",
"*  c #1E1411",
"=  c #161D11",
"-  c #1A1D12",
";  c #201411",
":  c #261914",
">  c #2B1B16",
",  c #301C17",
"<  c #311F18",
"1  c #172010",
"2  c #1A2413",
"3  c #1E2915",
"4  c #212515",
"5  c #2B2117",
"6  c #222E17",
"7  c #2E2518",
"8  c #272F19",
"9  c #2E2D1A",
"0  c #312319",
"q  c #3D251C",
"w  c #3C2A1D",
"e  c #233117",
"r  c #253219",
"t  c #29351A",
"y  c #2B3B1C",
"u  c #353A1F",
"i  c #3E3320",
"p  c #44271E",
"a  c #43291F",
"s  c #492D21",
"d  c #443221",
"f  c #4E3023",
"g  c #413821",
"h  c #4B3C24",
"j  c #523124",
"k  c #5A3627",
"l  c #553A26",
"z  c #5D3728",
"x  c #5D3928",
"c  c #653C2B",
"v  c #693F2D",
"b  c #2E401E",
"n  c #30431F",
"m  c #324520",
"M  c #3B4422",
"N  c #354A22",
"B  c #3C4E24",
"V  c #375123",
"C  c #3B5325",
"Z  c #3F5B28",
"A  c #444124",
"S  c #4C4627",
"D  c #424D25",
"F  c #4A4A27",
"G  c #4D4C28",
"H  c #514127",
"J  c #544629",
"K  c #5C452A",
"L  c #534E2A",
"P  c #5B4C2C",
"I  c #435126",
"U  c #445728",
"Y  c #4B5429",
"T  c #425C2A",
"R  c #4A5A2B",
"E  c #53532C",
"W  c #5D512E",
"Q  c #545C2E",
"!  c #5C582F",
"~  c #5D5D31",
"^  c #63422C",
"/  c #6C422E",
"(  c #654E2F",
")  c #62522F",
"_  c #6B4A30",
"`  c #744531",
"'  c #744C32",
"]  c #7A4C34",
"[  c #7B4D34",
"{  c #784F34",
"}  c #7A4E34",
"|  c #794D34",
" . c #7D4C35",
".. c #7E4C35",
"X. c #7F4C35",
"o. c #7F4D35",
"O. c #7C4A34",
"+. c #665130",
"@. c #655731",
"#. c #655130",
"$. c #6E5032",
"%. c #6F5032",
"&. c #685632",
"*. c #6D5533",
"=. c #6C5733",
"-. c #6C5633",
";. c #615B31",
":. c #605F32",
">. c #6C5833",
",. c #6D5834",
"<. c #725233",
"1. c #775034",
"2. c #775034",
"3. c #785134",
"4. c #45612C",
"5. c #46602C",
"6. c #46612C",
"7. c #44652C",
"8. c #46652C",
"9. c #45622C",
"0. c #49622D",
"q. c #4C622D",
"w. c #4E622E",
"e. c #48662D",
"r. c #49652E",
"t. c #46682D",
"y. c #47692E",
"u. c #476A2E",
"i. c #49682E",
"p. c #49692E",
"a. c #4B682F",
"s. c #4A6A2F",
"d. c #4B692F",
"f. c #50642F",
"g. c #4D6C30",
"h. c #566030",
"j. c #526530",
"k. c #516630",
"l. c #526530",
"z. c #5E6032",
"x. c #5F6032",
"c. c #507032",
"v. c #804A35",
"b. c #804B35",
"n. c #814B35",
"m. c #804C35",
"M. c #804C36",
"N. c #814C36",
"B. c #804D36",
"V. c #814D36",
"C. c #814E36",
"Z. c #824E37",
"A. c #824F37",
"S. c #834F37",
/* pixels */
"                                                                                                                                ",
"                                                                                                                                ",
"                                                                                                                                ",
"                                                                                                                                ",
"                                                  o o o o o o o o o o o o o o o o o o                                           ",
"                                                o o o o o o o o o o o o o o o o o o o o                                         ",
"                                                @ @ @ @ @ @ @ @ @ @ @ @ $ $ @ @ @ @ @ @                                         ",
"                                              % ; : > > > > < < < < < < < < < > > > : ; $                                       ",
"                                          o O * > q a s s f j j j j j j j j f s s a q > * O o                                   ",
"                                        o o @ : q j x c v / / / / / / / / / / v c x j q : @ o o                                 ",
"                                        O @ * < s x / ` O.O.O.O.O.O.O.O.O.O.O.O.` / x s < * @ O                                 ",
"                                      @ ; > < a j v ` O.O.S.S.S.S.S.S.S.S.S.S.O.O.` v j a < : * @                               ",
"                  o o o o o o o o o O ; , q s j c ` O.O.S.S.S.S.S.S.S.S.S.S.S.O.O.O.` c j s q > * O o o o o o o o o o           ",
"                o o o o o o o o o o @ : q j x v ` ] O.O.O.O.O.O.O.O.O.O.O.O.O.O.O.O.] ` v x j q : @ o o o o o o o o o o         ",
"                o o o O O O # # # # - 7 d x ^ ] ] O.O.O.O.O.O.O.O.O.O.O.O.O.O.O.O.O.O.O.` / x f 0 - $ # # # O O O o o o         ",
"                o o O # $ = 2 2 2 3 8 u A P ( $.] O.O.S.S.S.S.S.S.S.S.S.S.S.S.S.S.S.S.O.O.` / l i 9 3 2 2 2 = $ # O o o         ",
"                o o O $ 2 e y y y m m B Y Q ~ $.<.O.O.S.S.S.S.S.S.S.S.S.S.S.S.S.S.S.S.S.S.O.] ^ S M m b y y e 2 $ O o o         ",
"                o o O = 6 y m B C U U U e.e.j.;.$.O.O.O.O.O.O.O.O.O.O.O.O.O.O.O.O.O.O.O.O.O.] #.E R U C C m y 6 = O o o         ",
"                o o # = 6 y m C U 8.e.i.i.i.j.~ $.3.O.O.O.] ] ] ] ] ] ] ] ] ] ] ] ] ] ] ] ] $.#.~ e.8.U C m y 6 = # o o         ",
"                  o # = 3 e y m C U 8.y.i.i.j.x.$.3.O.] _ _ ( ( ( ( ( ( ( ( ( ( ( ( ( ( ( ( ) ! Q e.8.C m y e 2 = O o           ",
"                      $ = 2 6 y m C 8.8.y.i.j.x.>.<.O.] ( P L E L L L L L E E E L L L L L L E Y R U C m y 3 2 = $               ",
"                        O # = 3 y m Z 8.8.e.j.~ $.<.] _ P Y I I I I I I I I I I I I I I I I I I I C m y 3 & # O                 ",
"                        o o O - t M I U 8.e.j.~ $.] ] ( L I C C C C C C C C C C C C C C C C C B B m y e - # o o                 ",
"                        o o O - 9 A F R e.e.j.~ $.] _ ( L D V V V C C C C V V V V V V C C C m m b y e 2 & O o                   ",
"                        o o O : w h L E Q e.f.~ #._ / K F D C V C C C C C C V V V V C C C C m b e 3 = & #                       ",
"                        o o @ : a l K W Q e.f.Q W ^ ^ K G D C C C C C C C C C C C C C C C C m y 3 & # O                         ",
"                        o o @ > p k ^ P Q e.e.Q P K K L F I C m m m m m B C C C C C C C B m y 6 = # o o                         ",
"                        o o @ > p k ^ P E R U Y F L L F Y U C m b y y b m C U U U U C m n y 6 2 $ O o o                         ",
"                        o o @ > p k ^ P E U U I I G F Y R U C m e 3 3 e m Z 8.e.e.8.C m t 2 = # O o o o                         ",
"                        o o @ > a k ^ P F I C C C C I U e.8.U m 8 = = 6 m U e.g.g.e.U m e = # O o o o o                         ",
"                        o o @ > a k ^ K L D D C C C C U 8.e.U m e 2 2 e m U i.g.g.i.U m e - # O O o o o                         ",
"                        o o @ > a z ^ ^ K F G D B C C U 8.e.8.C y e e y C 8.g.g.g.i.8.C b e 2 & # O o o                         ",
"                        o o @ > a x / / ^ K J G D C C U 8.e.e.U C m m B U e.g.g.g.g.e.U C m y 6 = O o o                         ",
"                        o o @ > a k c / / ^ K J D B C Z 8.e.e.e.8.U U U e.e.i.g.g.i.i.e.8.U C y 2 # o o                         ",
"                        o o @ : q j z c c c ^ J G D C Z 8.e.i.i.i.i.i.i.i.i.i.i.i.i.i.g.g.i.U m 3 # o o                         ",
"                          o @ ; , q s j z c ^ K G D C Z 8.e.i.g.g.g.g.g.g.i.i.i.i.i.i.g.g.g.U m 3 $ o o                         ",
"                              % ; : < p j c ^ K F D C Z 8.e.i.g.g.g.g.g.i.i.i.i.i.i.g.g.g.g.U m 3 # o o                         ",
"                                O @ * < s z ^ K G D C Z 8.e.i.i.g.g.i.i.i.i.i.i.i.i.g.g.g.i.U m 3 # o o                         ",
"                                o o @ > q j l H D B C Z 8.e.i.i.g.i.i.i.i.i.i.i.i.i.g.g.g.i.U m 3 # o o                         ",
"                                  o O * , q a g M B C U 8.e.i.g.g.i.i.i.g.g.g.g.g.g.g.g.c.g.U m 3 # o o                         ",
"                                      @ ; : 5 9 u B C U 8.i.i.g.g.i.i.g.g.g.g.g.g.g.g.c.c.g.U m 3 # o o                         ",
"                                        @ @ * 4 t m C U 8.e.i.i.g.i.i.i.i.i.i.i.i.i.i.g.g.i.U m 3 # o o                         ",
"                                        o o # = e b m C U 8.e.i.g.i.i.e.8.U U U U U U U U U C y 2 # o o                         ",
"                                          o O & 2 e y m C U 8.i.g.g.e.U C m m m m m m m m m y e 2 # o                           ",
"                                              # & 2 3 t m C U e.i.i.8.C m e 3 2 2 3 3 3 3 3 3 2 =                               ",
"                                                O # & 3 y m C 8.e.e.U m e = # O # # # # # # # #                                 ",
"                                                o o # = 6 y m C U U C b 3 # o o o o o o o o o o                                 ",
"                                                o o O $ 2 6 y n B C m y 2 O o o o o o o o o o o                                 ",
"                                                  o o O $ = 2 e y n b e = O o o o o o o o o o                                   ",
"                                                    o X O O $ 2 6 e e 3 & O o o o o                                             ",
"                                                      o o o O $ 2 3 3 2 # O o o o                                               ",
"                                                        o o o # & = & & O X o o o                                               ",
"                                                          o o O O # # O O o o o o                                               ",
"                                                            o o X X X o o o o o o                                               ",
"                                                              o o o o o o o o o o                                               ",
"                                                                o o o o o o o o o                                               ",
"                                                                  o o o o o o o                                                 ",
"                                                                                                                                ",
"                                                                                                                                ",
"                                                                                                                                ",
"                                                                                                                                ",
"                                                                                                                                ",
"                                                                                                                                ",
"                                                                                                                                "
};
