/* XPM */
static char *g_ri1[] = {
/* columns rows colors chars-per-pixel */
"64 64 97 2 ",
"   c None",
".  c #070807",
"X  c #060608",
"o  c #070809",
"O  c #180E0E",
"+  c #0E110C",
"@  c #18100F",
"#  c #13190F",
"$  c #1E1411",
"%  c #161D11",
"&  c #1A1D12",
"*  c #201411",
"=  c #261914",
"-  c #2B1B16",
";  c #301C17",
":  c #311F18",
">  c #1B2413",
",  c #1E2916",
"<  c #212515",
"1  c #2C2217",
"2  c #222E17",
"3  c #2E2518",
"4  c #252F19",
"5  c #2D2D1A",
"6  c #312319",
"7  c #3D251C",
"8  c #302E1A",
"9  c #3C2A1D",
"0  c #243219",
"q  c #29361A",
"w  c #2B3C1C",
"e  c #353A1E",
"r  c #3E3320",
"t  c #44271E",
"y  c #44291F",
"u  c #492D21",
"i  c #443221",
"p  c #4E3023",
"a  c #4B3C24",
"s  c #523224",
"d  c #5A3627",
"f  c #553A26",
"g  c #5D3728",
"h  c #5D3928",
"j  c #653C2B",
"k  c #693F2D",
"l  c #2E401E",
"z  c #30431F",
"x  c #324520",
"c  c #3B4422",
"v  c #3B4E24",
"b  c #375123",
"n  c #3B5325",
"m  c #3F5728",
"M  c #454324",
"N  c #4C4627",
"B  c #414E25",
"V  c #4A4A27",
"C  c #4D4C28",
"Z  c #514127",
"A  c #544629",
"S  c #5C452A",
"D  c #534E2A",
"F  c #5B4C2C",
"G  c #435126",
"H  c #405927",
"J  c #445728",
"K  c #4B5429",
"L  c #4A5A2B",
"P  c #53532C",
"I  c #5D512E",
"U  c #545C2E",
"Y  c #5C582F",
"T  c #5D5D31",
"R  c #63422C",
"E  c #6C422E",
"W  c #654E2F",
"Q  c #62522F",
"!  c #6B4A30",
"~  c #744531",
"^  c #7C4A34",
"/  c #7A4C34",
"(  c #655130",
")  c #6E5032",
"_  c #605F32",
"`  c #6C5833",
"'  c #725233",
"]  c #785134",
"[  c #46652C",
"{  c #48662D",
"}  c #47692E",
"|  c #49682E",
" . c #50642F",
".. c #4D6C30",
"X. c #526530",
"o. c #5F6032",
"O. c #834F37",
/* pixels */
"                                                                                                                                ",
"                                                                                                                                ",
"                                                                                                                                ",
"                                                                                                                                ",
"                                          X X X X X X X X X X X X X X X X X X                                                   ",
"                                        X X X X X X X X X X X X X X X X X X X X                                                 ",
"                                        O O O O O O O # O O O O O O O O O O O O                                                 ",
"                                      # * = - - - : : : : : : : : : - - - - = * @                                               ",
"                                  X o $ - 7 y u u p s s s s s s s s p u u y 7 - $ o X                                           ",
"                                X X O = 7 s h j k E E E E E E E E E E k j h p 7 = O X X                                         ",
"                                o O $ : u h E ~ ^ ^ ^ ^ ^ ^ ^ ^ ^ ^ ^ ^ ~ E h u : $ O o                                         ",
"                              O $ = : y s k ~ ^ ^ O.O.O.O.O.O.O.O.O.O.^ ^ ~ k s y : - * O                                       ",
"          X X X X X X X X X o $ - 7 u s j ~ ^ ^ ^ O.O.O.O.O.O.O.O.O.O.O.^ ^ ~ j s u 7 ; * o X X X X X X X X X                   ",
"        X X X X X X X X X X O = 7 s h k ~ ^ ^ ^ ^ ^ ^ ^ ^ ^ ^ ^ ^ ^ ^ ^ ^ ^ ^ ~ k h s 7 = O X X X X X X X X X X                 ",
"        X X X o o o + + + # & 6 p h E ~ ^ ^ ^ ^ ^ ^ ^ ^ ^ ^ ^ ^ ^ ^ ^ ^ ^ ^ ^ ^ ^ R h i 3 & + + + + o o o X X X                 ",
"        X X o + # % > > > , 5 r f E ~ ^ ^ O.O.O.O.O.O.O.O.O.O.O.O.O.O.O.O.^ ^ ^ ) W F M e 4 , > > > % # + o X X                 ",
"        X X o # > 0 w w l x c N R ^ ^ O.O.O.O.O.O.O.O.O.O.O.O.O.O.O.O.O.O.^ ^ ' ) T U K v x x w w w 0 > # o X X                 ",
"        X X o % 2 w x n n H L P ( ^ ^ ^ ^ ^ ^ ^ ^ ^ ^ ^ ^ ^ ^ ^ ^ ^ ^ ^ ^ ^ ^ ) _ X.{ { H H H n v x w 2 % o X X                 ",
"        X X + % 2 w x n H [ { T ( ) ^ ^ ^ ^ ^ ^ ^ ^ ^ ^ ^ ^ ^ ^ ^ ^ ^ ^ ^ ^ ] ) T X.| | | { [ H n x w 2 % + X X                 ",
"          X o % > 0 w x n H {  .Y Q W W W W W W W W W W W W W W W W ! ! ^ ^ ] ) o.X.| | } [ H n x w 0 , % + X                   ",
"              # % > , w x n H L K P D D D D D D P D D D D D D D P D F W ^ ^ ' ` o.X.| } [ H n x w , > % #                       ",
"                o + # , w x n G G G G G G G G G G G G G G G G G G G K F ! ^ ' ) _ X.{ [ [ n x w , # + o                         ",
"                X X + % 0 w x v v n n n n n n n n n n n n n n n n n G D W ^ ^ ) T X.{ [ H G c q & o X X                         ",
"                  X o # > 0 w l x x n n n b b b b b b n n n n b b b B D W ! ^ ) T X.{ { L V M 8 & o X X                         ",
"                      + # % , 0 l x n n n n b b b b n n n n n n b n B V S E ! ( T  .{ U P D a 9 = o X X                         ",
"                        o + # , w x n n n n n n n n n n n n n n n n B C S R R I U  .{ U I S f y = O X X                         ",
"                        X X + % 2 w x v n n n n n n n v x x x x x n G V D S S F U { { U F R d t - O X X                         ",
"                        X X o + > 2 w z x n H H H H n x l w w l x n J K V D D V K H L P F R d t - O X X                         ",
"                        X X X o + % > w x n [ { { [ m x 0 > > 0 x n H L K V C G G J J P F R d t - O X X                         ",
"                        X X X X o + % 0 x H { ....{ H x 2 % % 2 x H [ { H G G n n n G V F R d y - O X X                         ",
"                        X X X o o + & 0 x H | ....| H x 0 > > 0 x H { [ H n n n n B B D S R d y - O X X                         ",
"                        X X o + # > 0 l n [ ........[ n w 0 0 w n [ { [ H n n v B C V S R R g y - O X X                         ",
"                        X X o % 2 w x n H { ........{ H v x x n H { { [ H n n B C A S R E E h y - O X X                         ",
"                        X X + > w n H { { | | ....| { { H H H [ { { { [ m n v B A S R E E j d y - O X X                         ",
"                        X X + , x H | ....| | | | | | | | | | ..| | { [ m n B C A R j j j d s 7 = O X X                         ",
"                        X X # , x H ......| | | | | | ............| { [ m n B C S R j g s u 7 ; * O X                           ",
"                        X X + , x H ........| | | | | | ..........| { [ m n B V S R j s t : = $ #                               ",
"                        X X + , x H | ......| | | | | | | | ....| | { [ m n B C S R g u : $ O o                                 ",
"                        X X + , x H | ......| | | | | | | | | ..| | { [ m n v C Z f s 7 - O X X                                 ",
"                        X X + , x H | ............................| { [ H n v c i y 7 : * o X                                   ",
"                        X X + , x H ................................| [ H n v e 5 1 - * O                                       ",
"                        X X + , x H | ....| | | | | | | | | | ..| | { [ H n x q < $ O O                                         ",
"                        X X + , x H { { [ H H H H H H H H H H [ [ { { [ H n x 0 > + X X                                         ",
"                        X X + > w n H H n x x x x x x x x x x v m H [ H H n x 0 % o X X                                         ",
"                        X X + > w n n x w 4 , > , , , , , , 0 w x n H H H n x 0 > o X X                                         ",
"                        X X + > w x x w 2 % # + + + + + + # % 2 w x n n n n x 0 > + X X                                         ",
"                        X X o > 0 w l q > # + o o o X X X X + % 0 w x v n n x 0 > + X X                                         ",
"                        X X o # > 0 0 0 , > % # o X X X X X o # > 2 w z x v x q > + X X                                         ",
"                          X . + # % > , 0 0 2 > # o X X X X X o # % , 0 z x x w > + X X X                                       ",
"                            X . o + # > 0 w w 0 % o X X X X X X o + # , w x x q > + X X X                                       ",
"                              X X X + > 0 w w 0 % o X X X     X X X + > 0 w w 0 % o X X X                                       ",
"                                X X o # , 0 0 > # o X X X       X X o # > 2 2 > # o X X X                                       ",
"                                  X . + # % % # + o X X X         X X + # % % # + o X X X                                       ",
"                                    X o o o o o o o X X X           X o o o o o o X X X X                                       ",
"                                      X X X X X X X X X X             X X X X X X X X X X                                       ",
"                                        X X X X X X X X X               X X X X X X X X X                                       ",
"                                          X X X X X X X                   X X X X X X X                                         ",
"                                                                                                                                ",
"                                                                                                                                ",
"                                                                                                                                ",
"                                                                                                                                ",
"                                                                                                                                ",
"                                                                                                                                ",
"                                                                                                                                "
};
