/* XPM */
static char *g_ri4[] = {
/* columns rows colors chars-per-pixel */
"64 64 100 2 ",
"   c None",
".  c #030306",
"X  c #070807",
"o  c #060608",
"O  c #070809",
"+  c #0B0C0A",
"@  c #180E0E",
"#  c #0E110C",
"$  c #18100F",
"%  c #13190F",
"&  c #1E1411",
"*  c #161D11",
"=  c #191C12",
"-  c #211412",
";  c #2A1715",
":  c #261914",
">  c #2B1B16",
",  c #311F18",
"<  c #172112",
"1  c #1A2313",
"2  c #1E2916",
"3  c #212515",
"4  c #2C2217",
"5  c #2D2418",
"6  c #242F18",
"7  c #2A2D1A",
"8  c #302318",
"9  c #3D251C",
"0  c #253219",
"q  c #29371A",
"w  c #2C3C1D",
"e  c #353A1E",
"r  c #3D3420",
"t  c #44271E",
"y  c #442A1F",
"u  c #492D21",
"i  c #433120",
"p  c #4E3023",
"a  c #423821",
"s  c #523124",
"d  c #5A3627",
"f  c #553A27",
"g  c #5D3728",
"h  c #5D3928",
"j  c #653C2B",
"k  c #693F2D",
"l  c #2E401E",
"z  c #30431F",
"x  c #3D4322",
"c  c #354A22",
"v  c #3C4E24",
"b  c #365123",
"n  c #3A5224",
"m  c #3E5827",
"M  c #3F5B28",
"N  c #474525",
"B  c #4F4026",
"V  c #424E25",
"C  c #4A4A27",
"Z  c #4C4728",
"A  c #514127",
"S  c #544628",
"D  c #5C452A",
"F  c #534E2A",
"G  c #5B4C2C",
"H  c #435126",
"J  c #405927",
"K  c #455729",
"L  c #4B552A",
"P  c #425C29",
"I  c #4A5C2B",
"U  c #53532B",
"Y  c #5D512E",
"T  c #545B2E",
"R  c #5A582F",
"E  c #5D5D31",
"W  c #64422C",
"Q  c #6C422E",
"!  c #644D2F",
"~  c #62522F",
"^  c #6B4B30",
"/  c #744531",
"(  c #7C4A34",
")  c #7A4C34",
"_  c #655130",
"`  c #6E5032",
"'  c #615B31",
"]  c #605F32",
"[  c #725233",
"{  c #785134",
"}  c #47612C",
"|  c #48652D",
" . c #486A2E",
".. c #4A6A2F",
"X. c #50642F",
"o. c #4E6D31",
"O. c #526530",
"+. c #5F6032",
"@. c #507032",
"#. c #834F37",
/* pixels */
"                                                                                                                                ",
"                                                                                                                                ",
"                                                                                                                                ",
"                                                                                                                                ",
"                                          . . . . . . . . . . . . . . . . . .                                                   ",
"                                        o o o o o o o o o o o o o o o o o o o o                                                 ",
"                                        @ @ @ @ @ @ $ $ $ $ @ $ $ @ @ @ @ @ @ @                                                 ",
"                                      $ - : > > > , , , , , , , , , > > > > : - $                                               ",
"                                  . + & > 9 y u u p s s s s s s s s p u u y 9 > & + .                                           ",
"                                . o @ : 9 s h j k Q Q Q Q Q Q Q Q Q Q k j h s 9 : @ o .                                         ",
"                                + @ & , u h Q / ( ( ( ( ( ( ( ( ( ( ( ( / Q h u , & @ +                                         ",
"                              @ & : , y s k / ( ( #.#.#.#.#.#.#.#.#.#.( ( / k s y , > & @                                       ",
"                          . + & > 9 u s j / ( ( ( #.#.#.#.#.#.#.#.#.#.#.( ( / j s u 9 > & + .                                   ",
"                        . o @ : 9 s h k / ( ( ( ( ( ( ( ( ( ( ( ( ( ( ( ( ( ( / k h s 9 : @ o .                                 ",
"                        # $ = 8 u h Q / ( ( ( ( ( ( ( ( ( ( ( ( ( ( ( ( ( ( ( ( ( W h i 5 = $ #                                 ",
"                      % < 1 7 r f Q / ( ( #.#.#.#.#.#.#.#.#.#.#.#.#.#.#.#.( ( ( ` ! G N e 7 2 < %                               ",
"                  . + < 0 w x Z ! ( ( ( #.#.#.#.#.#.#.#.#.#.#.#.#.#.#.#.#.( ( [ ` E T L v c w 0 < # .                           ",
"                . o # 2 w n I Y _ ( ( ( ( ( ( ( ( ( ( ( ( ( ( ( ( ( ( ( ( ( ( ` ' O.| | } P n w 2 # O .                         ",
"                + # * 0 c P | E ' ` ( ( ( ( ( ( ( ( ( ( ( ( ( ( ( ( ( ( ( ( { ` E O.......| M c 7 * # +                         ",
"              $ * 1 2 w c P | X.R ~ ! ! ! ! ! ! ! ! ! ! ! ! ! ! ! ! ^ ^ ( ( { ` E O.......} M c w 2 1 * $                       ",
"          o # * 2 0 w c n P P I L U U F F F F F F F F F F F F F U F G ! ( ( [ ` +.O.....} P m c z w 0 1 * # o                   ",
"        . o # * 6 w c c n n n n H H H H H H H H H H H H H H H H H H L G ^ ( [ ` ' O.| } P n n n c c w 3 * # o .                 ",
"        . o + * 3 w c c c c c c v n n n n n n n n n n n n n n n n n H F ! ( ( ` E O.| } P H v v v c w 3 * + o .                 ",
"        . o + $ 1 0 0 q 0 0 w w c c b n n b b b b b b b n n b b b n H F ! ^ ( ` E O.| | L C N x c w 0 1 $ + o .                 ",
"        . o + # $ * 1 1 1 1 1 0 w c n n n n n n n n n n n n n b b n V C D Q ^ _ E X.| T U F B a e 3 = $ + + o .                 ",
"        o o o + + + # + + # % 2 w c n n n n n n n n n n n n n n n n V C D W W Y R X.| T Y D f i 4 & + O O o o o                 ",
"        o o o o o o o . . o # 1 0 c n n n n n n n n n n n n n n n n v C S D D G T | | T Y W d y > @ o . . o o o                 ",
"          o o . . . . . . . + 1 0 c n n n n n n n n n n n n n n n n v V C S F L L P I U G W d t > @ . . . o o                   ",
"                      . . . + 1 0 c n n n n n n n n n n n n n n n n v V V C C H H P K U G W d t ; @ o . .                       ",
"                        . o # 1 0 c n n n n n n n n n n n n n n n n n n v v H n n n H C G W d y > @ o .                         ",
"                        . o + * 3 w c v n n n n n n n v c c c c v n n n n n n n n V V F D W d y > @ o .                         ",
"                        . o + $ 1 3 w z c n P P P P n c l w w l c n m m n n n v V C C D W W g y > @ o .                         ",
"                        o o + + # * 1 q c n } | | } n c 0 2 2 0 c n P P m n n V C S D W Q Q h y > @ o .                         ",
"                        o o o O + + * 0 c P | o.o.| P c 3 * * 3 c P } } P n v V S D W Q Q j d y > @ o .                         ",
"                        o o O + + # = 0 c P ..o.o...P c 0 1 1 0 c P | } P n V C S W j j j g s 9 : @ o .                         ",
"                        . o + # * 1 0 l n } ..o.o...} n w 0 0 w n } | } P n V C D W j g s u 9 , - @ o                           ",
"                        . o + * 2 w c n P | ..o.o...| P n c c n P | | } P n V C D W j s t , : & $                               ",
"                        . o # 1 w n P } | | ..o.o...| } } P P } | | | } M n V C D W d u , & @ +                                 ",
"                        . o # 2 c P ..o.o...........................| } P n v V A f s 9 > @ o .                                 ",
"                        . o $ 2 c P o.@.o.o.o.o.o.o.o.o.o.o.o.o.o...| } P n v x a y 9 , - + .                                   ",
"                        . o $ 2 c P o.@.o.o.o.o.o.o.o.o.o.o.o.o.o.o.| } P n v e 7 4 > - @                                       ",
"                        . o $ 2 c P ..o.o...........................| } P n c q 3 & @ @                                         ",
"                        . o # 2 l P | | } P P P P P P P P P P P } | } } P n c 0 1 # o .                                         ",
"                        . o # 1 w n P P n c c c c c c c c c c v M P } P P n c 0 * + . .                                         ",
"                        . o # 1 w v n c w 7 2 2 2 2 2 2 2 2 0 w c n P P J n c 0 * + . .                                         ",
"                        . o # 1 w c c w 3 * $ # # # # # # $ * 3 w c n n n n c 0 1 # o .                                         ",
"                        . o # 1 0 w w 0 1 % # + + O o . . o # * 6 w c v n v c 0 1 # o .                                         ",
"                        . . + % 1 3 0 3 2 1 * $ + o . . . . + $ 1 3 w z c v c q 1 # o .                                         ",
"                          . + # % * 1 2 0 0 3 1 $ + . . . . . + $ * 2 0 z c c w 1 # o . .                                       ",
"                            . X + # % 1 0 w w 0 * + . . . . . . + # % 2 w c c q 1 # o . .                                       ",
"                              . . . # 1 0 w w 0 * + . . .     . . . # 1 0 w w 0 * + o . .                                       ",
"                                . . + % 2 0 0 1 % + . . .       . . + % 1 3 3 1 % + o . .                                       ",
"                                  . X # % 1 * % # + o . .         . . # % * * % # + o . .                                       ",
"                                    . + + + + + + O o . .           . + + + + + + o o . .                                       ",
"                                      . . . o o o o . . .             . . . o o o o . . .                                       ",
"                                        . . . . . . . . .               . . . . . . . . .                                       ",
"                                          . . . . . . .                   . . . . . . .                                         ",
"                                                                                                                                ",
"                                                                                                                                ",
"                                                                                                                                ",
"                                                                                                                                ",
"                                                                                                                                ",
"                                                                                                                                ",
"                                                                                                                                "
};
