/* XPM */
static char *g_ri3[] = {
/* columns rows colors chars-per-pixel */
"64 64 101 2 ",
"   c None",
".  c #030306",
"X  c #070807",
"o  c #060608",
"O  c #070809",
"+  c #0B0C0A",
"@  c #140E0D",
"#  c #0D110C",
"$  c #18100E",
"%  c #13190F",
"&  c #1E1411",
"*  c #161D11",
"=  c #1A1D12",
"-  c #211512",
";  c #261914",
":  c #2B1B16",
">  c #301C17",
",  c #311F18",
"<  c #172011",
"1  c #1A2413",
"2  c #1E2916",
"3  c #212615",
"4  c #2D2117",
"5  c #222E17",
"6  c #2E2518",
"7  c #252F19",
"8  c #2D2D1A",
"9  c #312319",
"0  c #3D251C",
"q  c #302E1A",
"w  c #3C2A1D",
"e  c #233017",
"r  c #253219",
"t  c #29361A",
"y  c #2B3C1C",
"u  c #353A1E",
"i  c #3E3320",
"p  c #44271E",
"a  c #44291F",
"s  c #442E20",
"d  c #4A2D21",
"f  c #433421",
"g  c #4E3023",
"h  c #4B3C24",
"j  c #523224",
"k  c #5A3627",
"l  c #553A27",
"z  c #5D3728",
"x  c #653D2B",
"c  c #693F2D",
"v  c #2E401E",
"b  c #30431F",
"n  c #324521",
"m  c #3B4422",
"M  c #3B4E24",
"N  c #375123",
"B  c #3B5225",
"V  c #3F5728",
"C  c #444324",
"Z  c #4D4327",
"A  c #434D25",
"S  c #4B4B27",
"D  c #4D4D28",
"F  c #544628",
"G  c #5D452B",
"H  c #534D2A",
"J  c #5B4C2C",
"K  c #435126",
"L  c #405927",
"P  c #445728",
"I  c #4B5429",
"U  c #4A5A2B",
"Y  c #53532C",
"T  c #5D512E",
"R  c #545C2E",
"E  c #5C582F",
"W  c #5D5D31",
"Q  c #64432C",
"!  c #6C422E",
"~  c #654E2F",
"^  c #62522F",
"/  c #6B4A30",
"(  c #744531",
")  c #7D4C35",
"_  c #655130",
"`  c #685632",
"'  c #615B31",
"]  c #605F32",
"[  c #6D5834",
"{  c #725233",
"}  c #785134",
"|  c #45612C",
" . c #48662D",
".. c #47692E",
"X. c #49682E",
"o. c #50642F",
"O. c #4E6D31",
"+. c #526530",
"@. c #5E6032",
"#. c #507032",
"$. c #834F37",
/* pixels */
"                                                                                                                                ",
"                                                                                                                                ",
"                                                                                                                                ",
"                                                                                                                                ",
"                                                                                                                                ",
"                                                                                                                                ",
"                                                                                                                                ",
"                                                                                                                                ",
"                                          . . . . . . . . . . . . . . . . . .                                                   ",
"                                        o o o o o o o o o o o o o o o o o o o o                                                 ",
"                                        @ @ @ @ @ @ @ @ $ @ $ $ $ $ @ @ @ @ @ @                                                 ",
"                                      $ - ; : : : : , , , , , , , , : : : : ; - $                                               ",
"                                  . + & : 0 a d d g j j j j j j j j g d d a 0 : & + .                                           ",
"                                . O @ ; 0 j z x c ! ! ! ! ! ! ! ! ! ! c x z j 0 ; @ o .                                         ",
"                                + @ & , d z ! ( ) ) ) ) ) ) ) ) ) ) ) ) ( ! z d , & @ +                                         ",
"                              @ & ; , a j c ( ) ) $.$.$.$.$.$.$.$.$.$.) ) ( c j a , : & @                                       ",
"          o o . . . . . . . + & : 0 d j x ( ) ) ) $.$.$.$.$.$.$.$.$.$.$.) ) ( x k d 0 > - + . . . . . . o o o                   ",
"        o o o o o o o . . o @ ; 0 j z ! ( ( ) ) ) ) ) ) ) ) ) ) ) ) ) ) ) ) ( ( c z j 0 ; @ o . . o o o o o o o                 ",
"        o o o + + + # # # $ = 9 d z ! ( ) ) ) ) ) ) ) ) ) ) ) ) ) ) ) ) ) ) ) ( ( Q z f 6 = $ # # # + + + o o o                 ",
"        . o + # $ * 1 1 1 2 8 i l ! ( ) ) ) $.$.$.$.$.$.$.$.$.$.$.$.) $.$.) ) ( ` ~ J C u 7 2 1 1 1 * $ # + o .                 ",
"        . o + $ 1 r y y v n m Z G ( ) $.$.$.$.$.$.$.$.$.$.$.$.$.$.$.$.$.$.) ) { ` W R I M n n y y y r 1 $ + o .                 ",
"        . o + * 5 y M B B L U Y _ ( ) ) ) ) ) ) ) ) ) ) ) ) ) ) ) ) ) ) ) ) } ` ] +. . .| L L B B M y 5 * + o .                 ",
"        . o # * 5 y M B L |  .W _ ` ( ( ( ( ( ( ( ( ( ( ( ( ( ( ( ( ( ) ) ) { ` W +.X.X.X. .| L B M y 5 * # o .                 ",
"          o # * 2 r y M B L  .R E ^ ~ ~ ~ ~ ~ ~ ~ ~ ~ ~ ~ ~ ~ ~ ~ ~ / / ( ) { [ @.+.X.X...| L B M y r 2 * # o                   ",
"              $ % 1 2 y M B L U I Y H H H H H H H H H H H H H H Y Y J ~ ( ) { [ ] +.X...| L B n y 2 1 * $                       ",
"                + # % 2 y M B K K K K K K K K K K K K K K K K K K K I J / ( { ` ] +. .| | B M y 2 % # +                         ",
"                . o # * r v M M M B B B B B B B B B B B B B B B B B K H ~ ( ( ` ] +. .| L K m t = # o .                         ",
"                  . + % 1 r y v M M B B N N N N N N N N N B N N N B K H ~ / ( ` W +. . .U D C q = + . .                         ",
"                      # % = 2 r v M B B B B B N N B B B B B B N N B M D G ! / _ W +. .R Y H h w ; @ . .                         ",
"                        + # % 1 y M B B B B B B B B B B B B B B B B A S G Q Q ~ R o. .R T G l w ; @ o .                         ",
"                        . o + * 5 y M M B B B B B B B M M M M M M B K S F G G J R  . .R T Q k p : @ o .                         ",
"                        . . + # = 5 y b M B L L L L B M v y y v M B P I H F H D I L U Y J Q k p : @ o .                         ",
"                        . . o + # * 1 t M B |  . .| B n r 1 1 r n V L U I S S A K K P Y J Q k p : @ o .                         ",
"                        o o o o + # * r n L  .O.O. .L n 5 * * 5 n L |  .L K A B B B K D J Q k a : @ o .                         ",
"                        o o O + + # * r M L X.O.O.X.L n r 1 1 r M L  .| L B B B M A A H G Q k a : @ o .                         ",
"                        . o + # * 1 r v B | O.O.O.O.| B y r r y B |  .| L B B M A S H J Q Q z a : @ o .                         ",
"                        . o + * 2 y M B L  .O.O.O.X.| L B M M B L  . .| L B B A S H G Q ! ! z a : @ o .                         ",
"                        . o # 1 y M L |  .X.X.O.O.X. .| | L L |  . . .| V B M S F G Q Q ! x k a : @ o .                         ",
"                        . o # 2 n L X.O.O.O.X.X.O.X.X.X.X.X.X.O.O.X. .| L B M C Z l k z z k j 0 ; @ o .                         ",
"                        . o $ 2 n L O.#.O.O.O.O.O.O.O.O.O.O.O.O.O.O. .| L B M m f s a a a a 0 , - @ o                           ",
"                        . o $ 2 n L O.#.O.O.O.O.O.O.O.O.O.O.O.O.O.X. .| L B M u q 4 : : : : ; - &                               ",
"                        . o $ 2 n L X.O.O.X.X.X.X.X.X.X.X.X.X.O.X.X. .| L B M y 3 & @ @ @ @ @ @                                 ",
"                        . o # 2 n L  . .| L L L L L L L L L L | |  .| | L B M r 1 # o . . o o o                                 ",
"                        . o # 1 v B L L B n n n n n n n n n M M V L | L L B n r * + . . . . .                                   ",
"                        . o # 1 y B B M y 7 2 1 2 2 2 2 2 2 r y M B L L L B n r < + . . .                                       ",
"                        . o # 1 y M M y 5 * $ # # # # # # $ * 5 y M B B B B n r 1 # o .                                         ",
"                        . o + 1 r y y r 1 % # + + O o . . o # * e y M M B M n r 1 # o .                                         ",
"                        . . + % 1 5 r 5 2 1 * $ + o . . . . + $ 1 5 y b M M M t 1 # . .                                         ",
"                          . + # % * 1 2 r r 5 1 $ + . . . . . + $ * 2 r b M M y 1 + . .                                         ",
"                            . X + # % 1 r y y r * + . . . . . . + + % 2 y M n r 1 + . . .                                       ",
"                              . . . # 1 r y y r * + . . .     . . . # 1 r y y e * + . . .                                       ",
"                                . . + % 2 r r 1 % + . . .       . . + % 1 5 5 1 $ + . . .                                       ",
"                                  . X # % 1 * % # + o . .         . . # % * * $ # + . . .                                       ",
"                                    . + + + + + + O o . .           . + + + + + + O . . .                                       ",
"                                      . . . o o o o . . .             . . . o o o . . . .                                       ",
"                                        . . . . . . . . .               . . . . . . . . .                                       ",
"                                          . . . . . . .                   . . . . . . .                                         ",
"                                                                                                                                ",
"                                                                                                                                ",
"                                                                                                                                ",
"                                                                                                                                ",
"                                                                                                                                ",
"                                                                                                                                ",
"                                                                                                                                "
};
