/* XPM */
static char *g_rr4[] = {
/* columns rows colors chars-per-pixel */
"64 64 93 2 ",
"   c None",
".  c #060608",
"X  c #0B0C0A",
"o  c #180E0E",
"O  c #0E120C",
"+  c #12140E",
"@  c #18100F",
"#  c #13190F",
"$  c #1E1411",
"%  c #161D11",
"&  c #1A1D12",
"*  c #201411",
"=  c #261914",
"-  c #301C17",
";  c #311F18",
":  c #1A2313",
">  c #1F2916",
",  c #212515",
"<  c #2C2217",
"1  c #212D17",
"2  c #2E2518",
"3  c #272F19",
"4  c #2D2D1A",
"5  c #312319",
"6  c #3D251C",
"7  c #302E1A",
"8  c #3C2A1D",
"9  c #253219",
"0  c #2A351A",
"q  c #2B3C1C",
"w  c #353A1E",
"e  c #44271E",
"r  c #492D21",
"t  c #443221",
"y  c #4E3023",
"u  c #423821",
"i  c #4B3C24",
"p  c #523224",
"a  c #5A3627",
"s  c #553A26",
"d  c #5D3728",
"f  c #653C2B",
"g  c #693F2D",
"h  c #2E401E",
"j  c #30421F",
"k  c #324520",
"l  c #3B4422",
"z  c #354A22",
"x  c #3C4E24",
"c  c #375123",
"v  c #3B5325",
"b  c #3F5B28",
"n  c #454324",
"m  c #4C4627",
"M  c #414E25",
"N  c #4A4A27",
"B  c #514127",
"V  c #544629",
"C  c #5C452A",
"Z  c #5B4C2C",
"A  c #435126",
"S  c #405927",
"D  c #445728",
"F  c #4B5429",
"G  c #4A5A2B",
"H  c #53532C",
"J  c #5D512E",
"K  c #545C2E",
"L  c #5C582F",
"P  c #5D5D31",
"I  c #63422C",
"U  c #6C422E",
"Y  c #654E2F",
"T  c #62522F",
"R  c #6B4A30",
"E  c #744531",
"W  c #7A4C34",
"Q  c #7D4C35",
"!  c #655130",
"~  c #6D5533",
"^  c #615B31",
"/  c #6C5833",
"(  c #725233",
")  c #46652C",
"_  c #4E622E",
"`  c #476A2E",
"'  c #4A6A2F",
"]  c #50642F",
"[  c #4D6C30",
"{  c #526530",
"}  c #5E6032",
"|  c #507032",
" . c #834F37",
/* pixels */
"                                        . . . . . . . . . . . . . . . . . . . .                                                 ",
"                                        . . . . . . . . . . . . . . . . . . . .                                                 ",
"                                        o o o o o o o o o o + + o o o o o o o o                                                 ",
"                                      + * = = = = = ; ; ; ; ; ; ; = = = = = = * +                                               ",
"                                  . X $ = 6 e r r y p p p p p p p y y r r e 6 = $ X .                                           ",
"                                . . o = 6 p d f g U U U U U U U U U U g f d p 6 = o . .                                         ",
"                                X o $ ; r d U E Q Q Q Q Q Q Q Q Q Q Q Q E U d r ; $ o X                                         ",
"                              o $ = ; e p g E Q Q  . . . . . . . . . .Q Q E g p e ; = $ o                                       ",
"          . . . . . . . . . X $ = 6 r p f E Q Q Q  . . . . . . . . . .Q Q Q E f p r 6 - * X . . . . . . . . .                   ",
"        . . . . . . . . . . o = 6 p d g E Q Q Q Q Q Q Q Q Q Q Q Q Q Q Q Q Q Q E g d p 6 = o . . . . . . . . . .                 ",
"        . . . X X X O O O + & 5 r d U E Q Q Q Q Q Q Q Q Q Q Q Q Q Q Q Q Q Q Q Q Q I d t 2 & O O O O X X X . . .                 ",
"        . . X X + % : : : > 4 8 s U E Q Q  . . . . . . .Q Q Q Q  . . . . .Q Q Q ~ Y Z n w 3 > : : : % + O X . .                 ",
"        . . X + : 9 q q h k l m I Q Q  . . . . . . . . . .Q Q  . . . . . .Q Q ( ~ P K F x k k q q q 9 : + X . .                 ",
"        . . X % 1 q z v v S G H ! Q Q Q Q Q Q Q Q Q Q Q Q Q Q Q Q Q Q Q Q Q Q ~ ^ { _ _ S S S v v z q 1 % X . .                 ",
"        . . X % 1 q z v S ) _ L ! ~ Q Q Q Q Q Q Q Q Q Q Q Q Q Q Q Q Q Q Q Q ( ~ P { ' ' ' _ ) S v z q 1 % X . .                 ",
"          . X % > 9 q z v S _ K L T Y Y Y Y Y Y Y Y Y Y Y Y Y Y Y Y Y R Q Q ( / } { ' ` ` ) S v z q 9 > % X .                   ",
"              + % : > q z v S G F H V V V V V H H H V V V V V V V V Z Y Q Q ( / } { ' ` ) S v z 9 > : % +                       ",
"                X O # > q z v A A A A A A A A A A A A A A A A A A A F Z R Q ( ~ P { _ ) ) v z q > # O X                         ",
"                . . O % 9 q z z x v v v v v v v v v v v v v v v v v A V Y Q Q ~ P { _ ) S A l 0 & X . .                         ",
"                  . X # : 1 q h z z v v v c c c c c c c v v v c c c v N Y R Q ~ P { _ _ G N n 4 & X . .                         ",
"                      O # : > 9 h z v v v v c c c v v v v v v c c v x N C U R ! P { _ K H V i 8 = X . .                         ",
"                        X O # : q z v v v v v v v v v v v v v v v v M N C I I T K ] _ K J C s 8 = o . .                         ",
"                        . . X % 1 q z x v v v v v v v x z z z z c v A N V C C Z K _ _ K J I a e = o . .                         ",
"                        . . X O % 1 q j z v S S S S v z h q q h z v D F V V V N F S G H Z I a e = o . .                         ",
"                        . . . X O % : 0 z b ) _ _ ) v k 9 : : 9 k v S G F N N A A S D H Z I a e = o . .                         ",
"                        . . . . X X % 9 k S _ [ [ _ S k 1 % % 1 k S ) _ S A A v v v A N Z I a e = o . .                         ",
"                        . . . X X O % 9 z S ' [ [ ' S k 9 : : 9 z S _ ) S v v v x x M V C I a e = o . .                         ",
"                        . . X O % : 9 h v ) [ [ [ [ ) v q 9 9 q v ) _ ) S v v x M N N C I I d e = o . .                         ",
"                        . . X % > q z v S _ ' [ [ ' _ S x z z v S _ _ ) b v v M N V C I U U d e = o . .                         ",
"                        . . O : q v S ) _ ' ' [ [ ' _ _ ) S S ) _ _ _ ) b v x M V C I U U f a e = o . .                         ",
"                        . . O > k S ' [ [ ' ' ' ' ' ' ' ' ' ' ' ' ' _ ) b v M N V I f f f d p 6 = o . .                         ",
"                        . . O > k S [ [ [ ' ' ' ' ' ' [ [ [ [ [ [ ' ) ) b v M N C I f f p r 6 - * o .                           ",
"                        . . O > k S [ [ [ ' ' ' ' ' ' ' ' [ [ [ [ ' _ ) b v M N C I f p e ; = $ @                               ",
"                        . . O > k S ' [ [ ' ' ' ' ' ' ' ' ' ' ' ' ' _ ) b v M N C I a r ; $ o X                                 ",
"                        . . O > k S ' [ [ ' ' ' ' ' ' ' ' ' ' ' ' ' _ ) b v x N B s p 6 = o . .                                 ",
"                        . . O > k S ' [ [ ' ' ' ' ' ' ' ' ' ' ' ' ' _ ) S v x l u e 6 - * X .                                   ",
"                        . . O > k S ' [ [ [ ' ' ' ' ' ' ' ' ' ' [ ' _ ) S v x w 7 < = * o                                       ",
"                        . . O > k S ' [ [ [ ' ' ' ' ' ' ' ' ' ' ' ' _ ) S v z 0 , $ o o                                         ",
"                        . . O > k S ' [ [ [ ' ' ' ' ' ' ' ' ' ' ' _ _ ) S v k 9 : O . .                                         ",
"                        . . O > k S [ | [ [ [ [ [ [ [ [ [ [ [ ' _ ) ) S S v z 9 % X . .                                         ",
"                        . . O > k S [ | | [ [ [ [ [ [ [ [ [ [ _ ) S S S S v z 9 % X . .                                         ",
"                        . . O > k S ' [ [ ' ' ' ' ' ' ' ' ' _ ) S v v v v v k 9 : X . .                                         ",
"                        . . O : q v S S S S S S S S S S S S S v x z k k z k q 9 % O . .                                         ",
"                          . O : 9 q k k k k k k k k k k k k k q q 9 9 9 9 9 9 > % X .                                           ",
"                              % : > > > > > > > > > > > > > > : : : : : : : : % +                                               ",
"                                O O + + O O O O O O O O O O O O O X O X O O O O                                                 ",
"                                . . . . . . . . . . . . . . . . . . . . . . . .                                                 ",
"                                . . . . . . . . . . . . . . . . . . . . . . . .                                                 ",
"                                  . . . . . . . . . . . . . . . . . . . . . .                                                   ",
"                                                                                                                                ",
"                                                                                                                                ",
"                                                                                                                                ",
"                                                                                                                                ",
"                                                                                                                                ",
"                                                                                                                                ",
"                                                                                                                                ",
"                                                                                                                                ",
"                                                                                                                                ",
"                                                                                                                                ",
"                                                                                                                                ",
"                                                                                                                                ",
"                                                                                                                                ",
"                                                                                                                                ",
"                                                                                                                                "
};
