/* XPM */
static char *g_rr1[] = {
/* columns rows colors chars-per-pixel */
"64 64 93 2 ",
"   c None",
".  c #060608",
"X  c #070809",
"o  c #140E0D",
"O  c #0E110C",
"+  c #12140E",
"@  c #18100F",
"#  c #13190F",
"$  c #1E1411",
"%  c #161D11",
"&  c #191E12",
"*  c #211412",
"=  c #261914",
"-  c #311C17",
";  c #311F18",
":  c #162011",
">  c #1B2413",
",  c #1E2915",
"<  c #212615",
"1  c #212D17",
"2  c #2E2518",
"3  c #272F19",
"4  c #2D2D1A",
"5  c #312319",
"6  c #3D251C",
"7  c #3C2A1D",
"8  c #233017",
"9  c #29361B",
"0  c #2B3B1C",
"q  c #35391E",
"w  c #3E3320",
"e  c #44271E",
"r  c #43291F",
"t  c #492D21",
"y  c #423421",
"u  c #4E3023",
"i  c #4B3C24",
"p  c #523124",
"a  c #5A3627",
"s  c #553A26",
"d  c #5D3728",
"f  c #653C2B",
"g  c #693F2D",
"h  c #2E411E",
"j  c #30431F",
"k  c #324420",
"l  c #3B4422",
"z  c #354A22",
"x  c #3B4E24",
"c  c #375123",
"v  c #3B5225",
"b  c #3E5927",
"n  c #3F5A28",
"m  c #454324",
"M  c #4C4627",
"N  c #414E25",
"B  c #4A4A27",
"V  c #514127",
"C  c #544629",
"Z  c #5C452A",
"A  c #5B4C2C",
"S  c #435126",
"D  c #445728",
"F  c #4B5429",
"G  c #4A5A2B",
"H  c #53532C",
"J  c #5D512E",
"K  c #545C2E",
"L  c #5C582F",
"P  c #5D5D31",
"I  c #63422C",
"U  c #6C422E",
"Y  c #654E2F",
"T  c #62522F",
"R  c #6B4A30",
"E  c #744531",
"W  c #7A4C34",
"Q  c #7E4C35",
"!  c #655731",
"~  c #6D5533",
"^  c #615B31",
"/  c #6C5833",
"(  c #725233",
")  c #46652C",
"_  c #4E622E",
"`  c #476A2E",
"'  c #4A6A2F",
"]  c #50642F",
"[  c #4D6C30",
"{  c #526530",
"}  c #5E6032",
"|  c #507032",
" . c #834F37",
/* pixels */
"                                        . . . . . . . . . . . . . . . . . . . .                                                 ",
"                                        . . . . . . . . . . . . . . . . . . . .                                                 ",
"                                        o o o o o o o o o o + + o o o o o o o o                                                 ",
"                                      @ * = = = = = ; ; ; ; ; ; ; ; = = = = = * +                                               ",
"                                  . X $ = 6 r t t u p p p p p p p p u t t r 6 = $ X .                                           ",
"                                . X o = 6 p d f g U U U U U U U U U U g f d p 6 = o . .                                         ",
"                                X o $ ; t d U E Q Q Q Q Q Q Q Q Q Q Q Q E U d t ; $ o X                                         ",
"                              o $ = ; r p g E Q Q  . . . . . . . . . .Q Q E g p r ; = $ o                                       ",
"          . . . . . . . . . X $ = 6 t p f E Q Q Q  . . . . . . . . . .Q Q Q E f p t 6 - * X . . . . . . . . .                   ",
"        . . . . . . . . . . o = 6 p d g E Q Q Q Q Q Q Q Q Q Q Q Q Q Q Q Q Q Q E g d p 6 = o . . . . . . . . . .                 ",
"        . . . X X X O O O + & 5 t d U E Q Q Q Q Q Q Q Q Q Q Q Q Q Q Q Q Q Q Q Q Q I d y 2 & O O O O X X X . . .                 ",
"        . . X X + % > > > , 4 w s U E Q Q  . . . . . . .Q Q Q Q Q Q Q  . .Q Q Q ~ Y A m q 3 , > > > % # O X . .                 ",
"        . . X + > 8 0 0 h k l M I Q Q  . . . . . . . . . .Q Q Q  . . . . .Q Q ( ! P K F x k k 0 0 0 8 > + X . .                 ",
"        . . X % 1 0 z v v D G H ! Q Q Q Q Q Q Q Q Q Q Q Q Q Q Q Q Q Q Q Q Q Q ~ ^ { _ _ D D D v v z 0 1 % X . .                 ",
"        . . O % 1 0 z v D ) _ L ! ~ Q Q Q Q Q Q Q Q Q Q Q Q Q Q Q Q Q Q Q Q ( ~ P { ' ' ' _ ) D v z 0 1 % O . .                 ",
"          . O % , 8 0 z v D _ K L T Y Y Y Y Y Y Y Y Y Y Y Y Y Y Y Y R R Q Q ( / } { ' ` ` ) D v z 0 8 , % O .                   ",
"              + % > , 0 z v D G F H H C C C C H H H C C C C C C C C A Y Q Q ( / } { ' ` ) D v z 8 , > % +                       ",
"                X O # , 0 z v S S S S S S S S S S S S S S S S S S S F A R Q ( ~ P { _ ) ) b z 0 , # O X                         ",
"                . . O % 8 0 z z x v v v v v v v v v v v v v v v v v S C Y Q Q ~ P { _ ) D S l 9 & O . .                         ",
"                  . X # > 8 0 h z z v v v c c c c c c c v v v c c c v B Y R Q ~ P { _ _ G B m 4 & X . .                         ",
"                      O # > , 8 h z v v v v c c c c v v v v v c c v x B Z U R ! P { _ K H C i 7 = o . .                         ",
"                        X O # > 0 z v v v v v v v v v v v v v v v v N B Z I I T K ] _ K J Z s 7 = o . .                         ",
"                        . X X % 1 0 z x v v v v v v v x z z z z c v S B C Z Z A K _ _ K J I a r = o . .                         ",
"                        . . X O % 1 0 j z v D D D D v z h 0 0 h z v D F C C C B F D G H A I a e = o . .                         ",
"                        . . . X O % > 9 z b ) _ _ ) b k 8 > > 8 k v D G F B B S S D D H A I a e = o . .                         ",
"                        . . . . X O % 8 k D _ [ [ _ D k 1 % % 1 k D ) _ D S N v v v S B A I a r = o . .                         ",
"                        . . . X X O % 8 z D ' [ [ ' D z 8 > > 8 z D _ ) D v v v x x N C Z I a r = o . .                         ",
"                        . . X O % > 8 h v ) [ [ [ [ ) v 0 8 8 0 v ) _ ) D v v x N B B Z I I d r = o . .                         ",
"                        . . X % , 0 z v D _ ' [ [ ' _ D x z z v D ) _ ) n v v N B C Z I U U d r = o . .                         ",
"                        . . O > 0 v D ) _ ' ' [ ' ' _ _ ) D D ) ) ' _ ) n v x N C Z I U U f a r = o . .                         ",
"                        . . O , k D ' [ [ ' ' ' ' ' ' ' ' ' ' ' ' ' _ ) n v N B Z I f f f d p 6 = o . .                         ",
"                        . . O , k D [ [ [ ' ' ' ' ' ' [ [ [ [ [ [ ' _ ) n v N B Z I f f p t 6 - * o .                           ",
"                        . . O , k D [ [ [ ' ' ' ' ' ' [ [ [ [ [ [ [ _ ) n v N B Z I f p e ; = * @                               ",
"                        . . O , k D ' [ [ ' ' ' ' ' ' ' ' ' ' ' ' ' _ ) n v N B Z I d t ; $ o X                                 ",
"                        . . O , k D ' [ [ ' ' ' ' ' ' ' ' ' ' ' ' _ ) D b v x B V s p 6 = o . .                                 ",
"                      . . . O , k D [ | [ [ [ [ [ [ [ [ [ [ ' ' _ ) ) D b v x l y r 6 - * X .                                   ",
"                  . . . . . O , k D [ | | [ [ [ [ [ [ [ [ [ ' _ ) D D b v v x q 4 2 * * o                                       ",
"                . . . . . X O , k D ' [ [ ' ' ' ' ' ' ' ' ' _ ) D v v v v v z 0 < $ o o                                         ",
"                . . . . X X % 1 h v D D D D D D D D D D D D D v x z z z x x z 0 , # O X                                         ",
"                . . X X + % , 8 0 h k k k k k k k k k k k k h 0 0 8 0 h z x z h 8 , : # O                                       ",
"                . . X # > 8 9 8 3 , , , , , , , , , , , , , > > > > > 8 h z v z j 0 8 , % O .                                   ",
"                . . O % 8 0 0 9 > % O O O O O O O O O O + O O O X O # , 0 z x v z z 0 1 % O . .                                 ",
"                . . O % 1 0 0 8 > O . . . . . . . . . . . . . . . . O > 8 0 k z z k 0 1 % X . .                                 ",
"                . . X # > 8 8 , % X . . . . . . . . . . . . . . . . X % > 8 8 0 0 9 8 > + X . .                                 ",
"                . . X O # % > % +                                     + % & > > > > % + O X . .                                 ",
"                . . . X X X O O                                         X O O O O O X X X . . .                                 ",
"                . . . . . . . .                                         . . . . . . . . . . . .                                 ",
"                  . . . . . . .                                         . . . . . . . . . . . .                                 ",
"                  . . . . . .                                             . . . . . . . . . .                                   ",
"                                                                                                                                ",
"                                                                                                                                ",
"                                                                                                                                ",
"                                                                                                                                ",
"                                                                                                                                ",
"                                                                                                                                ",
"                                                                                                                                ",
"                                                                                                                                ",
"                                                                                                                                ",
"                                                                                                                                ",
"                                                                                                                                ",
"                                                                                                                                ",
"                                                                                                                                ",
"                                                                                                                                ",
"                                                                                                                                "
};
