/* XPM */
static char *g_rr5[] = {
/* columns rows colors chars-per-pixel */
"64 64 98 2 ",
"   c None",
".  c #070807",
"X  c #060608",
"o  c #070808",
"O  c #140E0D",
"+  c #0E120C",
"@  c #12140E",
"#  c #18100F",
"$  c #131A0F",
"%  c #1E1411",
"&  c #161D11",
"*  c #1A1D12",
"=  c #201411",
"-  c #261914",
";  c #2B1B16",
":  c #301C17",
">  c #311F18",
",  c #1A2413",
"<  c #1E2915",
"1  c #212515",
"2  c #2B2117",
"3  c #222E17",
"4  c #2E2518",
"5  c #272F19",
"6  c #2E2D1A",
"7  c #312319",
"8  c #3D251C",
"9  c #3C2A1D",
"0  c #233117",
"q  c #29351A",
"w  c #2B3B1C",
"e  c #353A1F",
"r  c #3E3320",
"t  c #44271E",
"y  c #43291F",
"u  c #492D21",
"i  c #443221",
"p  c #4E3023",
"a  c #413821",
"s  c #4B3C24",
"d  c #523124",
"f  c #5A3627",
"g  c #553A26",
"h  c #5D3728",
"j  c #5D3928",
"k  c #653C2B",
"l  c #693F2D",
"z  c #2E401E",
"x  c #30431F",
"c  c #324520",
"v  c #3B4422",
"b  c #3C4E24",
"n  c #375123",
"m  c #3B5325",
"M  c #3F5B28",
"N  c #444124",
"B  c #4C4627",
"V  c #424D25",
"C  c #4A4A27",
"Z  c #4D4C28",
"A  c #514127",
"S  c #544629",
"D  c #5C452A",
"F  c #534E2A",
"G  c #5B4C2C",
"H  c #435126",
"J  c #445728",
"K  c #4B5429",
"L  c #4A5A2B",
"P  c #53532C",
"I  c #5D512E",
"U  c #545C2E",
"Y  c #5C582F",
"T  c #5D5D31",
"R  c #63422C",
"E  c #6C422E",
"W  c #654E2F",
"Q  c #62522F",
"!  c #6B4A30",
"~  c #744531",
"^  c #7C4A34",
"/  c #7A4C34",
"(  c #655130",
")  c #6E5032",
"_  c #615B31",
"`  c #6C5833",
"'  c #725233",
"]  c #785134",
"[  c #46652C",
"{  c #48662D",
"}  c #47692E",
"|  c #49682E",
" . c #50642F",
".. c #4D6C30",
"X. c #526530",
"o. c #5F6032",
"O. c #507032",
"+. c #834F37",
/* pixels */
"                                                                                                                                ",
"                                                                                                                                ",
"                                                                                                                                ",
"                                                                                                                                ",
"                                          X X X X X X X X X X X X X X X X X X                                                   ",
"                                        X X X X X X X X X X X X X X X X X X X X                                                 ",
"                                        O O O O O O @ @ O O O O O O O O O O O O                                                 ",
"                                      @ = - ; ; ; > > > > > > > > > ; ; ; ; - = #                                               ",
"                                  X o % ; 8 y u u p d d d d d d d d p u u y 8 ; % o X                                           ",
"                                X X O - 8 d j k l E E E E E E E E E E l k j d 8 - O X X                                         ",
"                                o O % > u j E ~ ^ ^ ^ ^ ^ ^ ^ ^ ^ ^ ^ ^ ~ E j u > % O o                                         ",
"                              O % - > y d l ~ ^ ^ +.+.+.+.+.+.+.+.+.+.^ ^ ~ l d y > ; = O                                       ",
"          X X X X X X X X X o % ; 8 u d k ~ ^ ^ ^ +.+.+.+.+.+.+.+.+.+.+.^ ^ ~ k d u 8 : = o X X X X X X X X X                   ",
"        X X X X X X X X X X O - 8 d j l ~ ^ ^ ^ ^ ^ ^ ^ ^ ^ ^ ^ ^ ^ ^ ^ ^ ^ ^ ~ l j d 8 - O X X X X X X X X X X                 ",
"        X X X o o o + + + @ * 7 p j E ~ ^ ^ ^ ^ ^ ^ ^ ^ ^ ^ ^ ^ ^ ^ ^ ^ ^ ^ ^ ^ ^ R j i 4 * + + + + o o o X X X                 ",
"        X X o + @ & , , , < 6 r g E ~ ^ ^ +.+.+.+.+.+.+.+.+.+.+.+.+.+.+.+.^ ^ ^ ) W G N e 5 < , , , & @ + o X X                 ",
"        X X o @ , 0 w w z c v B R ^ ^ +.+.+.+.+.+.+.+.+.+.+.+.+.+.+.+.+.+.^ ^ ' ) T U K b c c w w w 0 , @ o X X                 ",
"        X X o & 3 w c m m J L P ( ^ ^ ^ ^ ^ ^ ^ ^ ^ ^ ^ ^ ^ ^ ^ ^ ^ ^ ^ ^ ^ ^ ) _ X.{ { J J J m b c w 3 & o X X                 ",
"        X X + & 3 w c m J [ { T ( ) ^ ^ ^ ^ ^ ^ ^ ^ ^ ^ ^ ^ ^ ^ ^ ^ ^ ^ ^ ^ ] ) T X.| | | { [ J m c w 3 & + X X                 ",
"          X o & , 0 w c m [ { U Y Q W W W W W W W W W W W W W W W W ! ! ^ ^ ] ) o.X.| | } [ J m c w 0 < & + X                   ",
"              @ & , < w c m J L K P F F F F F F P P P F F F F F P F G W ^ ^ ' ` o.X.| } [ [ m c w 3 , & @                       ",
"                o + $ < w c m H H H H H H H H H H H H H H H H H H H K G ! ^ ' ) T X.{ [ [ M c w < & + o                         ",
"                X X + * 0 w c b b m m m m m m m m m m m m m m m m m H F W ^ ^ ) T X.{ [ J H v q * o X X                         ",
"                  X o $ , 0 w z c c m m m n n n n n n m m m m n n n V F W ! ^ ) T X.{ { L C N 6 * o X X                         ",
"                      + $ & < 0 z c m m m m n n n n m m m m m m n m V C D E ! ( T  .{ U P F s 9 - o X X                         ",
"                        o + $ < w c m m m m m m m m m m m m m m m m V Z D R R I U  .{ U I D g y - O X X                         ",
"                        X X + & 3 w c b m m m m m m m b c c c c c m H C F D D G U { { U G R f t ; O X X                         ",
"                        X X o @ , 3 w x c m J J J J m c z w w z c m J K C F F C K J L P G R f t ; O X X                         ",
"                        X X X o + & , q c m [ { { [ M c 0 < < 0 c m J L K C Z H H J J P G R f t ; O X X                         ",
"                        X X X X o + & 0 c J { ....{ J c 3 & & 5 c J [ { J H m m m m H C G R f y ; O X X                         ",
"                        X X X o o + * 0 c J | ....| J c 0 , , 0 c J { [ J m m m m V V F D R f y ; O X X                         ",
"                        X X o + $ , 0 z m [ | ......[ m w 0 0 w m [ { [ J m m b V Z C D R R h y ; O X X                         ",
"                        X X o & 3 w c m J { ........{ J b c c m J { { [ J m m V Z S D R E E j y ; O X X                         ",
"                        X X + , w m J [ { | | ....| { { J J J [ { { { [ M m b V S D R E E k f y ; O X X                         ",
"                        X X + < c J | ....| | | | | | | | | | | | | { [ M m V Z S R k k k h d 8 - O X X                         ",
"                        X X @ < c J ......| | | | | | ............| { [ M m V Z D R k h d u 8 : = O X                           ",
"                        X X + < c J ........| | | | | | ..........| { [ M m V C D R k d t > - = #                               ",
"                        X X + < c J | ......| | | | | | | | ....| | { [ M m V Z D R h u > % O o                                 ",
"                        X X + < c J | ......| | | | | | | | | ..| | { [ M m b V A g d 8 ; O X X                                 ",
"                        X X + < c J ..O.................| | | ....| { [ J m b v a y 8 : % o X                                   ",
"                        X X + < c J ..O.O.................| | ....| | [ J m b e 6 2 - = O                                       ",
"                        X X + < c J | ....| | | | | | | | | | ..| | { [ J m c q 1 % O O                                         ",
"                        X X + , w m J J J J J J J J J [ { | | ..| { [ J m c z 0 & + X X                                         ",
"                          X + , 0 w c c c c c c c c c m J { ....| [ J m c w 0 , $ o X                                           ",
"                              & , < < < < < < , , < 0 c m [ | | { J m c q < , $ +                                               ",
"                                + + + + + + + + o + & 0 c J { { [ m c w < $ + o                                                 ",
"                                X X X X X X X X X X + < z m J J m c w 3 & + X X                                                 ",
"                                X X X X X X X X X X o , w c m b x w 3 , @ o X X                                                 ",
"                                  X X X X X X X X X o & 0 z x w 0 , & @ o X X                                                   ",
"                                            X X X X o $ < 0 0 3 , @ o o . X                                                     ",
"                                              X X X o + , < < , @ o X X X                                                       ",
"                                              X X X . o $ $ & $ + X X X                                                         ",
"                                              X X X X o o + + o o X X                                                           ",
"                                              X X X X X X . . . X X                                                             ",
"                                              X X X X X X X X X X                                                               ",
"                                              X X X X X X X X X                                                                 ",
"                                                X X X X X X X                                                                   ",
"                                                                                                                                ",
"                                                                                                                                ",
"                                                                                                                                ",
"                                                                                                                                ",
"                                                                                                                                ",
"                                                                                                                                ",
"                                                                                                                                "
};
