/* XPM */
static char *g_rr3[] = {
/* columns rows colors chars-per-pixel */
"64 64 103 2 ",
"   c None",
".  c #020205",
"X  c #070807",
"o  c #080A07",
"O  c #060608",
"+  c #070808",
"@  c #0B0C0A",
"#  c #140E0D",
"$  c #0E110C",
"%  c #18100F",
"&  c #12190E",
"*  c #1E1411",
"=  c #161D10",
"-  c #1B1D12",
";  c #211512",
":  c #2A1715",
">  c #261914",
",  c #2B1B16",
"<  c #311F18",
"1  c #172011",
"2  c #1A2313",
"3  c #1E2915",
"4  c #2D2117",
"5  c #222D17",
"6  c #2D2418",
"7  c #252F18",
"8  c #2A2D1A",
"9  c #302318",
"0  c #3D251C",
"q  c #3D2C1E",
"w  c #253319",
"e  c #29361A",
"r  c #2C3C1D",
"t  c #36381F",
"y  c #3D3420",
"u  c #44271E",
"i  c #43291F",
"p  c #492D21",
"a  c #433120",
"s  c #4E3023",
"d  c #423821",
"f  c #4F3E25",
"g  c #523224",
"h  c #5A3627",
"j  c #553A26",
"k  c #5D3728",
"l  c #5D3928",
"z  c #653D2B",
"x  c #6A3F2D",
"c  c #2E401E",
"v  c #30421F",
"b  c #3B4422",
"n  c #354A22",
"m  c #3C4E24",
"M  c #365123",
"N  c #3A5224",
"B  c #3E5927",
"V  c #3F5B28",
"C  c #454424",
"Z  c #4F4026",
"A  c #424E25",
"S  c #4A4A27",
"D  c #4C4728",
"F  c #4D4C28",
"G  c #554528",
"H  c #5B452A",
"J  c #534E2A",
"K  c #5B4C2C",
"L  c #435126",
"P  c #455729",
"I  c #4B552A",
"U  c #425C29",
"Y  c #4A5C2B",
"T  c #53532B",
"R  c #5D512E",
"E  c #545B2E",
"W  c #5A582F",
"Q  c #5D5D31",
"!  c #63422C",
"~  c #6C422E",
"^  c #644D2F",
"/  c #70412E",
"(  c #62522F",
")  c #6B4B30",
"_  c #744531",
"`  c #7C4A34",
"'  c #7A4C34",
"]  c #655130",
"[  c #6E5032",
"{  c #615B31",
"}  c #605F32",
"|  c #725233",
" . c #785134",
".. c #47612C",
"X. c #48652D",
"o. c #486A2E",
"O. c #4A6A2F",
"+. c #50642F",
"@. c #4E6D30",
"#. c #526530",
"$. c #5F6032",
"%. c #507032",
"&. c #834F37",
/* pixels */
"                                                                                                                                ",
"                                                                                                                                ",
"                                                                                                                                ",
"                                                                                                                                ",
"                                          . . . . . . . . . . . . . . . . . .                                                   ",
"                                        O O O O O O O O O O O O O O O O O O O O                                                 ",
"                                        # # # # # % % % % % % % % # # # # # # #                                                 ",
"                                      % ; > , , , < < < < < < < < < < , , , > ; %                                               ",
"                                  . @ * , 0 i p p s g g g g g g g g s p p i 0 , * @ .                                           ",
"                                . O # > 0 g l z x ~ ~ ~ ~ ~ ~ ~ ~ ~ ~ x z l g 0 > # O .                                         ",
"                                @ # * < p l ~ _ ` ` ` ` ` ` ` ` ` ` ` ` _ ~ l p < * # @                                         ",
"                              # * > < i g x _ ` ` &.&.&.&.&.&.&.&.&.&.` ` _ x g i < , * #                                       ",
"                          . @ * , 0 p g z _ ` ` ` &.&.&.&.&.&.&.&.&.&.&.` ` _ z g p 0 , * @ .                                   ",
"                        . O # > 0 g l x _ ` ` ` ` ` ` ` ` ` ` ` ` ` ` ` ` ` ` _ x l g 0 > # O .                                 ",
"                        $ % - 9 p l ~ _ ` ` ` ` ` ` ` ` ` ` ` ` ` ` ` ` ` ` ` ` ` ! l a 6 - % $                                 ",
"                      & 1 2 8 y j ~ _ ` ` &.&.&.&.&.&.&.&.&.&.&.&.&.&.&.&.` ` ` [ ^ K C t 7 3 1 &                               ",
"                  . @ 1 w r b D ! ` ` ` &.&.&.&.&.&.&.&.&.&.&.&.&.&.&.&.&.` ` | [ Q E I m n r w 2 @ .                           ",
"                . O $ 3 r N Y T ] ` ` ` ` ` ` ` ` ` ` ` ` ` ` ` ` ` ` ` ` ` ` [ { #.X.X...U N r 2 % O .                         ",
"                @ $ = w n U X.Q { [ ` ` ` ` ` ` ` ` ` ` ` ` ` ` ` ` ` ` ` `  .[ Q #.O.O.O.X.V n 7 = $ @                         ",
"              % = 2 5 r n U X.E W ( ^ ^ ^ ^ ^ ^ ^ ^ ^ ^ ^ ^ ^ ^ ^ ^ ) ) ` `  .[ Q #.O.O.O...V n r 3 2 = %                       ",
"          O $ = 3 w r n N U U Y I T T J J J J J J J J J J J J J T J K ^ ` ` | [ $.#.O.O...U B n v r w 2 = $ O                   ",
"        . O $ = 5 r n n N N N N L L L L L L L L L L L L L L L L L L I K ) ` | [ { #.X...U N N N n n r 5 = $ O .                 ",
"        . O @ = 5 r n n n n n n m N N N N N N N N N N N N N N N N N L J ^ ` ` [ Q #.X...U L m m m n r 5 = @ O .                 ",
"        . O @ % 2 w w e e e r r n n N N N M M M M M M M N N M M M N L J ^ ) ` [ Q #.X.X.I F C b n r w 2 % @ O .                 ",
"        . O @ $ % = 2 2 2 2 2 w r n N N N N N N N N N N N N N M M N A F H ~ ) ] Q +.X.E T J Z d t 5 - % @ @ O .                 ",
"        O O O @ @ @ $ @ @ $ & 3 r n N N N N N N N N N N N N N N N N A S H ! ! R E +.X.E R H j a 4 * @ + + O O O                 ",
"        O O O O O O O . . O $ 2 w n N N N N N N N N N N N N N N N N m S G H H K E X.X.E ^ ! h i , # O . . O O O                 ",
"          O O . . . . . . . @ 2 w n N N N N N N N N N N N N N N N N m A S G J I I U Y T K ! h u , # . . . O O                   ",
"                      . . . @ 2 w n N N N N N N N N N N N N N N N N m A A S S L L U P T K ! h u : # O . .                       ",
"                        . O $ 2 w n N N N N N N N N N N N N N N N N N N m m L N N N L F K ! h i , # O .                         ",
"                        . O @ = 5 r n m N N N N N N N m n n n n m N N N N N N N N A A J H ! h i , # O .                         ",
"                        . O @ % 2 5 r v n N U U U U N n c r r c n N B B N N N m A S S H ! z h i , # O .                         ",
"                        O O @ @ $ = 2 e n N ..X.X...N n w 3 3 w n N U U B N N A S G H ! ! z h i , # O .                         ",
"                        O O O + @ @ = w n U X.@.@.X.U n 5 = = 5 n U ....V N m S G H ! ~ ~ z h i , # O .                         ",
"                        O O + @ @ $ - w n U O.@.@.O.U n w 2 - w n U X...U N A S G ! x x x x h i , # O .                         ",
"                        . O @ $ = 2 w c N ..O.@.@.O...N r w w r N ..X...U N A S H ! x x ~ x k i , # O .                         ",
"                        . O @ = 3 r n N U X.O.@.@.O.X.U m n n N U X.X...U N A S G ! x x / x k i , # O .                         ",
"                        . O $ 2 r N U ..X.X.O.@.@.O.X.....U U ..X.X.X...V N A S G ! x x x z h i , # O .                         ",
"                        . O $ 3 n U O.@.@.O.O.O.O.O.O.O.O.O.O.O.O.X...U B N A S H ! z z z k g 0 > # O .                         ",
"                        . O % 3 n U @.%.@.@.@.@.@.@.@.@.@.@.@.@.O.....U B N L F H ! z k g p 0 < ; # O                           ",
"                        . O % 3 n U @.%.@.@.@.@.@.@.@.@.@.@.@.O...U U B N N L F K ! z g u < > ; %                               ",
"                        . O % 3 n U O.@.@.O.O.O.O.O.O.O.O.O.X...U N N N N N A S H ! k p < * # @                                 ",
"                        . O $ 3 c U X.X...U U U U U U U U U V N m n n n n n b C f j g 0 , # O .                                 ",
"                        . O $ 2 r N U U N n n n n n n n n n c r r w w w w w e t q q 0 < ; @ .                                   ",
"                        . O $ 2 r N N n r w 3 3 3 3 3 3 5 3 3 2 2 2 2 2 2 2 2 - > > > ; %                                       ",
"                        . O $ 2 r n n r 5 = % $ $ $ $ $ % $ $ $ $ $ $ $ $ $ $ @ # # # #                                         ",
"                        . O @ 2 w r r w 2 % @ @ + O O O O O O O O O O O O O O O O O O .                                         ",
"                        . . @ & 2 5 5 3 2 & $ @ + . . . . . . . . . . . . . . . . . . .                                         ",
"                          . o $ & & 1 2 2 2 = % @ . . . . . . . . . . . . . . . . . .                                           ",
"                            . X o @ $ & 2 3 3 = $ @ . . . .                                                                     ",
"                              . . . @ % 2 3 3 1 $ @ . . .                                                                       ",
"                                . . . $ & 1 1 & $ X . . .                                                                       ",
"                                  . . @ $ % $ $ @ . . . .                                                                       ",
"                                    . . X @ @ X . . . . .                                                                       ",
"                                      . . . . . . . . . .                                                                       ",
"                                        . . . . . . . . .                                                                       ",
"                                          . . . . . . .                                                                         ",
"                                                                                                                                ",
"                                                                                                                                ",
"                                                                                                                                ",
"                                                                                                                                ",
"                                                                                                                                ",
"                                                                                                                                ",
"                                                                                                                                "
};
