/* XPM */
static char *g_rr0[] = {
/* columns rows colors chars-per-pixel */
"64 64 101 2 ",
"   c None",
".  c #020206",
"X  c #060608",
"o  c #070809",
"O  c #0B0C0A",
"+  c #180E0E",
"@  c #0E120C",
"#  c #18100F",
"$  c #12190F",
"%  c #1E1411",
"&  c #161D11",
"*  c #191C12",
"=  c #211512",
"-  c #2A1715",
";  c #261914",
":  c #2B1B16",
">  c #311F18",
",  c #172112",
"<  c #1A2313",
"1  c #1E2916",
"2  c #212515",
"3  c #2C2217",
"4  c #2D2418",
"5  c #252F18",
"6  c #2A2D1A",
"7  c #302318",
"8  c #3D251C",
"9  c #302E1B",
"0  c #253319",
"q  c #29371B",
"w  c #2C3C1D",
"e  c #353A1E",
"r  c #3D3420",
"t  c #44271E",
"y  c #43291F",
"u  c #492D21",
"i  c #433120",
"p  c #4E3023",
"a  c #423821",
"s  c #523224",
"d  c #5A3627",
"f  c #553A27",
"g  c #5D3728",
"h  c #5D3928",
"j  c #653D2B",
"k  c #6A3F2D",
"l  c #2F401E",
"z  c #30431F",
"x  c #3D4323",
"c  c #354A22",
"v  c #3C4E24",
"b  c #365123",
"n  c #3A5224",
"m  c #3E5927",
"M  c #3F5A28",
"N  c #464425",
"B  c #4F4026",
"V  c #424D25",
"C  c #4B4A27",
"Z  c #4C4728",
"A  c #4D4C28",
"S  c #514127",
"D  c #554529",
"F  c #5B452A",
"G  c #534E2A",
"H  c #5B4C2C",
"J  c #435126",
"K  c #455729",
"L  c #4B552A",
"P  c #425C29",
"I  c #4A5C2B",
"U  c #53532B",
"Y  c #5D512E",
"T  c #545B2E",
"R  c #5A582F",
"E  c #5D5D31",
"W  c #63422C",
"Q  c #6C422E",
"!  c #644D2F",
"~  c #70412E",
"^  c #62522F",
"/  c #6B4B30",
"(  c #744531",
")  c #7C4A34",
"_  c #7A4C34",
"`  c #655130",
"'  c #6E5032",
"]  c #615B31",
"[  c #605F32",
"{  c #725233",
"}  c #785134",
"|  c #47612C",
" . c #48652D",
".. c #486A2E",
"X. c #4A6A2F",
"o. c #50642F",
"O. c #4E6D30",
"+. c #526530",
"@. c #5F6032",
"#. c #517132",
"$. c #834F37",
/* pixels */
"                                                                                                                                ",
"                                                                                                                                ",
"                                                                                                                                ",
"                                                                                                                                ",
"                                          . . . . . . . . . . . . . . . . . .                                                   ",
"                                        X X X X X X X X X X X X X X X X X X X X                                                 ",
"                                        + + + + + # # # # # # # # + + + + + + +                                                 ",
"                                      # = ; : : : > > > > > > > > > : : : : ; = #                                               ",
"                                  . O % : 8 y u u p s s s s s s s s p u u y 8 : % O .                                           ",
"                                . X + ; 8 s h j k Q Q Q Q Q Q Q Q Q Q k j h s 8 ; + X .                                         ",
"                                O + % > u h Q ( ) ) ) ) ) ) ) ) ) ) ) ) ( Q h u > % + O                                         ",
"                              + % ; > y s k ( ) ) $.$.$.$.$.$.$.$.$.$.) ) ( k s y > : % +                                       ",
"                          . O % : 8 u s j ( ) ) ) $.$.$.$.$.$.$.$.$.$.) ) ) ( j s u 8 : % O .                                   ",
"                        . X + ; 8 s h k ( ) ) ) ) ) ) ) ) ) ) ) ) ) ) ) ) ) ) ( k h s 8 ; + X .                                 ",
"                        @ # * 7 u h Q ( ) ) ) ) ) ) ) ) ) ) ) ) ) ) ) ) ) ) ) ) ) W h i 4 * # @                                 ",
"                      $ , < 6 r f Q ( ) ) $.$.$.$.$.$.$.$.$.$.$.$.$.$.$.$.) ) ) ' ! H N e 5 1 , $                               ",
"                  . O , 0 w x Z W ) ) ) $.$.$.$.$.$.$.$.$.$.$.$.$.$.$.$.$.) ) { ' E T L v c w 0 , @ .                           ",
"                . X @ 1 w n I U ` ) ) ) ) ) ) ) ) ) ) ) ) ) ) ) ) ) ) ) ) ) ) ' ] +. . .| P n w 1 @ o .                         ",
"                O @ & 0 c P  .E ] ' ) ) ) ) ) ) ) ) ) ) ) ) ) ) ) ) ) ) ) ) } ' E +.X.X.X. .M c 5 & @ O                         ",
"              # & < 1 w c P  .T R ^ ! ! ! ! ! ! ! ! ! ! ! ! ! ! ! ! / / ) ) } ' E +.X.X.X.| M c w 1 < & #                       ",
"          X @ & 1 0 w c n P P I L U U G G G G G G G G G G G G G U G H ! ) ) { ' @.+.X.X.| P m c z w 0 < & @ X                   ",
"        . X @ & 5 w c c n n n n J J J J J J J J J J J J J J J J J J L H / ) { ' ] +. .| P n n n c c w 2 & @ X .                 ",
"        . X O & 2 w c c c c c c v n n n n n n n n n n n n n n n n n J G ! ) ) ' E +. .| P J v v v c w 2 & O X .                 ",
"        . X O # < 0 0 q q q w w c c n n n b b b b b b b n n b b b n J G ! / ) ' E +. . .L A N x c w 0 < # O X .                 ",
"        . X O @ # & < < < < < 0 w c n n n n n n n n n n n n n b b n V A F Q / ` E o. .T U G B a e 2 * # O O X .                 ",
"        X X X O O O @ O O @ $ 1 w c n n n n n n n n n n n n n n n n V C F W W Y T o. .T Y F f i 3 % O o o X X X                 ",
"        X X X X X X X . . X @ < 0 c n n n n n n n n n n n n n n n n v C D F F H T  . .T H W d y : + X . . X X X                 ",
"          X X . . . . . . . O < 0 c n n n n n n n n n n n n n n n n v V C D G L L P I U H W d t : + . . . X X                   ",
"                      . . . O < 0 c n n n n n n n n n n n n n n n n v V V C C J J P K U H W d t - + . . .                       ",
"                        . X @ < 0 c n n n n n n n n n n n n n n n n n n v v J n n n J A H W d y : + X .                         ",
"                        . X O & 2 w c v n n n n n n n v c c c c v n n n n n n n n V V G F W d y : + X .                         ",
"                        . X O # < 2 w z c n P P P P n c l w w l c n m m n n n v V C C F W j d y : + X .                         ",
"                        X X O O @ & < q c n |  . .| n c 0 1 1 0 c n P P m n n V C D F W W j d y : + X .                         ",
"                        X X X o O O & 0 c P  .O.O. .P c 2 & & 2 c P | | M n v V D F W Q Q j d y : + X .                         ",
"                        X X o O O @ * 0 c P X.O.O.X.P c 0 < < 0 c P  .| P n V C D W k k k k d y : + X .                         ",
"                        . X O @ & < 0 l n | X.O.O.X.| n w 0 0 w n |  .| P n V C F W k k Q k g y : + X .                         ",
"                        . X O & 1 w c n P  .X.O.O.X. .P n c c n P |  .| P n V C D W k k ~ k h y : + X .                         ",
"                        . X @ < w n P |  . .X.X.O.X. .| | P P |  . . .| M n V C D W k k k j d y : + X .                         ",
"                        . X @ 1 c P X.O.O.X.X.X.X.X.X.X.X.X.X.X.X.X. .| M n V C F W j j j g s 8 ; + X .                         ",
"                        . X # 2 c | O.#.#.O.O.O.O.O.O.O.O.O.O.O.O.O. .| M n V C F W j g s u 8 > = + X                           ",
"                        . X # 1 c P O.#.#.O.O.O.O.O.O.O.O.O.O.O.O.O. .| M n V C F W j s t > ; % #                               ",
"                        . X @ 1 c P  .O.O.X.X.X.X.X.X.X.X.X.X.X.X.X. .| M n V C F W g u > % + O                                 ",
"                        . X @ < w n P P P P P P P P P P P P P P |  .| | m n v V S f s 8 : + X .                                 ",
"                          X @ < 0 w c c c c c c c c c c c c c v M P | P m n v x a y 8 > = O .                                   ",
"                              & < < 1 1 1 1 1 1 1 1 1 1 1 1 0 w c n P P m n v e 9 3 : = +                                       ",
"                                @ @ @ @ # @ @ @ @ @ @ @ @ # & 2 w c n n n n c w 2 % + +                                         ",
"                                X X X X X X X X X X X . . X @ & 5 w c v n n c 0 < @ X .                                         ",
"                                . . . . . . . . . . . . . . O # < 2 w z c v c 0 , O . .                                         ",
"                                  . . . . . . . . . . . . . . O # & 1 0 z c c w < O . .                                         ",
"                                                            . . O O $ 1 w c c q < @ X . .                                       ",
"                                                              . . . @ < 0 w w 0 & O X . .                                       ",
"                                                                . . O $ < 2 2 < $ O X . .                                       ",
"                                                                  . . @ $ & & $ @ O X . .                                       ",
"                                                                    . O O O O O O o X . .                                       ",
"                                                                      . . . X X X X . . .                                       ",
"                                                                        . . . . . . . . .                                       ",
"                                                                          . . . . . . .                                         ",
"                                                                                                                                ",
"                                                                                                                                ",
"                                                                                                                                ",
"                                                                                                                                ",
"                                                                                                                                ",
"                                                                                                                                ",
"                                                                                                                                "
};
