/* XPM */
static char *g_rr2[] = {
/* columns rows colors chars-per-pixel */
"64 64 98 2 ",
"   c None",
".  c #070907",
"X  c #060608",
"o  c #070808",
"O  c #140E0D",
"+  c #0E110C",
"@  c #18100F",
"#  c #13190F",
"$  c #1F1411",
"%  c #161D11",
"&  c #1A1D12",
"*  c #201512",
"=  c #261914",
"-  c #2B1B16",
";  c #301C17",
":  c #311F18",
">  c #1A2313",
",  c #1E2916",
"<  c #212E17",
"1  c #2E2518",
"2  c #272F19",
"3  c #2D2D1A",
"4  c #312319",
"5  c #3D251C",
"6  c #3B2B1D",
"7  c #253319",
"8  c #29341A",
"9  c #2B3C1C",
"0  c #36381F",
"q  c #3E3320",
"w  c #44271E",
"e  c #43291E",
"r  c #4A2D21",
"t  c #542F24",
"y  c #443221",
"u  c #4E3023",
"i  c #4C3D25",
"p  c #523224",
"a  c #5A3627",
"s  c #553926",
"d  c #5D3728",
"f  c #5D3928",
"g  c #653C2B",
"h  c #693F2D",
"j  c #2E401E",
"k  c #30421F",
"l  c #324520",
"z  c #394422",
"x  c #354A22",
"c  c #3C4E24",
"v  c #375123",
"b  c #3B5325",
"n  c #3E5927",
"m  c #3F5B28",
"M  c #434124",
"N  c #4C4627",
"B  c #414E25",
"V  c #4A4B27",
"C  c #4D4C28",
"Z  c #544629",
"A  c #5C452A",
"S  c #534D2A",
"D  c #5B4C2C",
"F  c #435126",
"G  c #485027",
"H  c #445728",
"J  c #4A5329",
"K  c #425C29",
"L  c #4A5A2B",
"P  c #53532C",
"I  c #5D512E",
"U  c #545C2E",
"Y  c #5C582F",
"T  c #5D5D31",
"R  c #63422C",
"E  c #6C422E",
"W  c #654E2F",
"Q  c #62522F",
"!  c #6B4A30",
"~  c #744531",
"^  c #7C4A34",
"/  c #7A4C34",
"(  c #655130",
")  c #6E5032",
"_  c #615B31",
"`  c #605F32",
"'  c #6C5833",
"]  c #725233",
"[  c #785134",
"{  c #46652C",
"}  c #48662D",
"|  c #47692E",
" . c #49682E",
".. c #50642F",
"X. c #4D6C30",
"o. c #526530",
"O. c #5F6032",
"+. c #834F37",
/* pixels */
"                                                                                                                                ",
"                                                                                                                                ",
"                                                                                                                                ",
"                                                                                                                                ",
"                                          X X X X X X X X X X X X X X X X X X                                                   ",
"                                        X X X X X X X X X X X X X X X X X X X X                                                 ",
"                                        O O O O O O O # O O O O O O O O O O O O                                                 ",
"                                      # * = - - - : : : : : : : : : - - - - = * @                                               ",
"                                  X o $ - 5 e r r u p p p p p p p p u r r e 5 - $ o X                                           ",
"                                X X O = 5 p f g h E E E E E E E E E E h g f p 5 = O X X                                         ",
"                                o O $ : r f E ~ ^ ^ ^ ^ ^ ^ ^ ^ ^ ^ ^ ^ ~ E f r : $ O o                                         ",
"                              O $ = : e p h ~ ^ ^ +.+.+.+.+.+.+.+.+.+.^ ^ ~ h p e : - * O                                       ",
"          X X X X X X X X X o $ - 5 r p g ~ ^ ^ ^ +.+.+.+.+.+.+.+.+.+.+.^ ^ ~ g p r 5 ; * o X X X X X X X X X                   ",
"        X X X X X X X X X X O = 5 p f h ~ ^ ^ ^ ^ ^ ^ ^ ^ ^ ^ ^ ^ ^ ^ ^ ^ ^ ^ ~ h f p 5 = O X X X X X X X X X X                 ",
"        X X X o o o + + + # & 4 r f E ~ ^ ^ ^ ^ ^ ^ ^ ^ ^ ^ ^ ^ ^ ^ ^ ^ ^ ^ ^ ^ ^ R f y 1 & + + + + o o o X X X                 ",
"        X X o + # % > > > , 3 q s E ~ ^ ^ +.+.+.+.+.+.+.+.+.+.+.+.+.+.+.+.^ ^ ^ ) W D M 0 2 , > > > % # + o X X                 ",
"        X X o # > 7 9 9 j l z N R ^ ^ +.+.+.+.+.+.+.+.+.+.+.+.+.+.+.+.+.+.^ ^ ] ) T U J c l l 9 9 9 7 > # o X X                 ",
"        X X o % < 9 x b b K L P ( ^ ^ ^ ^ ^ ^ ^ ^ ^ ^ ^ ^ ^ ^ ^ ^ ^ ^ ^ ^ ^ ^ ) _ o.} } K K K b c x 9 < % o X X                 ",
"        X X + % < 9 x b K { } T ( ) ^ ^ ^ ^ ^ ^ ^ ^ ^ ^ ^ ^ ^ ^ ^ ^ ^ ^ ^ ^ [ ) T o. . . .} { K b x 9 < % + X X                 ",
"          X o % > 7 9 x b K } U Y Q W W W W W W W W W W W W W W W W ! ! ^ ^ [ ) O.o. . .| { K b x 9 7 , % + X                   ",
"              # % > , 9 x b K L J P S S S S S S S S S S S S S S P S D W ^ ^ ] ' O.o. .| { K b l 9 < > % #                       ",
"                o + # , 9 x b F F F F F F F F F F F F F F F F F F F J D ! ^ ] ) _ o.} { K b x 9 , # + o                         ",
"                X X + % 7 9 x c c b b b b b b b b b b b b b b b b b F S W ^ ^ ) T o.} { K F z 8 & o X X                         ",
"                  X o # > 7 9 j x x b b b v v v v v v b b b b v v v B S W ! ^ ) T o.} } L V M 3 & o X X                         ",
"                      + # % , 7 j x b b b b v v v v b b b b b b v b B V A E ! ( T o.} U P S i 6 = o X X                         ",
"                        o + # > 9 x b b b b b b b b b b b b b b b b B C A R R I U ..} U I A s e = O X X                         ",
"                        X X o % < 9 x c b b b b b b b c x x x x x b F V S A A D U } } U D R a w - O X X                         ",
"                        X X o + & < 9 k x b K K K K b x j 9 9 j x b H J V S S V J K L P D R a w - O X X                         ",
"                        X X X o + % > 8 x b { } } { n l 7 > > 7 l b K L J C C B F F H P D R a w - O X X                         ",
"                        X X X X o + % 7 l K }  .X.} K l < % % < l K { } K F c b b b F V D R a e - O X X                         ",
"                        X X X o o + & 7 x K  .X.X. .K x 7 & & 7 x K } { K b b b c B B S A R a e - O X X                         ",
"                        X X o + # > 7 j b {  .X.X.X.{ b 9 7 7 9 b { } { K b b c B C C A R R d e - O X X                         ",
"                        X X o % < 9 x b K } X.X.X.X.} K c x x b K } } { m b b B C Z A R E E f e - O X X                         ",
"                        X X + > 9 b K { } }  .X.X. .} } K K K { } } } { m b c B Z A R E E g a e - O X X                         ",
"                        X X + , l K  .X.X. . . . . . . . . . . . . .} { m b B C Z R g g g d p 5 = O X X                         ",
"                        X X # , l K X.X.X. . . . . . .X.X.X.X.X.X. .} { m b B C A g g d p r 5 : * O X                           ",
"                        X X + , l K X.X.X. . . . . . . .X.X.X.X.X. .} { m b B C A g g t w : - * @                               ",
"                        X X + , l K  .X.X. . . . . . . . . . .X. . .} { m b B C A R f r : $ O o                                 ",
"                        X X + , l K  .X.X. . . . . . . . . . . . .} { K n b F C S A s e - O X X                                 ",
"                        X X + , l K  .X.X.X.X.X.X.X.X.X.X.X.X. .} { { K n b F G S S i 6 = o X X                                 ",
"                        X X + , l K  .X.X.X.X.X.X.X.X.X.X.X.X.} { K K n b b b F J C M 0 & o X X                                 ",
"                        X X + , l K  .X.X. . . . . . . . . .} { K b b b b b b b F c z 8 > + X X                                 ",
"                        X X + , l K } } { K K K K K K K K K K b c x l l l l l x x l 9 < % o X X                                 ",
"                        X X + > j b K K b x l l k l l l l l k 9 9 7 7 7 7 7 7 7 7 7 < > # o X X                                 ",
"                        X X + > 9 b b x 9 7 , , > , , , , , , > > > > > > > > > > > % # o o X X                                 ",
"                        X X + > 9 x x 9 < % # + + + + + # + + + + o + o + + + + + o o o o X X X                                 ",
"                        X X o % 7 9 9 7 > + X X X X X X X X X X X X X X X X X X X X X X X X X X                                 ",
"                        X X o # > < < > # o X X X X X X X X X X X X X X X X X X X X X X X X X X                                 ",
"                      X X X o o # # # # + X X X X X X X X X X X X X X X X X X X X X X X X X X                                   ",
"                      X X X X X o o o o . X                                                                                     ",
"                      X X X X X X X X X X                                                                                       ",
"                      X X X X X X X X X                                                                                         ",
"                        X X X X X X X                                                                                           ",
"                                                                                                                                ",
"                                                                                                                                ",
"                                                                                                                                ",
"                                                                                                                                ",
"                                                                                                                                ",
"                                                                                                                                ",
"                                                                                                                                ",
"                                                                                                                                ",
"                                                                                                                                ",
"                                                                                                                                ",
"                                                                                                                                "
};
