/* XPM */
static char *big_knight_idle_anim_f5[] = {
/* columns rows colors chars-per-pixel */
"64 64 7 1 ",
"  c None",
". c #060608",
"X c #AC3232",
"o c #DF7126",
"O c #847E87",
"+ c #9BADB7",
"@ c white",
/* pixels */
"                            ....                                ",
"                            ....                                ",
"                            ....                                ",
"                            ....                                ",
"                    ........XXXX....                            ",
"                    ........XXXX....                            ",
"                    ........XXXX....                            ",
"                    ........XXXX....                            ",
"                    ....XXXXOOOO................                ",
"                    ....XXXXOOOO................                ",
"                    ....XXXXOOOO................                ",
"                    ....XXXXOOOO................                ",
"                    ....OOOOOOOO++++++++++++++++....            ",
"                    ....OOOOOOOO++++++++++++++++....            ",
"                    ....OOOOOOOO++++++++++++++++....            ",
"                    ....OOOOOOOO++++++++++++++++....            ",
"                ....OOOO++++++++++++++++++++++++....            ",
"                ....OOOO++++++++++++++++++++++++....            ",
"                ....OOOO++++++++++++++++++++++++....            ",
"                ....OOOO++++++++++++++++++++++++....            ",
"                ....++++++++++++++++++++++++++++....            ",
"                ....++++++++++++++++++++++++++++....            ",
"                ....++++++++++++++++++++++++++++....            ",
"                ....++++++++++++++++++++++++++++....            ",
"                ....++++++++@@@@@@@@@@@@@@@@@@@@....            ",
"                ....++++++++@@@@@@@@@@@@@@@@@@@@....            ",
"                ....++++++++@@@@@@@@@@@@@@@@@@@@....            ",
"                ....++++++++@@@@@@@@@@@@@@@@@@@@....            ",
"                ....OOOO++++@@@@....................            ",
"                ....OOOO++++@@@@....................            ",
"                ....OOOO++++@@@@....................            ",
"                ....OOOO++++@@@@....................            ",
"                ........OOOO@@@@@@@@@@@@....@@@@....            ",
"                ........OOOO@@@@@@@@@@@@....@@@@....            ",
"                ........OOOO@@@@@@@@@@@@....@@@@....            ",
"                ........OOOO@@@@@@@@@@@@....@@@@....            ",
"                    ....XXXXXXXXXXXXXXXXooooXXXX....            ",
"                    ....XXXXXXXXXXXXXXXXooooXXXX....            ",
"                    ....XXXXXXXXXXXXXXXXooooXXXX....            ",
"                    ....XXXXXXXXXXXXXXXXooooXXXX....            ",
"                XXXX....OOOOOOOOOOOOOOOOOOOOOOOO....            ",
"                XXXX....OOOOOOOOOOOOOOOOOOOOOOOO....            ",
"                XXXX....OOOOOOOOOOOOOOOOOOOOOOOO....            ",
"                XXXX....OOOOOOOOOOOOOOOOOOOOOOOO....            ",
"                XXXX....OOOOOOOO............OOOO....            ",
"                XXXX....OOOOOOOO............OOOO....            ",
"                XXXX....OOOOOOOO............OOOO....            ",
"                XXXX....OOOOOOOO............OOOO....            ",
"            XXXXXXXX....OOOO....XXXX....OOOO....                ",
"            XXXXXXXX....OOOO....XXXX....OOOO....                ",
"            XXXXXXXX....OOOO....XXXX....OOOO....                ",
"            XXXXXXXX....OOOO....XXXX....OOOO....                ",
"                    ........        ........                    ",
"                    ........        ........                    ",
"                    ........        ........                    ",
"                    ........        ........                    ",
"                                                                ",
"                                                                ",
"                                                                ",
"                                                                ",
"                                                                ",
"                                                                ",
"                                                                ",
"                                                                "
};
