/* XPM */
static char *big_knight_run_anim_f4[] = {
/* columns rows colors chars-per-pixel */
"64 64 7 1 ",
"  c None",
". c #060608",
"X c #AC3232",
"o c #DF7126",
"O c #847E87",
"+ c #9BADB7",
"@ c white",
/* pixels */
"                            ....                                ",
"                            ....                                ",
"                            ....                                ",
"                            ....                                ",
"                    ........XXXX....                            ",
"                    ........XXXX....                            ",
"                    ........XXXX....                            ",
"                    ........XXXX....                            ",
"                    ....XXXXOOOO................                ",
"                    ....XXXXOOOO................                ",
"                    ....XXXXOOOO................                ",
"                    ....XXXXOOOO................                ",
"                    ....OOOOOOOO++++++++++++++++....            ",
"                    ....OOOOOOOO++++++++++++++++....            ",
"                    ....OOOOOOOO++++++++++++++++....            ",
"                    ....OOOOOOOO++++++++++++++++....            ",
"                ....OOOO++++@@@@@@@@@@@@@@@@@@@@....            ",
"                ....OOOO++++@@@@@@@@@@@@@@@@@@@@....            ",
"                ....OOOO++++@@@@@@@@@@@@@@@@@@@@....            ",
"                ....OOOO++++@@@@@@@@@@@@@@@@@@@@....            ",
"                ....++++++++@@@@....................            ",
"                ....++++++++@@@@....................            ",
"                ....++++++++@@@@....................            ",
"                ....++++++++@@@@....................            ",
"                ....++++++++@@@@@@@@@@@@....@@@@....            ",
"                ....++++++++@@@@@@@@@@@@....@@@@....            ",
"                ....++++++++@@@@@@@@@@@@....@@@@....            ",
"                ....++++++++@@@@@@@@@@@@....@@@@....            ",
"                ....OOOO++++++++++++@@@@@@@@@@@@....            ",
"                ....OOOO++++++++++++@@@@@@@@@@@@....            ",
"                ....OOOO++++++++++++@@@@@@@@@@@@....            ",
"                ....OOOO++++++++++++@@@@@@@@@@@@....            ",
"                    ....OOOOOOOOXXXXXXXXooooXXXX....            ",
"                    ....OOOOOOOOXXXXXXXXooooXXXX....            ",
"                    ....OOOOOOOOXXXXXXXXooooXXXX....            ",
"                    ....OOOOOOOOXXXXXXXXooooXXXX....            ",
"                    ....XXXXXXXXOOOOOOOOOOOOOOOO....            ",
"                    ....XXXXXXXXOOOOOOOOOOOOOOOO....            ",
"                    ....XXXXXXXXOOOOOOOOOOOOOOOO....            ",
"                    ....XXXXXXXXOOOOOOOOOOOOOOOO....            ",
"                XXXX....OOOOOOOOOOOOOOOOOOOOOOOO....            ",
"                XXXX....OOOOOOOOOOOOOOOOOOOOOOOO....            ",
"                XXXX....OOOOOOOOOOOOOOOOOOOOOOOO....            ",
"                XXXX....OOOOOOOOOOOOOOOOOOOOOOOO....            ",
"            XXXXXXXX....OOOOOOOO++++++++++++++++....            ",
"            XXXXXXXX....OOOOOOOO++++++++++++++++....            ",
"            XXXXXXXX....OOOOOOOO++++++++++++++++....            ",
"            XXXXXXXX....OOOOOOOO++++++++++++++++....            ",
"        XXXXXXXXXXXXXXXX........................                ",
"        XXXXXXXXXXXXXXXX........................                ",
"        XXXXXXXXXXXXXXXX........................                ",
"        XXXXXXXXXXXXXXXX........................                ",
"                                                                ",
"                                                                ",
"                                                                ",
"                                                                ",
"                                                                ",
"                                                                ",
"                                                                ",
"                                                                ",
"                                                                ",
"                                                                ",
"                                                                ",
"                                                                "
};
