/* XPM */
static char *revbig_knight_idle_anim_f0[] = {
/* columns rows colors chars-per-pixel */
"64 64 7 1 ",
"  c None",
". c #060608",
"X c #AC3232",
"o c #DF7126",
"O c #847E87",
"+ c #9BADB7",
"@ c white",
/* pixels */
"                                ............                    ",
"                                ............                    ",
"                                ............                    ",
"                                ............                    ",
"                            ....XXXXXXXX....                    ",
"                            ....XXXXXXXX....                    ",
"                            ....XXXXXXXX....                    ",
"                            ....XXXXXXXX....                    ",
"                ................OOOO....                        ",
"                ................OOOO....                        ",
"                ................OOOO....                        ",
"                ................OOOO....                        ",
"            ....++++++++++++++++OOOOOOOO....                    ",
"            ....++++++++++++++++OOOOOOOO....                    ",
"            ....++++++++++++++++OOOOOOOO....                    ",
"            ....++++++++++++++++OOOOOOOO....                    ",
"            ....++++++++++++++++++++++++OOOO....                ",
"            ....++++++++++++++++++++++++OOOO....                ",
"            ....++++++++++++++++++++++++OOOO....                ",
"            ....++++++++++++++++++++++++OOOO....                ",
"            ....@@@@@@@@@@@@@@@@@@@@++++++++....                ",
"            ....@@@@@@@@@@@@@@@@@@@@++++++++....                ",
"            ....@@@@@@@@@@@@@@@@@@@@++++++++....                ",
"            ....@@@@@@@@@@@@@@@@@@@@++++++++....                ",
"            ....................@@@@++++++++....                ",
"            ....................@@@@++++++++....                ",
"            ....................@@@@++++++++....                ",
"            ....................@@@@++++++++....                ",
"            ....@@@@....@@@@@@@@@@@@++++OOOO....                ",
"            ....@@@@....@@@@@@@@@@@@++++OOOO....                ",
"            ....@@@@....@@@@@@@@@@@@++++OOOO....                ",
"            ....@@@@....@@@@@@@@@@@@++++OOOO....                ",
"            ....XXXXooooXXXXXXXXOOOOOOOO........                ",
"            ....XXXXooooXXXXXXXXOOOOOOOO........                ",
"            ....XXXXooooXXXXXXXXOOOOOOOO........                ",
"            ....XXXXooooXXXXXXXXOOOOOOOO........                ",
"            ....OOOOOOOOOOOOOOOOXXXXXXXX....                    ",
"            ....OOOOOOOOOOOOOOOOXXXXXXXX....                    ",
"            ....OOOOOOOOOOOOOOOOXXXXXXXX....                    ",
"            ....OOOOOOOOOOOOOOOOXXXXXXXX....                    ",
"            ....++++++++++++++++OOOOOOOO....XXXX                ",
"            ....++++++++++++++++OOOOOOOO....XXXX                ",
"            ....++++++++++++++++OOOOOOOO....XXXX                ",
"            ....++++++++++++++++OOOOOOOO....XXXX                ",
"            ....OOOO............OOOOOOOO....XXXXXXXX            ",
"            ....OOOO............OOOOOOOO....XXXXXXXX            ",
"            ....OOOO............OOOOOOOO....XXXXXXXX            ",
"            ....OOOO............OOOOOOOO....XXXXXXXX            ",
"                ....OOOO....XXXX....OOOO....XXXXXXXX            ",
"                ....OOOO....XXXX....OOOO....XXXXXXXX            ",
"                ....OOOO....XXXX....OOOO....XXXXXXXX            ",
"                ....OOOO....XXXX....OOOO....XXXXXXXX            ",
"                    ........        ........                    ",
"                    ........        ........                    ",
"                    ........        ........                    ",
"                    ........        ........                    ",
"                                                                ",
"                                                                ",
"                                                                ",
"                                                                ",
"                                                                ",
"                                                                ",
"                                                                ",
"                                                                "
};
