/* XPM */
static char *revbig_knight_run_anim_f5[] = {
/* columns rows colors chars-per-pixel */
"64 64 9 1 ",
"  c None",
". c #040406",
"X c #060608",
"o c #565258",
"O c #AC3232",
"+ c #DF7126",
"@ c #847E87",
"# c #9BADB7",
"$ c white",
/* pixels */
"                                                                ",
"                                                                ",
"                                                                ",
"                                                                ",
"                                XXXX                            ",
"                                XXXX                            ",
"                                XXXX                            ",
"                                XXXX                            ",
"                            XXXXOOOOXXXXXXXX                    ",
"                            XXXXOOOOXXXXXXXX                    ",
"                            XXXXOOOOXXXXXXXX                    ",
"                            XXXXOOOOXXXXXXXX                    ",
"                XXXXXXXXXXXXXXXX@@@@OOOOXXXX                    ",
"                XXXXXXXXXXXXXXXX@@@@OOOOXXXX                    ",
"                XXXXXXXXXXXXXXXX@@@@OOOOXXXX                    ",
"                XXXXXXXXXXXXXXXX@@@@OOOOXXXX                    ",
"            XXXX################@@@@@@@@XXXX                    ",
"            XXXX################@@@@@@@@XXXX                    ",
"            XXXX################@@@@@@@@XXXX                    ",
"            XXXX################@@@@@@@@XXXX                    ",
"            XXXX$$$$$$$$$$$$$$$$$$$$####@@@@XXXX                ",
"            XXXX$$$$$$$$$$$$$$$$$$$$####@@@@XXXX                ",
"            XXXX$$$$$$$$$$$$$$$$$$$$####@@@@XXXX                ",
"            XXXX$$$$$$$$$$$$$$$$$$$$####@@@@XXXX                ",
"            XXXXXXXXXXXXXXXXXXXX$$$$########XXXX                ",
"            XXXXXXXXXXXXXXXXXXXX$$$$########XXXX                ",
"            XXXXXXXXXXXXXXXXXXXX$$$$########XXXX                ",
"            XXXXXXXXXXXXXXXXXXXX$$$$########XXXX                ",
"            XXXX$$$$XXXX$$$$$$$$$$$$########XXXX                ",
"            XXXX$$$$XXXX$$$$$$$$$$$$########XXXX                ",
"            XXXX$$$$XXXX$$$$$$$$$$$$########XXXX                ",
"            XXXX$$$$XXXX$$$$$$$$$$$$########XXXX                ",
"            XXXX$$$$$$$$$$$$############@@@@XXXX                ",
"            XXXX$$$$$$$$$$$$############@@@@XXXX                ",
"            XXXX$$$$$$$$$$$$############@@@@XXXX                ",
"            XXXX$$$$$$$$$$$$############@@@@XXXX                ",
"            XXXXOOOO++++OOOOOOOO@@@@@@@@XXXX                    ",
"            XXXXOOOO++++OOOOOOOO@@@@@@@@XXXX                    ",
"            XXXXOOOO++++OOOOOOOO@@@@@@@@XXXX                    ",
"            XXXXOOOO++++OOOOOOOO@@@@@@@@XXXX                    ",
"            XXXX@@@@@@@@@@@@@@@@OOOOOOOOXXXXOOOOOOOO            ",
"            XXXX@@@@@@@@@@@@@@@@OOOOOOOOXXXXOOOOOOOO            ",
"            XXXX@@@@@@@@@@@@@@@@OOOOOOOOXXXXOOOOOOOO            ",
"            XXXX@@@@@@@@@@@@@@@@OOOOOOOOXXXXOOOOOOOO            ",
"            XXXX############@@@@@@@@@@@@XXXXOOOOOOOOOOOO        ",
"            XXXX############@@@@@@@@@@@@XXXXOOOOOOOOOOOO        ",
"            XXXX############@@@@@@@@@@@@XXXXOOOOOOOOOOOO        ",
"            XXXX############@@@@@@@@@@@@XXXXOOOOOOOOOOOO        ",
"                XXXXXXXXXXXX@@@@@@@@XXXX                        ",
"                XXXXXXXXXXXX@@@@@@@@XXXX                        ",
"                XXXXXXXXXXXX@@@@@@@@XXXX                        ",
"                XXXXXXXXXXXX@@@@@@@@XXXX                        ",
"                        ....ooooXXXX                            ",
"                        ....ooooXXXX                            ",
"                        ....ooooXXXX                            ",
"                        ....ooooXXXX                            ",
"                        ........                                ",
"                        ........                                ",
"                        ........                                ",
"                        ........                                ",
"                                                                ",
"                                                                ",
"                                                                ",
"                                                                "
};
