/* XPM */
static char *_639999353093[] = {
/* columns rows colors chars-per-pixel */
"16 16 8 1 ",
"  c #040406",
". c #060608",
"X c #AC3232",
"o c #DF7126",
"O c #847E87",
"+ c #9BADB7",
"@ c white",
"# c None",
/* pixels */
"#######.########",
"#####..X.#######",
"#####.XO....####",
"#####.OO++++.###",
"####.O+@@@@@.###",
"####.++@.....###",
"####.++@@@.@.###",
"####.O+++@@@.###",
"#####.OOXXoX.###",
"####X.XXOOOO.###",
"##XXX.OO++++O.##",
"###X.OO.....O.##",
"####...#####  ##",
"################",
"################",
"################"
};
