/* XPM */
static char *out2_0[] = {
/* columns rows colors chars-per-pixel */
"64 64 169 2 ",
"   c None",
".  c #000000",
"X  c #150B0C",
"o  c #1A0E0F",
"O  c #1C1111",
"+  c #17181A",
"@  c #141617",
"#  c #2A1615",
"$  c #241C1D",
"%  c #2D1817",
"&  c #311B1A",
"*  c #1C1E20",
"=  c #2C2C2E",
"-  c #27282A",
";  c #372A29",
":  c #2E2F31",
">  c #2F3031",
",  c #343436",
"<  c #3C3B3C",
"1  c #45231F",
"2  c #452421",
"3  c #482623",
"4  c #442826",
"5  c #4D2926",
"6  c #4A2E2C",
"7  c #522B26",
"8  c #532D29",
"9  c #582E2A",
"0  c #582D27",
"q  c #4D302E",
"w  c #5D322D",
"e  c #433B3B",
"r  c #4D373C",
"t  c #563637",
"y  c #60342F",
"u  c #623530",
"i  c #683732",
"p  c #663934",
"a  c #6C3A35",
"s  c #703C37",
"d  c #723D38",
"f  c #783E37",
"g  c #71413C",
"h  c #79413C",
"j  c #3F3F41",
"k  c #503B41",
"l  c #5D3F41",
"z  c #623F41",
"x  c #3E4042",
"c  c #434445",
"v  c #4D4D4E",
"b  c #5C4146",
"n  c #5F4348",
"m  c #4E4E5F",
"M  c #5A4952",
"N  c #555657",
"B  c #5B5C5C",
"V  c #644243",
"C  c #694547",
"Z  c #6C4945",
"A  c #6D4A4E",
"S  c #6A464A",
"D  c #744E4A",
"F  c #72514D",
"G  c #79514C",
"H  c #6E4C50",
"J  c #724F52",
"K  c #6E5457",
"L  c #765253",
"P  c #7C5653",
"I  c #7E5855",
"U  c #725A5F",
"Y  c #414D63",
"T  c #4F4F60",
"R  c #455168",
"E  c #49566D",
"W  c #525163",
"Q  c #5F5B6A",
"!  c #515468",
"~  c #4C5972",
"^  c #525E75",
"/  c #665D6E",
"(  c #546076",
")  c #566279",
"_  c #5A667B",
"`  c #5D6075",
"'  c #67676C",
"]  c #636379",
"[  c #616070",
"{  c #737373",
"}  c #787979",
"|  c #82463F",
" . c #824740",
".. c #8D4C45",
"X. c #904E47",
"o. c #9C554D",
"O. c #87595C",
"+. c #915F61",
"@. c #847775",
"#. c #8C7D7B",
"$. c #937E7C",
"%. c #5B6985",
"&. c #656A81",
"*. c #6C6D85",
"=. c #696F89",
"-. c #63718F",
";. c #6F728A",
":. c #74738A",
">. c #79768B",
",. c #7A798D",
"<. c #787483",
"1. c #637390",
"2. c #6E7C97",
"3. c #6E7E9F",
"4. c #737C94",
"5. c #6F7FA0",
"6. c #76839C",
"7. c #7B869D",
"8. c #6F80A1",
"9. c #7081A1",
"0. c #7C89A0",
"q. c #7E8CA9",
"w. c #848485",
"e. c #87858A",
"r. c #8D8D8D",
"t. c #998D8B",
"y. c #878290",
"u. c #8B8D97",
"i. c #908D9D",
"p. c #8F9090",
"a. c #939393",
"s. c #9E9392",
"d. c #929599",
"f. c #9B9B9B",
"g. c #A09594",
"h. c #838FA5",
"j. c #828FA9",
"k. c #8590A7",
"l. c #8794AF",
"z. c #8895AF",
"x. c #8F99AD",
"c. c #8C91A0",
"v. c #909AAE",
"b. c #8996B0",
"n. c #919DB6",
"m. c #919DB5",
"M. c #909BB0",
"N. c #9DA0A0",
"B. c #99A5BC",
"V. c #9BA6BD",
"C. c #9BA7BE",
"Z. c #9BA6BD",
"A. c #9DA8BF",
"S. c #9CA8BF",
"D. c #98A1B2",
"F. c #A2A2A2",
"G. c #AEAEAE",
"H. c #B0B0AF",
"J. c #B2B2B2",
"K. c #B9BABA",
"L. c #9CA9C0",
"P. c #A0ABC0",
"I. c #A1ACC1",
"U. c #A2ADC2",
"Y. c #C5C5C5",
"T. c #C9CACB",
"R. c #D6D6D6",
"E. c #E2E2E2",
"W. c #F3F3F3",
/* pixels */
"                                                                                                                                ",
"                                                                                                                                ",
"                                                                                                                                ",
"                                                                                                                                ",
"                                                                                                                                ",
"                                                                                                                                ",
"                                                                                                                                ",
"                                                                                                                                ",
"                                                    z.z.z.z.z.z.z.z.z.z.z.z.                                                    ",
"                                                    z.z.z.z.z.z.z.z.z.z.z.z.                                                    ",
"                                                    b.z.z.z.z.z.z.z.z.z.z.b.                                                    ",
"                                                    j.z.z.z.z.z.l.l.l.z.z.j.                                                    ",
"                            z.z.z.z.z.z.z.b.b.6.^ ) 7.b.b.l.l.l.z.z.z.b.b.7.) ^ 6.b.b.z.z.z.z.z.z.z.                            ",
"                            z.z.z.z.z.z.z.b.b.6.^ ( 0.n.n.n.n.n.n.n.n.n.n.0.( ^ 6.b.b.z.z.z.z.z.z.z.                            ",
"                            b.z.z.z.z.z.z.b.b.6.^ ) z.P.P.P.P.P.P.P.P.P.P.z.) ^ 6.b.b.z.z.z.z.z.z.b.                            ",
"                            j.z.z.z.z.z.l.b.b.6.^ ) h.B.B.B.B.B.B.B.B.B.B.h.) ^ 6.b.b.z.l.l.l.z.z.j.                            ",
"Y ( 6.b.b.z.z.z.z.b.b.6.^ ) 7.b.z.l.l.l.l.b.b.6.^ ^ 2.q.q.q.q.q.q.q.q.q.q.2.~ ^ 6.b.z.l.l.l.l.z.b.7.) ^ 6.b.b.z.z.z.z.b.b.6.( Y ",
"Y ( 6.b.b.z.z.z.z.b.b.6.^ ( 0.n.n.n.n.n.n.n.n.0.( ~ -.3.3.3.3.3.3.3.3.3.3.-.~ ( 0.n.n.n.n.n.n.n.n.0.( ^ 6.b.b.z.z.z.z.b.b.6.^ Y ",
"Y ( 6.b.b.z.z.z.z.b.b.6.^ ) z.P.P.P.P.P.P.P.P.z.) ~ -.5.3.3.3.3.3.3.3.3.5.-.~ ) z.P.P.P.P.P.P.P.P.z.) ^ 6.b.b.z.z.z.z.b.b.6.( Y ",
"Y ^ 6.b.b.l.z.z.z.b.b.6.^ ) h.B.B.B.B.B.B.B.B.h.) ~ 1.9.9.3.3.3.3.3.3.8.9.1.~ ) h.B.B.B.B.B.B.B.B.h.) ^ 6.b.b.z.z.z.z.b.b.6.( Y ",
"Y ^ 6.b.b.z.l.l.l.b.b.6.^ ~ 2.q.q.q.q.q.q.q.q.2.^ ~ 1.9.8.3.3.3.3.3.3.8.9.1.~ ^ 2.q.q.q.q.q.q.q.q.2.~ ^ 6.b.b.l.l.l.l.b.b.6.^ Y ",
"Y ) 0.n.n.n.n.n.n.n.n.0.( ~ -.5.3.3.3.3.3.3.3.1.~ ~ 1.9.9.8.8.8.8.8.8.9.9.1.~ ~ 1.5.3.3.3.3.3.3.3.-.~ ( 0.n.n.n.n.n.n.n.n.0.) Y ",
"Y ) z.P.P.P.P.P.P.P.P.z.) ~ 1.8.3.3.3.3.3.3.5.1.~ ~ 1.9.9.8.9.9.9.9.8.9.9.1.~ ~ 1.8.3.3.3.3.3.3.8.-.~ ) z.P.P.P.P.P.P.P.P.z.) Y ",
"Y ) h.B.B.B.B.B.B.B.B.k.) ~ 1.9.9.8.9.9.8.9.9.-.! T ` &.*.*.*.*.*.*.*.*.&.` m ! -.9.9.9.9.9.8.9.9.1.~ ) h.B.B.B.B.B.B.B.B.h.) Y ",
"Y ^ 2.q.q.q.q.q.q.q.q.3.~ ~ 1.9.9.8.9.9.8.9.9.=.M t r k b n n n n n n b k r t M =.9.9.8.9.9.8.9.9.1.~ ~ 3.q.q.q.q.q.q.q.q.2.^ Y ",
"Y ~ 1.5.3.3.3.3.3.3.5.-.W T ] *.*.*.&.&.*.*.*./ l 7 1 2 7 9 9 9 9 9 9 7 2 1 7 l / *.*.*.&.&.*.*.*.] T ! -.5.3.3.3.3.3.3.3.1.~ Y ",
"Y ~ 1.8.3.3.3.3.3.5.8.*.M t l n n b k k b n n l w 7 2 2 7 9 9 9 9 9 9 7 2 2 7 w l n n b k k b n n l t M *.8.5.3.3.3.3.3.5.1.~ Y ",
"Y ~ 1.9.9.9.9.9.9.9.9.*.b 0 9 9 9 7 1 2 8 w w w w w 5 5 w w w w w w w 9 5 5 w w w w w 8 2 2 7 9 9 9 9 b *.9.9.9.9.9.9.9.9.1.~ Y ",
"Y ~ 1.9.9.9.9.9.9.9.9.*.b 9 9 9 9 7 2 3 w a a a a u w w u a a a a a a u w w u a a i a w 3 2 7 9 9 9 9 b *.9.9.9.9.9.9.9.9.1.~ Y ",
"Y E %.1.1.-.-.-.-.1.1.] b w w w w 8 5 8 u a a a a a y y a a a a a a a a u u a a a a a u 7 5 9 w w w w b ] 1.1.1.1.1.1.1.1.%.E Y ",
"Y R E ~ ~ ~ ~ ~ ~ ~ ~ W z i i u u y w w p a a a a a y y a s s s a s s a u u a a a a a p w w u a a a a V W ~ ~ ~ ~ ~ ~ ~ ~ E R Y ",
"Y E ( ) ) ) ) ) ) ) ) [ K D D G P D p y a a a a a a u w 8 8 8 8 8 8 8 5 2 5 u a a a a a y y a a a a a C Q ) ) ) ) ) ) ) ) ( E Y ",
"Y ( 7.v.v.x.x.x.x.x.x.c.w.@.@.#.t.#.Z w i a a a a a u 5 % o o o o o o X X # w s a a a a y y a a a a a L y.n.x.x.x.x.x.v.v.7.( Y ",
"Y ) k.L.A.B.B.B.B.B.B.D.d.p.a.N.G.s.G w u a a a s u 8 ; $ + = : : , x c c e q 9 a a a a y y a a a a a P i.L.A.B.B.B.B.A.A.k.) Y ",
"Y ^ 3.q.q.q.q.q.q.q.q.h.u.a.F.G.J.s.G w u a a a s w % $ , N } r.e.d.K.T.T.f.e # 9 s a a w y a a a a a J ,.q.q.q.q.q.q.q.q.3.^ Y ",
"Y ~ 1.5.3.3.3.3.3.3.3.4.<.#.t.g.g.#.Z w i a a a w 4 $ : B } w.r.e.f.K.R.R.K.' e q w a a y w a a a a a A *.5.5.3.3.3.3.3.5.1.~ Y ",
"Y ~ 1.8.3.3.3.3.3.5.5.:.U G P I P D p w a a a w & $ < B r.w.v = : , j N { f.K.f.e % 9 a u w a a a a a A *.8.8.3.3.3.3.3.5.1.~ Y ",
"Y ~ 1.9.9.3.3.3.3.8.8.*.A i a a a u w w a a s 8 o @ c { F.w.= . . . . @ < w.E.T.x X 7 a u w a a a a a A *.8.8.3.3.3.3.9.9.1.~ Y ",
"Y ~ 1.9.9.3.3.3.3.8.8.*.A a a a a i y y a s s 8 o @ c { N.w.= . . . . @ < w.E.T.x X 7 a u y a a a a a H *.8.8.3.3.3.3.9.9.1.~ Y ",
"Y ~ 1.9.9.9.9.9.9.9.9.*.A a a a a a y y a a w 4 $ = B w.F.a.v = = = = < B a.R.Y.' e q 8 w y a g G G g A *.9.9.9.9.9.9.9.9.1.~ Y ",
"Y ~ 1.9.9.9.9.9.9.9.9.;.H a a a a a w u a w & $ < B w.F.G.F.r.w.w.w.w.r.a.F.K.Y.Y.f.e # 5 y i G $.$.G A *.9.9.9.9.9.9.9.9.1.~ Y ",
"Y E %.1.1.1.1.1.1.1.1.] A a a a a a w u a 8 O + c { f.J.G.G.J.J.J.J.J.J.J.G.G.Y.W.T.c X 2 y i I g.g.I S ] 1.1.-.1.1.1.1.1.%.E Y ",
"Y R E ~ ~ ~ ~ ~ ~ ~ ~ W V a a a a a w u a 8 O + c { f.J.G.G.G.J.J.J.J.J.H.G.G.Y.W.Y.c X 2 y i I g.g.I z T ~ ~ ~ ~ ~ ~ ~ ~ E R Y ",
"Y E ( ) ) ) ) ) ) ) ) Q C a a a a a w u a 8 O + c { f.G.G.G.G.F.r.w.w.r.F.G.G.Y.W.Y.c X 2 y i I g.g.P V Q ) ) ) ) ) ) ) ) ( E Y ",
"Y ( 7.v.v.x.x.x.x.v.n.y.L a a a a a y u a 8 O + c { f.G.G.G.J.r.v = = v r.G.G.Y.W.Y.c X 2 y i I s.s.P J e.n.x.x.x.x.x.v.v.7.( Y ",
"Y ) k.L.A.B.B.B.B.A.L.i.P a a a a a y u a 8 O + c { f.G.G.H.J.w.= . . = w.J.G.K.E.J.< X 2 y i I s.s.P L i.L.A.B.B.B.B.A.A.k.) Y ",
"Y ^ 3.q.q.q.q.q.q.q.q.,.J a a a a a y u a 8 O + c { f.G.G.G.J.w.= . . = w.J.G.J.Y.a., X 2 y i I s.s.P D >.q.q.q.q.q.q.q.q.3.^ Y ",
"Y ~ 1.5.3.3.3.3.3.5.5.*.A a a a a a y u a 8 O + c { f.G.G.H.J.w.= . . = w.J.J.G.G.w.= X 2 y i I g.g.P A *.5.5.3.3.3.3.3.5.1.~ Y ",
"Y ~ 1.8.3.3.3.3.3.5.8.*.H a a a a a y u a 8 O + c { f.G.G.J.J.w.= . . = w.J.J.G.J.w.= X 2 y i I g.g.P A *.8.5.3.3.3.3.3.5.1.~ Y ",
"Y ~ 1.9.9.3.3.3.3.8.8.*.A a a a a a y u a 8 O + c { f.G.G.G.J.r.v = = v r.J.G.H.J.w.= X 2 y a G $.$.G A *.8.8.3.3.3.3.9.9.1.~ Y ",
"Y ~ 1.9.9.3.3.3.3.8.9.*.A a a a a a y u a 8 O + c { f.G.G.G.G.F.r.w.w.r.F.G.G.H.J.w.: X 2 u a g G G g A *.8.8.3.3.3.3.9.9.1.~ Y ",
"Y ~ 1.9.9.9.9.9.9.9.9.*.H a a a a a y u a 8 O + c { f.J.J.G.H.J.J.J.J.J.J.G.G.J.J.w.= X 2 u a a a a a H *.9.9.9.9.9.9.9.9.1.~ Y ",
"Y ~ 1.9.9.9.9.9.9.9.9.;.H a a a a a y u a 8 O + c { f.J.J.J.J.J.J.J.J.J.J.J.J.J.J.w.= X 2 u a a a a a H ;.9.9.9.9.9.9.9.9.1.~ Y ",
"Y E %.1.1.1.1.1.1.1.1.] S a a a a a w u a w & $ < N { w.w.w.w.w.w.w.w.w.w.w.w.w.w.' ; % 5 u a a a a a A ] 1.1.1.1.1.1.1.1.%.E Y ",
"Y R E ~ ~ ~ ~ ~ ~ ~ ~ W V a a a a u w y a a w 4 $ * - = = = = = = = = = = = = = = ; 7 8 w y a a a a a V W ~ ~ ~ ~ ~ ~ ~ ~ E R Y ",
"Y E ( ) ) ) ) ) ) ) ) [ K D D G P D p w a a s w & o X o o o o o o o o o o o o o o % w a u y a a a a a C Q ) ) ) ) ) ) ) ) ( E Y ",
"Y ( 7.v.v.x.x.x.x.x.x.c.w.@.@.#.t.#.Z w a a a a w 7 3 3 5 8 8 8 8 8 8 5 3 3 5 8 8 w a a y y a a a a a L y.n.x.x.x.x.x.v.v.7.( Y ",
"Y ) k.L.A.B.B.B.B.B.B.D.d.p.a.N.G.s.G w i a a a s a u u a s s s s s s a u u a s s a a a y y a a a a a P i.L.A.B.B.B.B.A.A.k.) Y ",
"Y ^ 3.j.q.q.q.q.q.q.q.h.u.a.F.G.J.s.G w i a a a a a u u a a a a a a a a u u a a a a a a y y a a a a a J ,.q.q.q.q.q.q.q.q.3.^ Y ",
"Y ~ 1.5.3.3.3.3.3.3.3.4.} #.t.s.s.#.Z w u a a a a a y w a a a a a a a a w w a a a a a a w w a a a a a A *.5.3.3.3.3.3.3.3.1.~ Y ",
"Y ~ 1.8.3.3.3.3.3.5.5.;.U D G P P D p w a a a a a a w w a a a a a a a a y y a a a a a a w w a a a a a A *.8.5.3.3.3.3.3.5.1.~ Y ",
"Y ~ 1.9.9.3.3.3.3.8.8.;.J f s s s s y u s h h h h s u u s h h h h h h s u u s h h h h s u u s h h h h L ;.8.8.3.3.3.3.9.9.1.~ Y ",
"Y ~ 1.9.9.3.3.3.3.8.8.:.O.X.......| p p  .X.X.X.X. .p p  .X.X.....X.X. .p p  .X.X.X.X. .p p  .X.X.X.X.O.:.8.5.3.3.3.3.9.9.1.~ Y ",
"Y ~ 1.9.9.3.3.3.3.8.8.>.+.o.o.o.o...a a ..o.o.o.o...a a ..o.o.o.o.o.o...a a ..o.o.o.o...a a ..o.o.o.o.+.>.8.5.3.3.3.3.9.9.1.~ Y "
};
