/* XPM */
static char *out2_5[] = {
/* columns rows colors chars-per-pixel */
"64 64 143 2 ",
"   c None",
".  c #45231F",
"X  c #452420",
"o  c #492622",
"O  c #4C2925",
"+  c #522B26",
"@  c #582D27",
"#  c #552D28",
"$  c #582E29",
"%  c #5E322D",
"&  c #4D373C",
"*  c #5B3432",
"=  c #513638",
"-  c #56393B",
";  c #60342F",
":  c #663631",
">  c #683732",
",  c #663934",
"<  c #6C3A35",
"1  c #743D37",
"2  c #783E37",
"3  c #723E38",
"4  c #71423E",
"5  c #79413C",
"6  c #503B41",
"7  c #5D3F41",
"8  c #623F41",
"9  c #5C4146",
"0  c #5F4348",
"q  c #4E4E5F",
"w  c #5A4952",
"e  c #644243",
"r  c #694547",
"t  c #6C4A46",
"y  c #6A464A",
"u  c #6D4A4E",
"i  c #744E4A",
"p  c #73504D",
"a  c #7A524E",
"s  c #6E4C50",
"d  c #724F52",
"f  c #6E5457",
"g  c #765253",
"h  c #7C5653",
"j  c #7E5855",
"k  c #725A5F",
"l  c #414D63",
"z  c #4F4F60",
"x  c #455168",
"c  c #49566D",
"v  c #525163",
"b  c #515468",
"n  c #5F5B6A",
"m  c #4C5972",
"M  c #525E75",
"N  c #665D6E",
"B  c #546076",
"V  c #5D6075",
"C  c #566279",
"Z  c #5A667B",
"A  c #61606F",
"S  c #616070",
"D  c #636379",
"F  c #82463F",
"G  c #824740",
"H  c #8D4C45",
"J  c #904E47",
"K  c #9C554D",
"L  c #87595B",
"P  c #885A5C",
"I  c #915F61",
"U  c #847775",
"Y  c #8C7D7B",
"T  c #927E7C",
"R  c #94817F",
"E  c #5B6985",
"W  c #656A81",
"Q  c #6C6D85",
"!  c #696F89",
"~  c #63718F",
"^  c #6F728A",
"/  c #717087",
"(  c #7E7980",
")  c #74738A",
"_  c #79768B",
"`  c #7A798D",
"'  c #637390",
"]  c #6E7C97",
"[  c #6E7E9F",
"{  c #737C94",
"}  c #6F7FA0",
"|  c #76839C",
" . c #7B869D",
".. c #6F80A1",
"X. c #7081A1",
"o. c #7C89A0",
"O. c #7E8CA9",
"+. c #878084",
"@. c #86818F",
"#. c #998D8B",
"$. c #878290",
"%. c #898E95",
"&. c #8F8B9B",
"*. c #908D9D",
"=. c #8F9090",
"-. c #939595",
";. c #9E9392",
":. c #90959A",
">. c #A09594",
",. c #838FA5",
"<. c #828FA9",
"1. c #8590A7",
"2. c #8C91A0",
"3. c #8794AF",
"4. c #8895AF",
"5. c #8F99AD",
"6. c #8F99AD",
"7. c #909AAE",
"8. c #909AAE",
"9. c #8895B0",
"0. c #8996B0",
"q. c #8A97B1",
"w. c #909CB5",
"e. c #919DB6",
"r. c #929EB6",
"t. c #929EB7",
"y. c #909BB0",
"u. c #9DA0A0",
"i. c #98A1B2",
"p. c #99A5BC",
"a. c #9BA6BD",
"s. c #9BA7BE",
"d. c #9BA6BD",
"f. c #9DA8BF",
"g. c #9CA8BF",
"h. c #A1A3A2",
"j. c #ABAEAE",
"k. c #ABAEAE",
"l. c #B0B3B3",
"z. c #9CA9C0",
"x. c #A0ABC0",
"c. c #A1ACC1",
"v. c #A2ADC2",
/* pixels */
"                                                                                                                                ",
"                                                                                                                                ",
"                                                                                                                                ",
"                                                                                                                                ",
"                                                                                                                                ",
"                                                                                                                                ",
"                                                                                                                                ",
"                                                                                                                                ",
"                                                    4.4.4.4.4.4.4.4.4.4.4.4.                                                    ",
"                                                    4.4.4.4.4.4.4.4.4.4.4.4.                                                    ",
"                                                    9.4.4.4.4.4.4.4.4.4.4.9.                                                    ",
"                                                    <.4.4.4.4.4.3.3.4.4.4.<.                                                    ",
"                            4.4.4.4.4.4.4.9.9.| M C  .9.9.3.3.3.4.4.4.9.9. .C M | 9.9.4.4.4.4.4.4.4.                            ",
"                            4.4.4.4.4.4.4.9.9.| M B o.e.e.e.e.e.e.e.e.e.e.o.B M | 9.9.4.4.4.4.4.4.4.                            ",
"                            9.4.4.4.4.4.4.9.9.| M C 4.x.x.x.x.x.x.x.x.x.x.4.C M | 9.9.4.4.4.4.4.4.9.                            ",
"                            <.4.4.4.4.4.3.9.9.| M C ,.p.p.p.p.p.p.p.p.p.p.,.C M | 9.9.4.3.3.3.4.4.<.                            ",
"l B | 9.9.4.4.4.4.9.9.| M C  .9.4.3.3.3.3.9.9.| M M ] O.O.O.O.O.O.O.O.O.O.] m M | 9.4.3.3.3.3.4.9. .C M | 9.9.4.4.4.4.9.9.| B l ",
"l B | 9.9.4.4.4.4.9.9.| M B o.e.e.e.e.e.e.e.e.o.B m ~ } [ [ [ [ [ [ [ [ [ ~ m B o.e.e.e.e.e.e.e.e.o.B M | 9.9.4.4.4.4.9.9.| M l ",
"l B | 9.9.4.4.4.4.9.9.| M C 4.x.x.x.x.x.x.x.x.4.C m ~ } [ [ [ [ [ [ [ [ } ~ m C 4.x.x.x.x.x.x.x.x.4.C M | 9.9.4.4.4.4.9.9.| B l ",
"l B | 9.9.3.4.4.4.9.9.| M C ,.p.p.p.p.p.p.p.p.,.C m ' X.X.[ [ [ [ [ [ ..X.' m C ,.p.p.p.p.p.p.p.p.,.C M | 9.9.4.4.4.4.9.9.| B l ",
"l B | 9.9.4.4.3.3.9.9.| M m ] O.O.O.O.O.O.O.O.] M m ' X...[ [ [ [ [ [ ..X.' m M ] O.O.O.O.O.O.O.O.] m M | 9.9.3.3.3.3.9.9.| M l ",
"l C o.e.e.e.e.e.e.e.e.o.B m ~ } [ [ [ [ [ [ [ ' m m ' X.X.............X.X.' m m ' } [ [ [ [ [ [ } ~ m B o.e.e.e.e.e.e.e.e.o.C l ",
"l C 4.x.x.x.x.x.x.x.x.4.C m ~ ..[ [ [ [ [ [ } ' m m ' X.X...X.X.X.X...X.X.' m m ' ..[ [ [ [ [ [ ..~ m C 4.x.x.x.x.x.x.x.x.4.C l ",
"l C ,.p.p.p.p.p.p.p.p.1.C m ' X.X...X.X...X.X.~ b z V W Q Q Q Q Q Q Q Q W V q b ~ X.X.X.X.X...X.X.' m C 1.p.p.p.p.p.p.p.p.,.C l ",
"l M ] O.O.O.O.O.O.O.O.[ m m ' X.X...X...X.X.X.^ w = & 6 9 0 0 0 0 0 0 9 6 & = w ! X.X...X.....X.X.' m m [ O.O.O.O.O.O.O.O.] M l ",
"l m ' } [ [ [ [ [ [ } ~ v z D Q Q Q W W Q Q Q N 7 + . X + $ $ $ $ $ $ + . . + 7 N Q Q Q W W Q Q Q D z v ~ } [ [ [ [ [ [ [ ' m l ",
"l m ' } [ [ [ [ [ } ..Q w - 7 0 0 9 6 6 9 0 0 7 * + X X + $ $ $ % % % # X X + * 7 0 0 9 6 6 9 0 0 7 - w Q ..} [ [ [ [ [ } ' m l ",
"l m ' X.X.X.X.X.X.X.X.Q 9 @ $ $ $ + X X # % % % % % O O % % % % * * : % O O % % % % % # X . + $ $ $ $ 9 Q X.X.X.X.X.X.X.X.' m l ",
"l m ' X.X.X.X.X.X.X.X.Q 9 $ # $ $ + X o % > > > > : % % : > > > > > > : % % : > > > > % o X # % $ $ $ 9 Q X.X.X.X.X.X.X.X.' m l ",
"l c E ' ' ~ ~ ~ ~ ' ' D 9 % % % % # O # : 3 3 3 > > : : > > > > > > > > : : > > > > > : # O % % % % % 9 D ' ' ' ' ' ' ' ' E c l ",
"l x c m m m m m m m m v 8 > > : : ; % % , > > > > > : : > > > > > > > > : : > > > > > , % % : > > > > e v m m m m m m m m c x l ",
"l c B C C C C C C C C A f i i a h i , ; > > > > > > : : > > > > > > > > : : > > > > > > ; ; > > > > > r n C C C C C C C C B c l ",
"l B  .8.8.5.5.5.5.5.5.2.+.U U Y #.Y t % > > > > > > ; : > 3 3 > > > > > : ; > > > > > > : : > > > > > g $.e.5.5.5.5.5.8.8. .B l ",
"l C 1.z.f.p.p.p.p.p.p.i.:.=.-.u.k.;.a % > > > > > > : : > 3 3 > > > > > : : > > > > > > : : > > > > > h *.z.z.p.p.p.p.f.f.1.C l ",
"l M [ O.O.O.O.O.O.O.O.,.%.-.h.k.l.;.a % > > > > > > : : > 3 > > 3 3 > > % ; > > > > > > : : > > > > > d ` <.<.O.O.O.O.O.O.[ M l ",
"l m ' } [ [ [ [ [ [ [ { ( Y #.>.>.Y t % : 4 a a 4 > ; : > 3 > > 3 > > > % % , 4 a a 4 > % : > > > > > u Q X...[ [ [ [ [ } ' m l ",
"l m ' ..[ [ [ [ [ ....) k a h j j i , % > a +.+.a : % ; > > > > 3 3 > > : ; : a R +.a > % : > > > > > u Q ....[ [ [ [ [ } ' m l ",
"l m ' X.X.[ [ [ [ X.X.Q u > > > > > ; ; > h +.+.a : % : > > > > > 3 > > : ; > a R +.a > % : > > > > > s Q ....[ [ [ [ X.X.' m l ",
"l m ' X.X.[ [ [ [ X.X.Q u > > > > > ; ; > 4 a a 4 > % : > > > > > > > > : : > 4 a a 4 > % % > > > > > s Q ....[ [ [ [ X.X.' m l ",
"l m ' X.X.X.X.X.X.X.X.Q s > > > 1 > ; ; > > > > > > % ; > > > > > > > > : : > > > > > > ; % > 4 a a 4 u Q X.X.X.X.X.X.X.X.' m l ",
"l m ' X.X.X.X.X.X.X.X./ s > > > > > ; ; > > > > > > : : > > > > > > > > : : > > > > > > : ; > a T T a u Q X.X.X.X.X.X.X.X.' m l ",
"l c E ' ' ' ' ' ' ' ' D u > > > > > ; ; > > > > > > : : > > > > > > > > : % > > > > > > : ; > j >.>.j y D ' ' ~ ' ' ' ' ' E c l ",
"l x c m m m m m m m m v e > > > > > : : > > > > > > : : > 3 > > > > > > : : > > > > 1 > ; % > j >.>.j 8 z m m m m m m m m c x l ",
"l c B C C C C C C C C n r > > > > > : % > > > > > > : : > 3 > > > > > > : : > > > > > > ; % > j >.>.h e n C C C C C C C C B c l ",
"l B  .8.8.5.5.5.8.e.e.$.g > > > > > % * > > > > > > % % > 3 3 > > > 3 > : : > > > > > > % % : j ;.;.h d @.e.5.5.5.5.5.8.8. .B l ",
"l C 1.z.f.p.p.p.p.z.z.*.h > > > > > % % > > > > > > : : > 3 3 > > 3 3 > : : > > > > > > ; % : j ;.;.h g &.z.f.p.p.p.p.f.f.1.C l ",
"l M [ O.O.O.O.O.O.O.<.` d > > > > > : : > 3 > > > > : : > 3 > > > 3 3 > : : > 3 > > > > ; % : j ;.;.h i _ O.O.O.O.O.O.O.O.[ M l ",
"l m ' } [ [ [ [ [ } ..Q s > > > > > : : > 3 > > > > : : > 3 > > > 3 3 > : : > > > > > > ; % : j >.>.h u Q ..} [ [ [ [ [ } ' m l ",
"l m ' ..[ [ [ [ [ ....Q s > > > > > : : > > > > > > ; ; > > > > > > 3 > : : > 3 > > > > : ; : j >.>.h u Q ..} [ [ [ [ [ } ' m l ",
"l m ' X.X.[ [ [ [ ....Q s > > > > > : : > > > > > > ; ; > > > > > > 3 > : : > > > > > > : ; > a T T a u Q ....[ [ [ [ X.X.' m l ",
"l m ' X.X.[ [ [ [ ..X.Q u > > > > > : : > > > > > > ; ; > > > > > > > > % % > > > > > > : : > 4 a a 4 u Q ....[ [ [ [ X.X.' m l ",
"l m ' X.X.X.X.X.X.X.X.Q s > > > > > : : > > > 4 a a , % > > > > > > > > % % > 4 a a 4 > ; : > > > > > s Q X.X.X.X.X.X.X.X.' m l ",
"l m ' X.X.X.X.X.X.X.X./ s > > > > > : : > > > a +.T t % > 3 > > > > > > % % > a R R a > % : > > > > > s / X.X.X.X.X.X.X.X.' m l ",
"l c E ' ' ' ' ' ' ' ' D u > > > > > ; : > > > a +.Y t % > 3 3 > > > > > % % > a R R a : % ; > > > > > u D ' ' ' ' ' ' ' ' E c l ",
"l x c m m m m m m m m v e > > > > > ; : > > > 4 a a , ; > 3 3 > > > > > ; ; > 4 a a 4 > : : > > > > > e v m m m m m m m m c x l ",
"l c B C C C C C C C C D f i i a h i , ; > 3 3 > > > ; : > > 3 > > > > > ; : > > > > > > : : > > > > > r n C C C C C C C C B c l ",
"l B  .8.8.5.5.5.5.5.5.2.+.U U Y #.Y t % > > > > > > : : > > > > > > 3 > : : > > > > > > : : > > > > > g $.e.5.5.5.5.5.8.8. .B l ",
"l C 1.z.f.p.p.p.p.p.p.i.:.=.-.u.k.;.a % > > > 3 > > : : > > > > > 3 3 > ; ; > > > > > > ; ; > > > > > h *.z.f.p.p.p.p.f.f.1.C l ",
"l M [ <.O.O.O.O.O.O.O.,.%.-.h.k.l.;.a % > > > > > > : : > > > > > 3 3 > ; ; > > 3 3 > > ; ; > > > > > g ` O.O.O.O.O.O.O.O.[ M l ",
"l m ' } [ [ [ [ [ [ [ { ( Y #.;.;.Y t % > > > > > > : : > > > > > > > > ; ; > > > > > > ; ; > > > > > s Q } } [ [ [ [ [ [ ' m l ",
"l m ' ..[ [ [ [ [ } } ^ k i a h h i , % > > > > > > : : > > > > > > > > : ; > > > > > > : : > > > > > s Q ....[ [ [ [ [ } ' m l ",
"l m ' X.X.[ [ [ [ ..../ d 2 2 2 2 > : : 2 5 5 5 5 2 : : 2 5 5 4 5 5 5 2 : : 2 5 5 5 5 2 : : 2 5 5 5 5 h / ....[ [ [ [ X.X.' m l ",
"l m ' X.X.[ [ [ [ ....) L J H H H F , , G J J J H G , , G J J H J J J G , , G J J J J G , , G J J J J P ) ....[ [ [ [ X.X.' m l ",
"l m ' X.X.[ [ [ [ ...._ I K K K K H > > H K K K K H > > H K K K K K K H > > H K K K K H > > H K K K K I _ ....[ [ [ [ X.X.' m l "
};
