/* XPM */
static char *out2_7[] = {
/* columns rows colors chars-per-pixel */
"64 64 125 2 ",
"   c None",
".  c #3F201C",
"X  c #40211E",
"o  c #422421",
"O  c #4D2A26",
"+  c #522B27",
"@  c #542D29",
"#  c #592F2B",
"$  c #5C322D",
"%  c #4C393E",
"&  c #563A3D",
"*  c #60342F",
"=  c #663631",
"-  c #693732",
";  c #663935",
":  c #6C3A35",
">  c #71413C",
",  c #513C41",
"<  c #5D3F40",
"1  c #633F41",
"2  c #5B4045",
"3  c #534249",
"4  c #664244",
"5  c #694547",
"6  c #6C4945",
"7  c #694649",
"8  c #6D4B4E",
"9  c #734E4B",
"0  c #794F4A",
"q  c #72514D",
"w  c #79504C",
"e  c #724F51",
"r  c #745153",
"t  c #7C5653",
"y  c #7E5855",
"u  c #735A5F",
"i  c #414D63",
"p  c #4F4F60",
"a  c #455168",
"s  c #49566D",
"d  c #535062",
"f  c #5D5A69",
"g  c #4C5972",
"h  c #515E75",
"j  c #546076",
"k  c #566279",
"l  c #5A667B",
"z  c #7E6467",
"x  c #636378",
"c  c #63687F",
"v  c #847775",
"b  c #847876",
"n  c #8D7D7B",
"m  c #937E7B",
"M  c #5B6985",
"N  c #646980",
"B  c #6E6E85",
"V  c #62728F",
"C  c #7F7980",
"Z  c #70738B",
"A  c #79778C",
"S  c #72788F",
"D  c #7A798E",
"F  c #637390",
"G  c #6E7C97",
"H  c #6E7F9F",
"J  c #747D95",
"K  c #6F7FA0",
"L  c #837D83",
"P  c #76839C",
"I  c #7B869D",
"U  c #7F889D",
"Y  c #6F80A1",
"T  c #7080A1",
"R  c #7C89A0",
"E  c #7E8CAA",
"W  c #85818F",
"Q  c #998D8B",
"!  c #868290",
"~  c #858B93",
"^  c #8F8B9B",
"/  c #908D9D",
"(  c #929493",
")  c #9E9392",
"_  c #A09594",
"`  c #848FA6",
"'  c #828FA9",
"]  c #8590A7",
"[  c #8794AF",
"{  c #8895AF",
"}  c #8F9AAF",
"|  c #8F99AD",
" . c #8F99AD",
".. c #9291A2",
"X. c #909AAE",
"o. c #919BAF",
"O. c #909AAE",
"+. c #8895B0",
"@. c #8996B0",
"#. c #8A97B1",
"$. c #909BB0",
"%. c #959DB2",
"&. c #909CB5",
"*. c #919DB6",
"=. c #929EB6",
"-. c #929EB7",
";. c #909BB0",
":. c #9DA0A0",
">. c #99A5BC",
",. c #9BA6BD",
"<. c #9BA7BE",
"1. c #9CA7BE",
"2. c #9BA6BD",
"3. c #9CA8BF",
"4. c #9DA8BF",
"5. c #9CA8BF",
"6. c #A1A3A2",
"7. c #ABADAE",
"8. c #ABAEAF",
"9. c #B0B3B3",
"0. c #9CA9C0",
"q. c #9CA9C0",
"w. c #A0ABC0",
"e. c #A1ACC1",
"r. c #A2ADC2",
/* pixels */
"                                                                                                                                ",
"                                                                                                                                ",
"                                                                                                                                ",
"                                                                                                                                ",
"                                                                                                                                ",
"                                                                                                                                ",
"                                                                                                                                ",
"                                                                                                                                ",
"                                                    { { { { { { { { { { { {                                                     ",
"                                                    { { { { { { { { { { { {                                                     ",
"                                                    +.{ { { { { { { { { { +.                                                    ",
"                                                    ' { { { { { [ [ { { { '                                                     ",
"                            { { { { { { { +.+.P h k I +.+.[ [ [ { { { +.+.I k h P +.+.{ { { { { { {                             ",
"                            { { { { { { { +.+.P h j R *.*.*.*.*.*.*.*.*.*.R j h P +.+.{ { { { { { {                             ",
"                            +.{ { { { { { +.+.P h k { w.w.w.w.w.w.w.w.w.w.{ k h P +.+.{ { { { { { +.                            ",
"                            ' { { { { { [ +.+.P h k ` >.>.>.>.>.>.>.>.>.>.` k h P +.+.{ [ [ [ { { '                             ",
"i j P +.+.{ { { { +.+.P h k I +.{ [ [ [ { +.+.P h h G E E E E E E E E E E G g h P +.+.[ [ [ [ { +.I k h P +.+.{ { { { +.+.P j i ",
"i j P +.+.{ { { { +.+.P h j R *.*.*.*.*.*.*.*.R j g V K H H H H H H H H H V g j R *.*.*.*.*.*.*.*.R j h P +.+.{ { { { +.+.P h i ",
"i j P +.+.{ { { { +.+.P h k { w.w.w.w.w.w.w.w.{ k g V K H H H H H H H H K V g k { w.w.w.w.w.w.w.w.{ k h P +.+.{ { { { +.+.P j i ",
"i j P +.+.[ { { { +.+.P h k ` >.>.>.>.>.>.>.>.` k g F T T H H H H H H T T F g k ` >.>.>.>.>.>.>.>.` k h P +.+.{ { { { +.+.P j i ",
"i j P +.+.{ { [ [ +.+.P h g G E E E E E E E E G h g F T Y H H H H H H T T F g h G E E E E E E E E G g h P +.+.[ [ [ [ +.+.P h i ",
"i k R *.*.*.*.*.*.*.*.R j g V H H H H H H H H V g g F T Y H H H H H H T T F g g V K H H H H H H K V g j R *.*.*.*.*.*.*.*.R k i ",
"i k { w.w.w.w.w.w.w.w.{ k g V K H H H H H H K V g g F T T H H H H H H T T F g g V T H H H H H H Y V g k { w.w.w.w.w.w.w.w.{ k i ",
"i k ` >.>.>.>.>.>.>.>.` k g F T T H H H H K T F g g F T T H H H H H H T T F g g F T T H H H H T T F g k ` >.>.>.>.>.>.>.>.` k i ",
"i h G E E E E E E E E G h g F T T H H H H H H H                                 H H H H H H H T T F g h G E E E E E E E E G h i ",
"i g F K H H H H H H H F g g F T T H H H H H H Y                                 T H H H H H H T T F g g F H H H H H H H H F g i ",
"i g F K H H H H H H H H                                                                                 H H H H H H H H K F g i ",
"i g F T T T T T T T T T                                                                                 T T T T T T T T T F g i ",
"i g F T T T T T T T T T                                                                                 T T T T T T T T T F g i ",
"i s M F F V F F F F F F                                                                                 F F V V F F F F F M s i ",
"i a s g g g g g g g g g                                                                                 g g g g g g g g g s a i ",
"i s j k k k k k k k k k                                                                                 k k k k k k k k k j s i ",
"i j I o.o.| | | | | | o.                        o o o o o o o o o o o o o o o o                         | | | | | | | o.o.I j i ",
"i k ] 0.3.>.>.>.>.>.>.*.                        o o o o o o o o o o o o o o o o                         *.>.>.>.>.>.>.3.3.] k i ",
"i h H E E E E E E E E S 3 . X o o o o o o o o o o o o o o o o o o o o o o o o o o o o o o o o o o X X 3 S E E E E E E E E H h i ",
"i g F K H H H H H K Y c % X X o o o o o o o o o o o o o o o o o o o o o o o o o o o o o o o o o o X X % x Y K H H H H H K F g i ",
"i g F Y H H H H H Y Y N % X X o o o o o o o o o o o o o o o o o X X o o o o o o o o o o o o o o o X X % N T Y H H H H H K F g i ",
"i g F T T H H H H T T N % X X o o o o o o o o o o o o o o O o o o o o o o o o o o o o o o o o o o X X % N T T H H H H T T F g i ",
"i g F T T H H H H T T N % . X o o o o o o o o o O O o o O + + + + + + O o o O + o X X o o o o o o X . % N T T H H H H T T F g i ",
"i g F T T T T T T T T N , o o o o o o o o o o O + + o o + $ $ $ $ $ $ + o o + + O o o o o o o o o o o , N T T Y T T T T T F g i ",
"i g F T T T T T T T T B 2 + + + + O o o O + + + # + o o + $ $ $ $ $ $ + o o + # + + + O o o O + + + + 2 B T T T T T T T T F g i ",
"i s M F F F F F F F F x 2 # # $ $ + o o + $ = $ $ $ O O $ $ $ $ $ $ $ $ O O $ $ $ $ $ + o o + $ $ # # 2 x F F F F F F F F M s i ",
"i a s g g g g g g g g p & # $ $ $ + o O $ : : : : = $ $ = : : : : : : = $ $ = : : : : $ O o + $ $ # # & p g g g g g g g g s a i ",
"i s j k k k k k k k k f < $ $ $ $ + O + = : : : : : * * : : : : : : : : * * : : : : : = + O $ $ $ $ $ < f k k k k k k k k j s i ",
"i j I o.o.| | | | | ;.W 9 * = = = * $ $ : : : : : : * * : : : : : : : : * * : : : : : ; $ $ = : : - = r ! *.o.| | | | o.o.I j i ",
"i k ] 0.3.>.>.>.>.3.0...z 9 9 w t 9 ; * : : : : : : $ * : : : : : : : : * * : : : : : : = = : : : : : t / 0.3.>.>.>.>.3.3.] k i ",
"i h H E E E E E E E E ~ L b v n Q n 6 $ : : : : : : $ $ : : : : : : : : * * : : : : : : $ * : : : : : e D E E E E E E E E H h i ",
"i g F K H H H H H H H P ~ ( ( :.7.) w $ - : : : : : $ $ : : : : : : : : * * : : : : : : $ $ : : : : : 8 B K K H H H H H K F g i ",
"i g F Y H H H H H H H P ~ ( 6.7.9.) w $ - : : : : : * * : : : : : : : : * * : : : : : : * * : : : : : 8 B Y K H H H H H K F g i ",
"i g F T T H H H H K Y J C n Q _ _ n 6 $ - : : : : : * * : : : : : : : : * * : : : : : : * * : : : : : 8 B Y Y H H H H T T F g i ",
"i g F T T H H H H Y Y Z u 9 t y t 9 ; $ : : : : : : * * : : : : : : : : * * : : : : : : * * : : : : : 8 B Y Y H H H H T T F g i ",
"i g F T T T T T T T T B 8 - : : : - $ * : : : : : : * * : : : : : : : : $ * : : : : : : * * : > w 0 > 8 B T T T T T T T T F g i ",
"i g F T T T T T T T T B 8 : : : : : * * : : : : : : * $ : : : : : : : : * $ : : : : : : * $ - w m m w 8 B T T T T T T T T F g i ",
"i s M F F F F F V F F x 8 : : : : : * * : : : : : : * * : : : : : : : : * * : : : : : : * $ - y _ _ y 7 x F F F F F F F F M s i ",
"i a s g g g g g g g g d 4 : : : : : * * : : : : : : * * : : : : : : : : * * : : : : : : * $ - y _ _ y 4 d g g g g g g g g s a i ",
"i s j k k k k k k k k f 5 : : : : : * * : : : : : : * * : : : : : : : : * * : : : : : : * $ - y _ _ t 4 f k k k k k k k k j s i ",
"i j I o.o.| | | | | *.! r : : : : : * $ : : : : : : * $ : : : : : : : : * * : : : : : : * $ = y ) ) t e W *.| | | | | o.o.I j i ",
"i k ] 0.3.>.>.>.>.3.0./ t : : : : : $ $ : : : : : : * * : : : : : : : : * $ : : : : : : * $ = y ) ) t r ^ 0.3.>.>.>.>.3.3.] k i ",
"i h H E E E E E E E E D e : : : : : $ $ : : : : : : * * : : : : : : : : $ $ : : : : : : $ $ = y ) ) t 9 A E E E E E E E E H h i ",
"i g F K H H H H H K Y B 8 : : : : : * * : : : : : : * * : : : : : : : : $ * : : : : : : * $ = y _ _ t 8 B K K H H H H H K F g i ",
"i g F Y H H H H H K Y B 8 : : : : : * * : : : : : : * * : : : : : : : : * * : : : : : : * $ = y _ _ t 8 B Y K H H H H H K F g i ",
"i g F T T H H H H Y Y B 8 : : : : : * $ : : : : : : * $ : : : : : : : : * * : : : : : : * $ - w m m 0 8 B Y Y H H H H T T F g i ",
"i g F T T H H H H Y Y B 8 : : : : : * $ : : : : : : * $ : : : : : : : : * * : : : : : : * * : > w 0 > 8 B Y Y H H H H T T F g i ",
"i g F T T H H H H Y Y B 8 : : : : : * $ : : : : : : * $ : : : : : : : : * * : : : : : : * * : : : - : 8 B Y Y H H H H T T F g i "
};
