/* XPM */
static char *out2_8[] = {
/* columns rows colors chars-per-pixel */
"64 64 118 2 ",
"   c None",
".  c #3F1F1C",
"X  c #3F201D",
"o  c #40211E",
"O  c #422421",
"+  c #4D2A26",
"@  c #522B27",
"#  c #542D29",
"$  c #582F2A",
"%  c #5C312D",
"&  c #4B393E",
"*  c #60342F",
"=  c #643631",
"-  c #683732",
";  c #663935",
":  c #6C3A35",
">  c #71423D",
",  c #4F3C41",
"<  c #503C41",
"1  c #613F41",
"2  c #564245",
"3  c #5C4145",
"4  c #5C4449",
"5  c #614042",
"6  c #694647",
"7  c #6C4945",
"8  c #6D4A4E",
"9  c #754E4A",
"0  c #72514D",
"q  c #7A514C",
"w  c #714F52",
"e  c #6F5457",
"r  c #755253",
"t  c #7A5553",
"y  c #7E5854",
"u  c #735A5F",
"i  c #414D63",
"p  c #455168",
"a  c #49566D",
"s  c #525062",
"d  c #5F5C6A",
"f  c #4C5972",
"g  c #515E75",
"h  c #546076",
"j  c #596175",
"k  c #566279",
"l  c #5A667B",
"z  c #616070",
"x  c #626378",
"c  c #847775",
"v  c #8D7D7B",
"b  c #937F7C",
"n  c #5B6985",
"m  c #646980",
"M  c #6C6D84",
"N  c #62728F",
"B  c #6F7388",
"V  c #7E7980",
"C  c #70738A",
"Z  c #7A798D",
"A  c #637390",
"S  c #6E7C97",
"D  c #6F7F9F",
"F  c #737C94",
"G  c #6F7FA0",
"H  c #76839C",
"J  c #7B869D",
"K  c #6F80A1",
"L  c #7080A0",
"P  c #7C89A0",
"I  c #7E8CA9",
"U  c #878084",
"Y  c #998D8B",
"T  c #838493",
"R  c #898E95",
"E  c #908D9D",
"W  c #8F9090",
"Q  c #939595",
"!  c #9B9392",
"~  c #90959A",
"^  c #A09594",
"/  c #838FA5",
"(  c #828FA9",
")  c #8590A7",
"_  c #8C91A0",
"`  c #8794AF",
"'  c #8895AF",
"]  c #8F99AD",
"[  c #8F9AAE",
"{  c #8F9AAF",
"}  c #909AAE",
"|  c #909AAF",
" . c #919BAF",
".. c #8895B0",
"X. c #8996B0",
"o. c #8A97B1",
"O. c #909BB0",
"+. c #909CB5",
"@. c #919DB6",
"#. c #929EB6",
"$. c #929EB7",
"%. c #9DA0A0",
"&. c #98A1B2",
"*. c #99A5BC",
"=. c #9BA6BD",
"-. c #9BA7BE",
";. c #9CA8BF",
":. c #9DA8BF",
">. c #A1A3A2",
",. c #ABADAE",
"<. c #ABAEAF",
"1. c #B0B3B3",
"2. c #9CA8C0",
"3. c #9CA9C0",
"4. c #9DAAC1",
"5. c #A0ABC0",
"6. c #A1ACC1",
"7. c #A2ADC2",
/* pixels */
"                                                                                                                                ",
"                                                                                                                                ",
"                                                                                                                                ",
"                                                                                                                                ",
"                                                                                                                                ",
"                                                                                                                                ",
"                                                                                                                                ",
"                                                                                                                                ",
"                                                    ' ' ' ' ' ' ' ' ' ' ' '                                                     ",
"                                                    ' ' ' ' ' ' ' ' ' ' ' '                                                     ",
"                                                    ..' ' ' ' ' ' ' ' ' ' ..                                                    ",
"                                                    ( ' ' ' ' ' ` ` ' ' ' (                                                     ",
"                            ' ' ' ' ' ' ' ....H g k J ....` ` ` ' ' ' ....J k g H ....' ' ' ' ' ' '                             ",
"                            ' ' ' ' ' ' ' ....H g h P @.@.@.@.@.@.@.@.@.@.P h g H ....' ' ' ' ' ' '                             ",
"                            ..' ' ' ' ' ' ....H g k ' 5.5.5.5.5.5.5.5.5.5.' k g H ....' ' ' ' ' ' ..                            ",
"                            ( ' ' ' ' ' ` ....H g k / *.*.*.*.*.*.*.*.*.*./ k g H ....' ` ` ` ' ' (                             ",
"i h H ....' ' ' ' ....H g k J ..' ` ` ` ' ....H g g S I I I I I I I I I I S f g H ....` ` ` ` ' ..J k g H ....' ' ' ' ....H h i ",
"i h H ....' ' ' ' ....H g h P @.@.@.@.@.@.@.@.P h f N G D D D D D D D D D N f h P @.@.@.@.@.@.@.@.P h g H ....' ' ' ' ....H g i ",
"i h H ....' ' ' ' ....H g k ' 5.5.5.5.5.5.5.5.' k f N G D D D D D D D D G N f k ' 5.5.5.5.5.5.5.5.' k g H ....' ' ' ' ....H h i ",
"i h H ....` ' ' ' ....H g k / *.*.*.*.*.*.*.*./ k f A L L D D D D D D L L A f k / *.*.*.*.*.*.*.*./ k g H ....' ' ' ' ....H h i ",
"i h H ....' ' ` ` ....H g f S I I I I I I I I S g f A L K D D D D D D L L A f g S I I I I I I I I S f g H ....` ` ` ` ....H g i ",
"i k P @.@.@.@.@.@.@.@.P h f N D D D D D D D D N f f A L K D D D D D D L L A f f N G D D D D D D G N f h P @.@.@.@.@.@.@.@.P k i ",
"i k ' 5.5.5.5.5.5.5.5.' k f N G D D D D D D G N f f A L L D D D D D D L L A f f N L D D D D D D K N f k ' 5.5.5.5.5.5.5.5.' k i ",
"i k / *.*.*.*.*.*.*.*./ k f A L L D D D D G L A f f A L L D D D D D D L L A f f A L L D D D D L L A f k / *.*.*.*.*.*.*.*./ k i ",
"i g S I I I I I I I I S g f A L L D D D D D D D                                 D D D D D D D L L A f g S I I I I I I I I S g i ",
"i f A G D D D D D D D A f f A L L D D D D D D K                                 L D D D D D D L L A f f A D D D D D D D D A f i ",
"i f A G D D D D D D D D                                                                                 D D D D D D D D G A f i ",
"i f A L L L L L L L L L                                                                                 L L L L L L L L L A f i ",
"i f A L L L L L L L L L                                                                                 L L L L L L L L L A f i ",
"i a n A A N A A A A A A                                                                                 A A N N A A A A A n a i ",
"i p a f f f f f f f f f                                                                                 f f f f f f f f f a p i ",
"i a h k k k k k k k k k                                                                                 k k k k k k k k k h a i ",
"i h J  . .] ] ] ] ] ] ]                                                                                 ] ] ] ] ] ] ]  . .J h i ",
"i k ) 2.;.*.*.*.*.*.*.*.                                                                                *.*.*.*.*.*.*.;.;.) k i ",
"i g D I I I I I I I I I                                                                                 I I I I I I I I I D g i ",
"i f A G D D D D D D D D                                                                                 D D D D D D D D G A f i ",
"i f A K D D D D D D D D                                                                                 D D D D D D D D G A f i ",
"i f A L L D D D D D D D                                                                                 D D D D D D D L L A f i ",
"i f A L L D D D D D D D                                                                                 D D D D D D D L L A f i ",
"i f A L L L L L L L L L                                                                                 L L L L L L L L L A f i ",
"i f A L L L L L L L L L                                                                                 L L L L L L L L L A f i ",
"i a n A A A A A A A A A                                                                                 A A A A A A A A A n a i ",
"i p a f f f f f f f f f                         O O O O O O O O O O O O O O O O                         f f f f f f f f f a p i ",
"i a h k k k k k k k k j                         O O O O O O O O O O O O O O O O                         j k k k k k k k k h a i ",
"i h J  . .] ] ] ] ] @.J 4 . o O O O O O O O O O O O O O O O O O O O O O O O O O O O O O O O O O O o . 4 T @. .] ] ] ]  . .J h i ",
"i k ) 2.;.*.*.*.*.2.2.T 2 X o O O O O O O O O O O O O O O O O O O O O O O O O O O O O O O O O O O o X 2 T 2.2.*.*.*.*.;.;.) k i ",
"i g D I I I I I I I I B , X o O O O O O O O O O O O O O O O O O O O O O O O O O O O O O O O O O O o o < B I I I I I I I I D g i ",
"i f A G D D D D D G K m & X o O O O O O O O O O O O O O O O O O O O O O O O O O O o O O O O O O O o o & m K G D D D D D G A f i ",
"i f A K D D D D D K K m & X o O O O O O O O O O + + O O + @ @ @ @ @ @ + O O + + O O O O O O O O O o X & m L K D D D D D K A f i ",
"i f A L L D D D D L L m < O O O O O O O O O O + @ @ O O @ % % % % % % @ O O @ @ + O O O O O O O O O O < m L L D D D D L L A f i ",
"i f A L L D D D D K L M 3 @ @ @ @ + O O + @ @ @ $ @ O O @ % % % % % % @ O O @ % @ @ @ + O O + @ @ @ @ 3 M L L D D D D L L A f i ",
"i f A L L L L L L L L M 4 $ $ % % @ O + @ % % % % $ + + % % % % % % % % + + % % % % % @ + O @ % % $ $ 4 M L L L L L L L L A f i ",
"i f A L L L L L L L L M 4 $ $ % % @ O + % : : : : - % % - : : : : : : - % % - : : : : % + O @ % % $ $ 4 M L L L L L L L L A f i ",
"i a n A A A A A N A A x 3 % % % % $ + @ - : : : : : * * : : : : : : : : - - : : : : : - @ + % % % % % 3 x A A A A A A A A n a i ",
"i p a f f f f f f f f s 1 - - - - * % % : : : : : : * * : : : : : : : : * * : : : : : ; % % - : : : : 5 s f f f f f f f f a p i ",
"i a h k k k k k k k k z e 9 9 q t 9 ; * : : : : : : * * : : : : : : : : % * : : : : : : * * : : : : : 6 d k k k k k k k k h a i ",
"i h J  . .] ] ] ] ] ] _ U c c v Y v 7 % : : : : : : * * : : : : : : : : * * : : : : : : * * : : : : : r T @.] ] ] ] ]  . .J h i ",
"i k ) 2.;.*.*.*.*.*.*.&.~ W Q %.,.! q % - : : : : : * * : : : : : : : : * % : : : : : : % % : : : : : t E 2.;.*.*.*.*.;.;.) k i ",
"i g D I I I I I I I I / R Q >.,.1.! q % - : : : : : * * : : : : : : : : % % : : : : : : * * : : : : : w Z I I I I I I I I D g i ",
"i f A G D D D D D D D F V v Y ^ ^ v 7 % : : : : : : * * : : : : : : : : % * : : : : : : * * : : : : : 8 M G G D D D D D G A f i ",
"i f A K D D D D D G G C u q t y y 9 ; % : : : : : : * * : : : : : : : : * * : : : : : : * * : : : : : 8 M K G D D D D D G A f i ",
"i f A L L D D D D K K M 8 - : : : - % * : : : : : : * % : : : : : : : : * * : : : : : : * * : > q q > 8 M K K D D D D L L A f i ",
"i f A L L D D D D K K M 8 : : : : - % * : : : : : : * % : : : : : : : : * * : : : : : : * % - q b b q 8 M K K D D D D L L A f i ",
"i f A L L D D D D K K M 8 : : : : : * * : : : : : : * % : : : : : : : : * * : : : : : : * % - y ^ ^ t 8 M K K D D D D L L A f i "
};
