/* XPM */
static char *out2_6[] = {
/* columns rows colors chars-per-pixel */
"64 64 145 2 ",
"   c None",
".  c #3F201B",
"X  c #40211E",
"o  c #432421",
"O  c #442827",
"+  c #4D2A26",
"@  c #522B27",
"#  c #542D29",
"$  c #582E2A",
"%  c #5D322D",
"&  c #432E31",
"*  c #433033",
"=  c #493337",
"-  c #4A353A",
";  c #4C393F",
":  c #60342F",
">  c #653631",
",  c #683732",
"<  c #663934",
"1  c #6C3A35",
"2  c #743D37",
"3  c #783E37",
"4  c #723E38",
"5  c #71423D",
"6  c #79413C",
"7  c #4C414B",
"8  c #494C5D",
"9  c #654143",
"0  c #684546",
"q  c #6C4945",
"w  c #624649",
"e  c #6A474A",
"r  c #6C4A4E",
"t  c #744E4A",
"y  c #794F4A",
"u  c #73514D",
"i  c #7A514D",
"p  c #6E4C50",
"a  c #734F52",
"s  c #6C5255",
"d  c #755153",
"f  c #7C5653",
"g  c #7E5855",
"h  c #735A5F",
"j  c #414D63",
"k  c #4C5265",
"l  c #455168",
"z  c #49566D",
"x  c #545464",
"c  c #5E5A6A",
"v  c #4C5972",
"b  c #515E75",
"n  c #5B5F75",
"m  c #546076",
"M  c #566279",
"N  c #5A667B",
"B  c #5B687D",
"V  c #61606F",
"C  c #656479",
"Z  c #7C767D",
"A  c #82463F",
"S  c #824740",
"D  c #8D4C45",
"F  c #904E47",
"G  c #9C554D",
"H  c #87595C",
"J  c #915F61",
"K  c #847775",
"L  c #8C7D7B",
"P  c #857876",
"I  c #937E7C",
"U  c #5B6985",
"Y  c #646A81",
"T  c #6E6E85",
"R  c #636F8C",
"E  c #63718F",
"W  c #6D738A",
"Q  c #717087",
"!  c #7E7980",
"~  c #75748A",
"^  c #79768B",
"/  c #7A798D",
"(  c #637390",
")  c #6E7C97",
"_  c #6E7E9E",
"`  c #737D95",
"'  c #6F7FA0",
"]  c #807A81",
"[  c #807F8D",
"{  c #76839C",
"}  c #7B869D",
"|  c #6F80A1",
" . c #7081A1",
".. c #7C89A0",
"X. c #7E8CAA",
"o. c #878084",
"O. c #86818F",
"+. c #998D8B",
"@. c #878290",
"#. c #868B93",
"$. c #8C8A9A",
"%. c #898E95",
"&. c #908D9D",
"*. c #8F9090",
"=. c #939494",
"-. c #9E9492",
";. c #90959A",
":. c #A09594",
">. c #848FA6",
",. c #818DA3",
"<. c #828FA9",
"1. c #8490A7",
"2. c #8590A7",
"3. c #8794AF",
"4. c #8893A9",
"5. c #8994A9",
"6. c #8895AF",
"7. c #8F99AD",
"8. c #8F99AD",
"9. c #8C91A0",
"0. c #909BAF",
"q. c #909AAE",
"w. c #8895B0",
"e. c #8996B0",
"r. c #8A97B1",
"t. c #909CB0",
"y. c #909CB5",
"u. c #919DB6",
"i. c #929EB6",
"p. c #909BB0",
"a. c #9DA0A0",
"s. c #98A1B2",
"d. c #99A5BC",
"f. c #9BA6BD",
"g. c #9BA7BE",
"h. c #9BA6BD",
"j. c #9CA8BF",
"k. c #9CA8BF",
"l. c #A1A3A2",
"z. c #ABAEAE",
"x. c #B0B3B3",
"c. c #9CA9C1",
"v. c #A0ABC0",
"b. c #A1ACC1",
"n. c #A2ADC2",
/* pixels */
"                                                                                                                                ",
"                                                                                                                                ",
"                                                                                                                                ",
"                                                                                                                                ",
"                                                                                                                                ",
"                                                                                                                                ",
"                                                                                                                                ",
"                                                                                                                                ",
"                                                    6.6.6.6.6.6.6.6.6.6.6.6.                                                    ",
"                                                    6.6.6.6.6.6.6.6.6.6.6.6.                                                    ",
"                                                    w.6.6.6.6.6.6.6.6.6.6.w.                                                    ",
"                                                    <.6.6.6.6.6.3.3.6.6.6.<.                                                    ",
"                            6.6.6.6.6.6.6.w.w.{ b M } w.6.3.3.3.6.6.6.w.w.} M b { w.w.6.6.6.6.6.6.6.                            ",
"                            6.6.6.6.6.6.6.w.w.{ b m ..u.u.u.u.u.u.u.u.u.u...m b { w.w.6.6.6.6.6.6.6.                            ",
"                            w.6.6.6.6.6.6.w.w.{ b M 6.v.v.v.v.v.v.v.v.v.v.6.M b { w.w.6.6.6.6.6.6.w.                            ",
"                            <.6.6.6.6.6.3.w.w.{ b M >.d.d.d.d.d.d.d.d.d.d.>.M b { w.w.6.3.3.3.6.6.<.                            ",
"j m { w.w.6.6.6.6.w.w.{ b M } w.6.3.3.3.3.w.w.{ b b ) X.X.X.X.X.X.X.X.X.X.) v b { w.6.3.3.3.3.6.w.} M b { w.w.6.6.6.6.w.w.{ m j ",
"j m { w.w.6.6.6.6.w.w.{ b m ..u.u.u.u.u.u.u.u...m v E _ _ _ _ _ _ _ _ _ ' E v m ..u.u.u.u.u.u.u.u...m b { w.w.6.6.6.6.w.w.{ b j ",
"j m { w.w.6.6.6.6.w.w.{ b M 6.v.v.v.v.v.v.v.v.6.M v E ' _ _ _ _ _ _ _ _ ' E v M 6.v.v.v.v.v.v.v.v.6.M b { w.w.6.6.6.6.w.w.{ m j ",
"j m { w.w.6.6.6.6.w.w.{ b M >.d.d.d.d.d.d.d.d.>.M v (  . ._ _ _ _ _ _  . .( v M >.d.d.d.d.d.d.d.d.>.M b { w.w.6.6.6.6.w.w.{ m j ",
"j m { w.w.6.6.3.3.w.w.{ b v ) X.X.X.X.X.X.X.X.) b v (  .| _ _ _ _ _ _  . .( v b ) X.X.X.X.X.X.X.X.) v b { w.w.3.3.3.3.w.w.{ b j ",
"j M ..u.u.u.u.u.u.u.u...m v E ' _ _ _ _ _ _ _ ( v v (  . .|  . . . . . . .( v v ( ' _ _ _ _ _ _ ' E v m ..u.u.u.u.u.u.u.u...M j ",
"j M 6.v.v.v.v.v.v.v.v.6.M v E ' _ _ _ _ _ _ ' ( v v (  . . . . . . . . . .( v v ( | _ _ _ _ _ _ | E v M 6.v.v.v.v.v.v.v.v.6.M j ",
"j M >.d.d.d.d.d.d.d.d.1.M v (  . . . . . . . .E k 8 n Y Y Y Y Y Y Y Y Y Y n 8 k E  . . . . . . . .( v M 1.d.d.d.d.d.d.d.d.>.M j ",
"j b ) X.X.X.X.X.X.X.X._ b v (  . . . . . . . .Y 7 & - ; ; ; ; ; ; ; ; ; ; - & 7 Y  . . . . . . . .( v b _ X.X.X.X.X.X.X.X.) b j ",
"j v ( ' _ _ _ _ _ _ ' E k 8 n Y Y Y Y Y Y Y Y c = X X X X X X X X X X X . . X = c Y Y Y Y Y Y Y Y n 8 k E ' _ _ _ _ _ _ _ ( v j ",
"j v ( ' _ _ _ _ _ |  .Y 7 & - ; ; ; ; ; ; ; ; = O X X X X X X X X X X X X X X O = ; ; ; ; ; ; ; ; - & 7 Y | ' _ _ _ _ _ ' ( v j ",
"j v (  . . . . . . . .Y ; . . X X X X X X X X X X o o o o o o o o o o o o o o X X X X X X X X X X X X ; Y  . . . . . . . .( v j ",
"j v (  . . . . . . . .Y ; X . X X X X X X X X X X o o o o o o o o o o o o o o X X X X X X X X X X X X ; Y  . . . . . . . .( v j ",
"j z U ( ( E E E ( ( ( n - X X o o o o o o o o o o o o o o o o o o o o o o o o o o o o o o o o o o X X - n ( ( ( ( ( ( ( ( U z j ",
"j l z v v v v v v v v 8 * X X o o o o o o o o o + + o o + # # # # # # + o o + + o o o o o o o o o X X * 8 v v v v v v v v z l j ",
"j z m M M M M M M M M x - o o o o o o o o o o + # # o o # % % % % % % # o o # # + o o o o o o o o o o - x B M M M M M M M m z j ",
"j m } 0.0.7.7.7.7.0.u.[ w @ @ # # + o o + # # # % # o o # % % % % % % # o o # $ # # # + o o + # # @ @ w [ u.7.7.7.7.7.0.0.} m j ",
"j M 1.c.j.d.d.d.d.j.c.$.r $ $ % % # o o # % % % % % + + % % % % % % % $ + + $ % % % % # o o # % % $ $ r $.c.j.d.d.d.d.j.j.1.M j ",
"j b _ X.X.X.X.X.X.X.X.~ w $ $ % % # o + % 1 1 1 1 > % % > 1 1 1 1 1 1 > % % > 1 1 1 1 % + o # % % $ $ w ~ X.X.X.X.X.X.X.X._ b j ",
"j v ( ' _ _ _ _ _ ' | T w % % % % # + # > 1 1 1 1 1 : : 1 1 1 1 1 1 1 1 : : 1 1 1 1 1 > # + % % % % % w T ' ' _ _ _ _ _ ' ( v j ",
"j v ( | _ _ _ _ _ ' | T r : > > > : % % 1 1 1 1 1 1 : : 1 1 1 1 1 1 1 1 : : 1 1 1 1 1 < % % > 1 1 1 , r T | | _ _ _ _ _ ' ( v j ",
"j v (  . ._ _ _ _ | | ~ h t t i f t < : 1 1 1 1 1 1 % % 1 1 1 1 1 1 1 1 : : 1 1 1 1 1 1 > : 1 1 1 1 1 p T | | _ _ _ _  . .( v j ",
"j v (  . ._ _ _ _ ' ' ` ] P K L +.L q % 1 1 1 1 1 1 % % 1 1 1 1 1 1 1 1 : : 1 1 1 1 1 1 % : 1 1 1 1 1 p T | | _ _ _ _  . .( v j ",
"j v (  . . . . . .' ' { #.=.=.a.z.-.i % , 1 1 1 1 1 % : 1 1 1 1 1 1 1 1 : : 1 1 1 1 1 1 % % 1 1 1 1 1 p T  . . . . . . . .( v j ",
"j v (  . . . . . . .| { #.=.l.z.x.-.i % , 1 1 1 1 1 : : 1 1 1 1 1 1 1 1 : : 1 1 1 1 1 1 : : 1 1 1 1 1 r T  . . . . . . . .( v j ",
"j z U ( ( ( ( ( ( ( ( W Z L +.:.:.L q % , 1 1 1 1 1 : : 1 1 1 1 1 1 1 1 % : 1 1 1 1 1 1 : : 1 1 1 1 1 r C ( ( E ( ( ( ( ( U z j ",
"j l z v v v v v v v v x s i f g g t < % 1 1 1 1 1 1 : : 1 1 1 1 1 1 1 1 % : 1 1 1 1 1 1 : : 1 1 1 1 1 9 x v v v v v v v v z l j ",
"j z m M M M M M M M M c 0 1 1 1 1 > % : 1 1 1 1 1 1 : : 1 1 1 1 1 1 1 1 : : 1 1 1 1 1 1 % % 1 5 i i 5 0 c M M M M M M M M m z j ",
"j m } 0.0.7.7.7.7.7.u.@.d , 1 1 1 , % : 1 1 1 1 1 1 : % 1 1 1 1 1 1 1 1 : : 1 1 1 1 1 1 : % > i I I y d O.u.7.7.7.7.7.0.0.} m j ",
"j M 1.c.j.d.d.d.d.j.c.&.f 1 1 1 1 1 : : 1 1 1 1 1 1 % % 1 1 1 1 1 1 1 1 : : 1 1 1 1 1 1 : % > g :.:.f d $.c.j.d.d.d.d.j.j.1.M j ",
"j b _ X.X.X.X.X.X.X.X./ a 1 1 1 1 1 : : 1 1 1 1 1 1 % : 1 1 1 1 1 1 1 1 : : 1 1 1 1 1 1 : % > g :.-.f t ^ X.X.X.X.X.X.X.X._ b j ",
"j v ( ' _ _ _ _ _ ' ' T r 1 1 1 1 1 : : 1 1 1 1 1 1 : : 1 1 1 1 1 1 1 1 : : 1 1 1 1 1 1 : % > g -.-.f r T | ' _ _ _ _ _ ' ( v j ",
"j v ( | _ _ _ _ _ | | T r 1 1 1 1 1 : : 1 1 1 1 1 1 : : 1 1 1 1 1 1 1 1 : : 1 1 1 1 1 1 : % > g :.:.f r T | ' _ _ _ _ _ ' ( v j ",
"j v (  . ._ _ _ _ | | T r 1 1 1 1 1 : : 1 1 1 1 1 1 : : 1 1 1 1 1 1 1 1 : : 1 1 1 1 1 1 : % > g :.:.f r T | | _ _ _ _  . .( v j ",
"j v (  . ._ _ _ _ | | T r 1 1 1 1 1 : : 1 1 1 1 1 1 : : 1 1 1 1 1 1 1 1 : : 1 1 1 1 1 1 : % > g :.:.f r T | | _ _ _ _  . .( v j ",
"j v (  . . . . . . . .T p 1 1 1 1 1 : : 1 1 1 1 1 1 : : 1 1 1 1 1 1 1 1 % : 1 1 1 1 1 1 : % > g :.:.f r T  . ._  . . . . .( v j ",
"j v (  . . . . . . . .Q p 1 1 1 1 1 : : 1 1 1 1 1 1 : % 1 1 1 1 1 1 1 1 : : 1 1 1 1 1 1 : % , g :.:.f r T  . . . . . . . .( v j ",
"j z U ( ( ( ( ( E ( ( C e 1 1 1 1 1 : : 1 1 1 1 1 1 : : 1 1 1 1 1 1 1 1 : : 1 1 1 1 1 1 : % , i I I i e C ( ( ( ( ( ( ( ( U z j ",
"j l z v v v v v v v v x 9 1 1 1 1 > : : 1 1 1 1 1 1 : : 1 1 1 1 1 1 1 1 : : 1 1 1 1 1 1 % % 1 5 i i 5 9 x v v v v v v v v z l j ",
"j z m M M M M M M M M V s t t i f t < % 1 1 1 1 1 1 : : 1 1 1 1 1 1 1 1 : : 1 1 1 1 1 1 : : 1 1 1 1 1 0 c M M M M M M M M m z j ",
"j m } 0.0.7.7.7.7.7.7.9.o.K K L +.L q % 1 1 1 1 1 1 : : 1 1 1 1 1 1 1 1 % % 1 1 1 1 1 1 % % 1 1 1 1 1 d @.u.7.7.7.7.7.0.0.} m j ",
"j M 1.c.j.d.d.d.d.d.d.s.;.*.=.a.z.-.i % , 1 1 1 1 1 : : 1 1 1 1 1 1 1 1 % % 1 1 1 1 1 1 % % 1 1 1 1 1 f &.c.j.d.d.d.d.j.j.1.M j ",
"j b _ X.X.X.X.X.X.X.X.>.%.=.l.z.x.-.i % , 1 1 1 1 1 : : 1 1 1 1 1 1 1 1 % % 1 1 1 1 1 1 % % 1 1 1 1 1 a / X.X.X.X.X.X.X.X._ b j ",
"j v ( ' _ _ _ _ _ _ _ ` ! L +.-.-.L q % > 1 1 1 1 1 : : 1 1 1 1 1 1 1 1 % % 1 1 1 1 1 1 % % 1 1 1 1 1 r T ' ' _ _ _ _ _ _ ( v j ",
"j v ( | _ _ _ _ _ ' ' W h t i f f t < % < 1 1 1 1 1 % % < 1 1 1 1 1 1 1 % % 1 1 1 1 1 1 % % 1 1 1 1 1 r T | ' _ _ _ _ _ ' ( v j ",
"j v (  . ._ _ _ _ | | Q a 3 3 3 3 2 : > 3 6 6 6 6 3 > > 3 6 6 6 6 6 6 3 > > 3 6 6 6 6 3 > > 3 6 6 6 6 d Q | | _ _ _ _  . .( v j ",
"j v (  . ._ _ _ _ | | ~ H F D D D A < < S F F F F S < < S F F D D F F S < < S F F F F S < < S F F F F H ~ | ' _ _ _ _  . .( v j ",
"j v (  . ._ _ _ _ | | ^ J G G G G D 1 1 D G G G G D 1 1 D G G G G G G D 1 1 D G G G G D 1 1 D G G G G J ^ | ' _ _ _ _  . .( v j "
};
