/* XPM */
static char *out2_3[] = {
/* columns rows colors chars-per-pixel */
"64 64 145 2 ",
"   c None",
".  c #45231F",
"X  c #452420",
"o  c #492622",
"O  c #4C2925",
"+  c #522B26",
"@  c #582D27",
"#  c #552D28",
"$  c #582E29",
"%  c #5E322D",
"&  c #4D373C",
"*  c #5B3432",
"=  c #513638",
"-  c #56393B",
";  c #60342F",
":  c #653631",
">  c #683732",
",  c #663934",
"<  c #6C3A35",
"1  c #743D37",
"2  c #783E37",
"3  c #723E38",
"4  c #71423D",
"5  c #79413C",
"6  c #503B41",
"7  c #5D3F41",
"8  c #623F41",
"9  c #5C4146",
"0  c #5F4348",
"q  c #4E4E5F",
"w  c #5A4952",
"e  c #644243",
"r  c #694547",
"t  c #6C4945",
"y  c #6A464A",
"u  c #6D4A4E",
"i  c #744E4A",
"p  c #6F504C",
"a  c #72514D",
"s  c #79504C",
"d  c #6E4C50",
"f  c #724F52",
"g  c #6E5457",
"h  c #765253",
"j  c #7C5753",
"k  c #7E5855",
"l  c #725A5F",
"z  c #414D63",
"x  c #4F4F60",
"c  c #455168",
"v  c #49566D",
"b  c #525163",
"n  c #515468",
"m  c #5F5B6A",
"M  c #4C5972",
"N  c #525E75",
"B  c #665D6E",
"V  c #546076",
"C  c #5D6075",
"Z  c #566279",
"A  c #5A667B",
"S  c #61606F",
"D  c #616070",
"F  c #636379",
"G  c #82463F",
"H  c #824740",
"J  c #8D4C45",
"K  c #904E47",
"L  c #9C554D",
"P  c #87595B",
"I  c #885A5C",
"U  c #915F61",
"Y  c #847775",
"T  c #8D7C7A",
"R  c #937E7B",
"E  c #5B6985",
"W  c #656A81",
"Q  c #6C6D85",
"!  c #696F89",
"~  c #63718F",
"^  c #6F728A",
"/  c #717087",
"(  c #7E7980",
")  c #74738A",
"_  c #79768B",
"`  c #7A798D",
"'  c #637390",
"]  c #6E7C97",
"[  c #6E7E9F",
"{  c #737C94",
"}  c #6F7FA0",
"|  c #76839C",
" . c #7B869D",
".. c #6F80A1",
"X. c #7081A1",
"o. c #7C89A0",
"O. c #7E8CA9",
"+. c #878084",
"@. c #86818F",
"#. c #998D8B",
"$. c #9A908F",
"%. c #878290",
"&. c #898E95",
"*. c #8F8B9B",
"=. c #908D9D",
"-. c #8F9090",
";. c #939595",
":. c #9E9392",
">. c #90959A",
",. c #A09594",
"<. c #838FA5",
"1. c #828FA9",
"2. c #8590A7",
"3. c #8C91A0",
"4. c #8794AF",
"5. c #8895AF",
"6. c #8F99AD",
"7. c #8F99AD",
"8. c #909AAE",
"9. c #909AAE",
"0. c #8895B0",
"q. c #8996B0",
"w. c #8A97B1",
"e. c #909CB5",
"r. c #919DB6",
"t. c #929EB6",
"y. c #929EB7",
"u. c #909BB0",
"i. c #9DA0A0",
"p. c #98A1B2",
"a. c #99A5BC",
"s. c #9BA6BD",
"d. c #9BA7BE",
"f. c #9BA6BD",
"g. c #9DA8BF",
"h. c #9CA8BF",
"j. c #A1A3A2",
"k. c #ABAEAE",
"l. c #ABAEAE",
"z. c #AFB1B1",
"x. c #B0B2B2",
"c. c #9CA9C0",
"v. c #A0ABC0",
"b. c #A1ACC1",
"n. c #A2ADC2",
/* pixels */
"                                                                                                                                ",
"                                                                                                                                ",
"                                                                                                                                ",
"                                                                                                                                ",
"                                                                                                                                ",
"                                                                                                                                ",
"                                                                                                                                ",
"                                                                                                                                ",
"                                                    5.5.5.5.5.5.5.5.5.5.5.5.                                                    ",
"                                                    5.5.5.5.5.5.5.5.5.5.5.5.                                                    ",
"                                                    0.5.5.5.5.5.5.5.5.5.5.0.                                                    ",
"                                                    1.5.5.5.5.5.4.4.5.5.5.1.                                                    ",
"                            5.5.5.5.5.5.5.0.0.| N Z  .0.0.4.4.4.5.5.5.0.0. .Z N | 0.0.5.5.5.5.5.5.5.                            ",
"                            5.5.5.5.5.5.5.0.0.| N V o.r.r.r.r.r.r.r.r.r.r.o.V N | 0.0.5.5.5.5.5.5.5.                            ",
"                            0.5.5.5.5.5.5.0.0.| N Z 5.v.v.v.v.v.v.v.v.v.v.5.Z N | 0.0.5.5.5.5.5.5.0.                            ",
"                            1.5.5.5.5.5.4.0.0.| N Z <.a.a.a.a.a.a.a.a.a.a.<.Z N | 0.0.5.4.4.4.5.5.1.                            ",
"z V | 0.0.5.5.5.5.0.0.| N Z  .0.5.4.4.4.4.0.0.| N N ] O.O.O.O.O.O.O.O.O.O.] M N | 0.5.4.4.4.4.5.0. .Z N | 0.0.5.5.5.5.0.0.| V z ",
"z V | 0.0.5.5.5.5.0.0.| N V o.r.r.r.r.r.r.r.r.o.V M ~ } [ [ [ [ [ [ [ [ [ ~ M V o.r.r.r.r.r.r.r.r.o.V N | 0.0.5.5.5.5.0.0.| N z ",
"z V | 0.0.5.5.5.5.0.0.| N Z 5.v.v.v.v.v.v.v.v.5.Z M ~ } [ [ [ [ [ [ [ [ } ~ M Z 5.v.v.v.v.v.v.v.v.5.Z N | 0.0.5.5.5.5.0.0.| V z ",
"z V | 0.0.4.5.5.5.0.0.| N Z <.a.a.a.a.a.a.a.a.<.Z M ' X.X.[ [ [ [ [ [ ..X.' M Z <.a.a.a.a.a.a.a.a.<.Z N | 0.0.5.5.5.5.0.0.| V z ",
"z V | 0.0.5.5.4.4.0.0.| N M ] O.O.O.O.O.O.O.O.] N M ' X...[ [ [ [ [ [ ..X.' M N ] O.O.O.O.O.O.O.O.] M N | 0.0.4.4.4.4.0.0.| N z ",
"z Z o.r.r.r.r.r.r.r.r.o.V M ~ } [ [ [ [ [ [ [ ' M M ' X.X.............X.X.' M M ' } [ [ [ [ [ [ } ~ M V o.r.r.r.r.r.r.r.r.o.Z z ",
"z Z 5.v.v.v.v.v.v.v.v.5.Z M ~ ..[ [ [ [ [ [ } ' M M ' X.X...X.X.X.X...X.X.' M M ' ..[ [ [ [ [ [ ..~ M Z 5.v.v.v.v.v.v.v.v.5.Z z ",
"z Z <.a.a.a.a.a.a.a.a.2.Z M ' X.X...X.X...X.X.~ n x C W Q Q Q Q Q Q Q Q W C q n ~ X.X.X.X.X...X.X.' M Z 2.a.a.a.a.a.a.a.a.<.Z z ",
"z N ] O.O.O.O.O.O.O.O.[ M M ' X.X...X...X.X.X.^ w = & 6 9 0 0 0 0 0 0 9 6 & = w ! X.X...X.....X.X.' M M [ O.O.O.O.O.O.O.O.] N z ",
"z M ' } [ [ [ [ [ [ } ~ b x F Q Q Q W W Q Q Q B 7 + . X + $ $ $ $ $ $ + . . + 7 B Q Q Q W W Q Q Q F x b ~ } [ [ [ [ [ [ [ ' M z ",
"z M ' } [ [ [ [ [ } ..Q w - 7 0 0 9 6 6 9 0 0 7 * + X X + $ $ $ % % % # X X + * 7 0 0 9 6 6 9 0 0 7 - w Q ..} [ [ [ [ [ } ' M z ",
"z M ' X.X.X.X.X.X.X.X.Q 9 @ $ $ $ + X X # % % % % % O O % % % % * * : % O O % % % % % # X X + $ $ $ $ 9 Q X.X.X.X.X.X.X.X.' M z ",
"z M ' X.X.X.X.X.X.X.X.Q 9 $ # $ $ + X o % > > > > : % % : > > > > > > : % % : > > > > % o X # % $ $ $ 9 Q X.X.X.X.X.X.X.X.' M z ",
"z v E ' ' ~ ~ ~ ~ ' ' F 9 % % % % # O # : 3 3 3 > > : : > > > > > > > > : : > > > > > : # O % % % % % 9 F ' ' ' ' ' ' ' ' E v z ",
"z c v M M M M M M M M b 8 > > : : ; % % > > > > > > : : > > > > > > > > : : > > > > > , % % : > > > > e b M M M M M M M M v c z ",
"z v V Z Z Z Z Z Z Z Z S g i i s j i , ; > > > > > > : : > > > > > > > > : : > > > > > > ; ; > > > > > r m Z Z Z Z Z Z Z Z V v z ",
"z V  .9.9.6.6.6.6.6.6.3.+.Y Y T #.T t % > > > > > > : : > 3 3 3 > > > > : : > > > > 3 > : : > 3 > > > h %.r.6.6.6.6.6.9.9. .V z ",
"z Z 2.c.g.a.a.a.a.a.a.p.>.-.;.i.l.:.s % > > > > > > : : > > 3 3 > > > > : : > > > > 3 > : : > > > > > j =.c.c.a.a.a.a.g.g.2.Z z ",
"z N [ O.O.O.O.O.O.O.O.<.&.;.j.l.x.:.s % > > > > > > : : > > > > > > > > : : > > > > > > % % > > > > > f ` 1.1.O.O.O.O.O.O.[ N z ",
"z M ' } [ [ [ [ [ [ [ { ( T #.,.,.T t % > > > > > > : : > > > > > > > > : : > > > > > > * % > > > > > u Q X...[ [ [ [ [ } ' M z ",
"z M ' ..[ [ [ [ [ ....) l s j k k i , ; > 3 3 3 > > : : > > > > 3 3 > > : : > > > > > > % : > > > > > u Q ....[ [ [ [ [ } ' M z ",
"z M ' X.X.[ [ [ | X.X.Q u > > > > > ; : > 3 3 3 > > : : > > > > > > > > ; : > > > > > > % : > > > > > d Q ....[ [ [ [ X.X.' M z ",
"z M ' X.X.[ [ [ [ X.X.Q u > > > > > % % > > 3 3 > > * : > > > > > > > > ; : > > > > > > ; : > > > > > d Q ....[ [ [ [ X.X.' M z ",
"z M ' X.X.X.X.X.X.X.X.Q d > > > > > % % > > 3 3 > > : ; > 4 s j k k k i , ; > > > > > > ; ; > 4 s s 4 u Q X.X.X.X.X.X.X.X.' M z ",
"z M ' X.X.X.X.X.X.X.X./ d > > > > > ; % > > > > > > ; % > s R :.:.:.:.T t % > > 3 3 > > % % : s R R s u Q X.X.X.X.X.X.X.X.' M z ",
"z v E ' ' ' ' ' ' ' ' F u > > > > > % % > > > > > > ; % : k :.x.z.z.x.:.s % > > > 3 > > % % : k ,.,.k y F ' ' ~ ' ' ' ' ' E v z ",
"z c v M M M M M M M M b e > > > > > : : > > > > > > ; % : j :.x.z.z.x.:.s % > > 3 3 3 > : ; : k ,.,.k 8 b M M M M M M M M v c z ",
"z v V Z Z Z Z Z Z Z Z m r > > > > > : ; > > > > > > ; % : j :.x.z.z.x.:.s % : > 3 3 3 > ; ; > k ,.:.j e m Z Z Z Z Z Z Z Z V v z ",
"z V  .9.9.6.6.6.9.r.r.%.h > > > > > * : > > > > > > ; % > k ,.x.z.z.x.:.s ; > > > > > > ; % : k :.:.j f @.r.6.6.6.6.6.9.9. .V z ",
"z Z 2.c.g.a.a.a.a.c.c.=.j > > > > > % ; > > > > > > : ; > s R ,.:.:.:.T t ; > > > > > > ; % : k :.:.j h *.c.g.a.a.a.a.g.g.2.Z z ",
"z N [ O.O.O.O.O.O.O.1.` f > > > > > : : > 3 > > > > : : > 4 s k j j j i , : > 3 > > > > ; % : k :.:.j i _ O.O.O.O.O.O.O.O.[ N z ",
"z M ' } [ [ [ [ [ } ..Q d > > > > > : : > 3 > > > > : : > > > > > > > : : : > > > > > > ; % : k ,.,.j u Q ..} [ [ [ [ [ } ' M z ",
"z M ' ..[ [ [ [ [ ....Q u > > > > > : : > > > > > > ; : > > > > > > > > : : > > > > > > : % : k ,.,.k u Q ..} [ [ [ [ [ } ' M z ",
"z M ' X.X.[ [ [ [ ....Q d > > > > > : : > > > > > > ; ; > > > > > > > > : : > > > > > > % % > s R R s u Q ....[ [ [ [ X.X.' M z ",
"z M ' X.X.[ [ [ [ ..X.Q u > > > > > : : > > > > > > : % > > > > > > > > : : > > 3 3 3 > : : > 4 s s 4 u Q ....[ [ [ [ X.X.' M z ",
"z M ' X.X.X.X.X.X.X.X./ d > > > > > : : > > > > > > : % > > > > > > > > ; : > > 3 3 3 > : : > > > > > d Q X.X.X.X.X.X.X.X.' M z ",
"z M ' X.X.X.X.X.X.X.X./ d > > > > > : : > 3 3 3 > > : % > 3 3 > > > > > % : > > > > > > : : > > > > > d / X.X.X.X.X.X.X.X.' M z ",
"z v E ' ' ' ' ' ' ' ' F u > > > > > : : > 3 3 3 > > * : > 3 3 > > > > > : : > > > > > > : ; > > > > > u F ' ' ' ' ' ' ' ' E v z ",
"z c v M M M M M M M M b e > > > > > % : > > > > > > : : > 3 3 > > > > > % % > > > > > > : : > > > > > e b M M M M M M M M v c z ",
"z v V Z Z Z Z Z Z Z Z F g i i s j i , % > > > > > > : : > > 3 > > > > > ; % > > > > > > : : > > > > > r m Z Z Z Z Z Z Z Z V v z ",
"z V  .9.9.6.6.6.6.6.6.3.+.Y Y T #.T t % > > > > 3 > : : > > > > > 3 3 > : : > > > > > > : : > > > > > h %.r.6.6.6.6.6.9.9. .V z ",
"z Z 2.c.g.a.a.a.a.a.a.p.>.-.;.i.l.:.s % > > > 3 > > : : > > > > 3 3 3 > ; ; > > > > > > ; ; > > > > > j =.c.g.a.a.a.a.g.g.2.Z z ",
"z N [ 1.O.O.O.O.O.O.O.<.&.;.j.l.z.:.s % > > > > > > : : > > > > > > 3 > ; ; > > 3 3 > > ; ; > > > > > h ` O.O.O.O.O.O.O.O.[ N z ",
"z M ' } [ [ [ [ [ [ [ { ( T #.:.:.T t % > > > > > > : : > > > > > > > > ; ; > > > > > > ; ; > > > > > d Q } } [ [ [ [ [ [ ' M z ",
"z M ' ..[ [ [ [ [ } } ^ l i s j j i , % > > > > > > : : > > > > > > > > : ; > > > > > > : : > > > > > d Q ....[ [ [ [ [ } ' M z ",
"z M ' X.X.[ [ [ [ ..../ f 2 2 2 2 > : : 2 5 5 5 5 2 : : 2 5 5 5 5 5 5 2 : : 2 5 5 5 5 2 : : 2 5 5 5 5 j / ....[ [ [ [ X.X.' M z ",
"z M ' X.X.[ [ [ [ ....) P K J J J G , , H K K K J H , , H K K J K K K H , , H K K K K H , , H K K K K I ) ....[ [ [ [ X.X.' M z ",
"z M ' X.X.[ [ [ [ ...._ U L L L L J > > J L L L L J > > J L L L L L L J > > J L L L L J > > J L L L L U _ ....[ [ [ [ X.X.' M z "
};
