/* XPM */
static char *out2_4[] = {
/* columns rows colors chars-per-pixel */
"64 64 147 2 ",
"   c None",
".  c #45231F",
"X  c #452420",
"o  c #492622",
"O  c #4C2925",
"+  c #522B26",
"@  c #582D27",
"#  c #552D28",
"$  c #582E29",
"%  c #5E322D",
"&  c #4D373C",
"*  c #5B3432",
"=  c #513638",
"-  c #56393B",
";  c #60342F",
":  c #663631",
">  c #693732",
",  c #653934",
"<  c #6C3A35",
"1  c #6D3F3B",
"2  c #743D37",
"3  c #783E37",
"4  c #723E38",
"5  c #6E413C",
"6  c #71423D",
"7  c #79413C",
"8  c #503B41",
"9  c #5D3F41",
"0  c #623F41",
"q  c #5C4146",
"w  c #5F4348",
"e  c #4E4E5F",
"r  c #5A4952",
"t  c #644243",
"y  c #694547",
"u  c #6C4A45",
"i  c #6A464A",
"p  c #6D4A4E",
"a  c #734E4A",
"s  c #784F4B",
"d  c #73514D",
"f  c #79514D",
"g  c #6E4C50",
"h  c #724F52",
"j  c #6E5457",
"k  c #765253",
"l  c #7C5653",
"z  c #7E5855",
"x  c #725A5F",
"c  c #414D63",
"v  c #4F4F60",
"b  c #455168",
"n  c #49566D",
"m  c #525163",
"M  c #515468",
"N  c #5F5B6A",
"B  c #4C5972",
"V  c #525E75",
"C  c #665D6E",
"Z  c #546076",
"A  c #5D6075",
"S  c #566279",
"D  c #5A667B",
"F  c #61606F",
"G  c #7D6360",
"H  c #616070",
"J  c #636379",
"K  c #82463F",
"L  c #824740",
"P  c #8D4C45",
"I  c #904E47",
"U  c #9C554D",
"Y  c #87595C",
"T  c #915F61",
"R  c #866866",
"E  c #847775",
"W  c #8D7D7B",
"Q  c #927F7D",
"!  c #94807F",
"~  c #5B6985",
"^  c #656A81",
"/  c #6C6D85",
"(  c #696F89",
")  c #63718F",
"_  c #6F728A",
"`  c #717087",
"'  c #7E7980",
"]  c #74738A",
"[  c #79768B",
"{  c #7A798D",
"}  c #637390",
"|  c #6E7C97",
" . c #6E7E9F",
".. c #737C94",
"X. c #6F7FA0",
"o. c #76839C",
"O. c #7B869D",
"+. c #6F80A1",
"@. c #7081A1",
"#. c #7C89A0",
"$. c #7E8CA9",
"%. c #878084",
"&. c #86818F",
"*. c #958785",
"=. c #998887",
"-. c #998D8B",
";. c #878290",
":. c #898E95",
">. c #8F8B9B",
",. c #908D9D",
"<. c #8F9090",
"1. c #939595",
"2. c #9E9392",
"3. c #90959A",
"4. c #A09594",
"5. c #838FA5",
"6. c #828FA9",
"7. c #8590A7",
"8. c #8C91A0",
"9. c #8794AF",
"0. c #8895AF",
"q. c #8F99AD",
"w. c #8F99AD",
"e. c #909AAE",
"r. c #909AAE",
"t. c #8895B0",
"y. c #8996B0",
"u. c #8A97B1",
"i. c #909CB5",
"p. c #919DB6",
"a. c #929EB6",
"s. c #909BB0",
"d. c #9DA0A0",
"f. c #98A1B2",
"g. c #99A5BC",
"h. c #9BA6BD",
"j. c #9BA7BE",
"k. c #9BA6BD",
"l. c #9DA8BF",
"z. c #9CA8BF",
"x. c #A1A3A2",
"c. c #ABAEAE",
"v. c #B0B3B3",
"b. c #9CA9C0",
"n. c #A0ABC0",
"m. c #A1ACC1",
"M. c #A2ADC2",
/* pixels */
"                                                                                                                                ",
"                                                                                                                                ",
"                                                                                                                                ",
"                                                                                                                                ",
"                                                                                                                                ",
"                                                                                                                                ",
"                                                                                                                                ",
"                                                                                                                                ",
"                                                    0.0.0.0.0.0.0.0.0.0.0.0.                                                    ",
"                                                    0.0.0.0.0.0.0.0.0.0.0.0.                                                    ",
"                                                    t.0.0.0.0.0.0.0.0.0.0.t.                                                    ",
"                                                    6.0.0.0.0.0.9.9.0.0.0.6.                                                    ",
"                            0.0.0.0.0.0.0.t.t.o.V S O.t.t.9.9.9.0.0.0.t.t.O.S V o.t.t.0.0.0.0.0.0.0.                            ",
"                            0.0.0.0.0.0.0.t.t.o.V Z #.p.p.p.p.p.p.p.p.p.p.#.Z V o.t.t.0.0.0.0.0.0.0.                            ",
"                            t.0.0.0.0.0.0.t.t.o.V S 0.n.n.n.n.n.n.n.n.n.n.0.S V o.t.t.0.0.0.0.0.0.t.                            ",
"                            6.0.0.0.0.0.9.t.t.o.V S 5.g.g.g.g.g.g.g.g.g.g.5.S V o.t.t.0.9.9.9.0.0.6.                            ",
"c Z o.t.t.0.0.0.0.t.t.o.V S O.t.0.9.9.9.9.t.t.o.V V | $.$.$.$.$.$.$.$.$.$.| B V o.t.0.9.9.9.9.0.t.O.S V o.t.t.0.0.0.0.t.t.o.Z c ",
"c Z o.t.t.0.0.0.0.t.t.o.V Z #.p.p.p.p.p.p.p.p.#.Z B ) X. . . . . . . . . .) B Z #.p.p.p.p.p.p.p.p.#.Z V o.t.t.0.0.0.0.t.t.o.V c ",
"c Z o.t.t.0.0.0.0.t.t.o.V S 0.n.n.n.n.n.n.n.n.0.S B ) X. . . . . . . . .X.) B S 0.n.n.n.n.n.n.n.n.0.S V o.t.t.0.0.0.0.t.t.o.Z c ",
"c Z o.t.t.9.0.0.0.t.t.o.V S 5.g.g.g.g.g.g.g.g.5.S B } @.@. . . . . . .+.@.} B S 5.g.g.g.g.g.g.g.g.5.S V o.t.t.0.0.0.0.t.t.o.Z c ",
"c Z o.t.t.0.0.9.9.t.t.o.V B | $.$.$.$.$.$.$.$.| V B } @.+. . . . . . .+.@.} B V | $.$.$.$.$.$.$.$.| B V o.t.t.9.9.9.9.t.t.o.V c ",
"c S #.p.p.p.p.p.p.p.p.#.Z B ) X. . . . . . . .} B B } @.@.+.+.+.+.+.+.@.@.} B B } X. . . . . . .X.) B Z #.p.p.p.p.p.p.p.p.#.S c ",
"c S 0.n.n.n.n.n.n.n.n.0.S B ) +. . . . . . .X.} B B } @.@.+.@.@.@.@.+.@.@.} B B } +. . . . . . .+.) B S 0.n.n.n.n.n.n.n.n.0.S c ",
"c S 5.g.g.g.g.g.g.g.g.7.S B } @.@.+.@.@.+.@.@.) M v A ^ / / / / / / / / ^ A e M ) @.@.@.@.@.+.@.@.} B S 7.g.g.g.g.g.g.g.g.5.S c ",
"c V | $.$.$.$.$.$.$.$. .B B } @.@.+.@.@.@.@.@.( r = & 8 q w w w w w w q 8 & = r ( @.@.+.+.+.+.@.@.} B B  .$.$.$.$.$.$.$.$.| V c ",
"c B } X. . . . . . .X.) m v J / / / ^ ^ / / / C 9 + . X + $ $ $ $ $ $ + . . + 9 C / / / ^ ^ / / / J v m ) X. . . . . . . .} B c ",
"c B } X. . . . . .X.+./ r - 9 w w q 8 8 q w w 9 * + X X + $ $ $ % % % # X X + * 9 w w q 8 8 q w w 9 - r / +.X. . . . . .X.} B c ",
"c B } @.@.@.@.@.@.@.@./ q @ $ $ $ + X X # % % % % % O O % % % % * * : % O O % % % % % # X . + $ $ $ $ q / @.@.@.@.@.@.@.@.} B c ",
"c B } @.@.@.@.@.@.@.@./ q $ # $ $ + X o % > > > > : % % : > > > , > > : % % : > > > > % o X # % $ $ $ q / @.@.@.@.@.@.@.@.} B c ",
"c n ~ } } ) ) ) ) } } J q % % % % # O # : 1 1 1 > > : : > > > > > > > > : : > > > > > : # O % % % % % q J } } } } } } } } ~ n c ",
"c b n B B B B B B B B m 0 > > : : ; % % , > > > > > : : > > > > > > > > : : > > > > > , % % : > > > > t m B B B B B B B B n b c ",
"c n Z S S S S S S S S F j a a f l a , ; > > > > > > : : > > > > > > > > : : > > > > > > ; ; > > > > > y N S S S S S S S S Z n c ",
"c Z O.r.r.q.q.q.q.q.q.8.%.E E W -.W u % > > > > > > : : > 1 1 > > > > > ; ; > > > > 1 > : : > > > > > k ;.p.q.q.q.q.q.r.r.O.Z c ",
"c S 7.b.l.g.g.g.g.g.g.f.3.<.1.d.c.2.f % : > > > > > : : > > 1 1 > > > > ; ; > > > > > > : : > > > > > l ,.b.b.g.g.g.g.l.l.7.S c ",
"c V  .$.$.$.$.$.$.$.$.5.:.1.x.c.v.2.f % > > > > > > ; : > > > > > > > > ; ; : > > > > > ; : > > > > > h { 6.$.$.$.$.$.$.$. .V c ",
"c B } X. . . . . . . ...' W -.4.4.W u % > > > 6 f f , % > > > > 1 > > > % , a f 6 > > > * : > > > > > p / +.+. . . . . .X.} B c ",
"c B } +. . . . . .+.+.] x f l z z a , % > > > l *.W u $ : > > > 1 1 > > % u Q ! f > > > % : > > > > > p / +.+. . . . . .X.} B c ",
"c B } @.@. . . . .@.@./ p > > > > > ; : > > > f ! *.G u 1 > > > > > > 5 a G *.! f > > > % : > > > > > g / +.+. . . . .@.@.} B c ",
"c B } @.@. . . . .@.@./ p > > > > > ; : > > > 6 f R *.Q f > > > > > > f ! *.R f 6 > > > ; ; > > > > > g / +.+. . . . .@.@.} B c ",
"c B } @.@.@.@.@.@.@.@./ g > > > > > : : > > 1 > > a Q Q f > > > > > > f ! Q f > > > > > ; % > 6 f f 6 p / @.@.@.@.@.@.@.@.} B c ",
"c B } @.@.@.@.@.@.@.@.` g > > > > > ; ; > > > > > 5 a a 5 > > > > > > 5 a a 1 > > > 1 > : ; > f Q Q f p / @.@.@.@.@.@.@.@.} B c ",
"c n ~ } } } } } } } } J p > > > > > ; ; > > > > > > % % > 6 f f 6 > > > % % > > > > 1 > : ; > z 4.4.z i J } } ) } } } } } ~ n c ",
"c b n B B B B B B B B m t > > > > > : : > > > > > > % % > f *.! f > > > % % > > > > > > ; % > z 4.4.z 0 v B B B B B B B B n b c ",
"c n Z S S S S S S S S N y > > > > > : % > > > > > > ; % > f ! -.R f 6 > ; : > > > > > > ; % : z 4.4.l t N S S S S S S S S Z n c ",
"c Z O.r.r.q.q.q.r.p.p.;.k > > > > > ; * > > > > > > ; ; > 6 f R =.! f > ; : > > > > > > % % : z 2.2.l h &.p.q.q.q.q.q.r.r.O.Z c ",
"c S 7.b.l.g.g.g.g.b.b.,.l > > > > > ; ; > > > > > > % % > > > f ! *.f > ; : > > > > > > ; % : z 2.2.l k >.b.l.g.g.g.g.l.l.7.S c ",
"c V  .$.$.$.$.$.$.$.6.{ h > > > > > : : > 1 > > > > % % > > > 6 f f 6 > : : > > > > > > ; % : z 2.2.l a [ $.$.$.$.$.$.$.$. .V c ",
"c B } X. . . . . .X.+./ g > > > > > : : > 1 > > > 5 a a 5 > > > > > > > : , f f 6 > > > ; % : z 4.4.l p / +.X. . . . . .X.} B c ",
"c B } +. . . . . .+.+./ g > > > > > : : > > > > > a Q Q f > > > > > > > ; p ! *.f > > > ; % : z 4.4.l p / +.X. . . . . .X.} B c ",
"c B } @.@. . . . .+.+./ g > > > > > : : > > > 6 f R *.Q f > > > > > > > ; p Q -.R f 6 > ; % > f Q Q f p / @.+. . . . .@.@.} B c ",
"c B } @.@. . . . .+.@./ p > > > > > : : > > > f ! *.G u 1 > > > > > > > ; , a R -.! f > % ; > 6 f f 6 p / +.+. . . . .@.@.} B c ",
"c B } @.@.@.@.@.@.@.@./ g > > > > > : : > > > f *.Q u % : > > > > > > > ; % : f ! *.f > % ; > > > > > g / @.@.@.@.@.@.@.@.} B c ",
"c B } @.@.@.@.@.@.@.@.` g > > > > > : : > > > 6 f f , % > 1 1 > > > > > ; % > 6 f f 6 > % : > > > > > g ` @.@.@.@.@.@.@.@.} B c ",
"c n ~ } } } } } } } } J p > > > > > : : > > > > > > ; : > 1 1 > > > > > ; ; > > > > > > : ; > > > > > p J } } } } } } } } ~ n c ",
"c b n B B B B B B B B m t > > > > : : : > > > > > > ; : > 1 > > > > > > ; ; > > > > > > : : > > > > > t m B B B B B B B B n b c ",
"c n Z S S S S S S S S J j a a f l a , : > > > > > > : : > > 1 > > > > > ; ; > > > > > > : : > > > > > y N S S S S S S S S Z n c ",
"c Z O.r.r.q.q.q.q.q.q.8.%.E E W -.W u % > > > > 1 > : : > > > > > > 1 > : : > > > > > > : : > > > > > k ;.p.q.q.q.q.q.r.r.O.Z c ",
"c S 7.b.l.g.g.g.g.g.g.f.3.<.1.d.c.2.f % > > > 1 > > : : > > > > > 1 1 > ; ; > > > > > > ; ; > > > > > l ,.b.l.g.g.g.g.l.l.7.S c ",
"c V  .6.$.$.$.$.$.$.$.5.:.1.x.c.v.2.f % > > > > > > : : > > > > > > 1 > ; ; > > 1 1 > > ; ; > > > > > k { $.$.$.$.$.$.$.$. .V c ",
"c B } X. . . . . . . ...' W -.2.2.W u % > > > > > > : : > > > > > > > > ; ; > > > > > > ; ; > > > > > g / X.X. . . . . . .} B c ",
"c B } +. . . . . .X.X._ x a f l l a , % > > > > > > : : > > > > > > > > : ; > > > > > > : : > > > > > g / +.+. . . . . .X.} B c ",
"c B } @.@. . . . .+.+.` h 3 3 3 3 > : : 3 7 7 7 7 3 : : 3 7 7 6 7 7 7 3 : : 3 7 7 7 7 3 : : 3 7 7 7 7 l ` +.+. . . . .@.@.} B c ",
"c B } @.@. . . . .+.+.] Y I P P P K , , L I I I P L , , L I I P I I I L , , L I I I I L , , L I I I I Y ] +.+. . . . .@.@.} B c ",
"c B } @.@. . . . .+.+.[ T U U U U P > > P U U U U P > > P U U U U U U P > > P U U U U P > > P U U U U T [ +.+. . . . .@.@.} B c "
};
