/* XPM */
static char *out2_1[] = {
/* columns rows colors chars-per-pixel */
"64 64 181 2 ",
"   c None",
".  c #060709",
"X  c #160B0C",
"o  c #190E0E",
"O  c #191718",
"+  c #2B1716",
"@  c #2E1A19",
"#  c #251818",
"$  c #1E1F20",
"%  c #2B2121",
"&  c #262628",
"*  c #292A2C",
"=  c #242122",
"-  c #332B2B",
";  c #3D2B2A",
":  c #3B2F30",
">  c #3C3738",
",  c #3D3939",
"<  c #2D2F30",
"1  c #45231F",
"2  c #452421",
"3  c #492623",
"4  c #4D2926",
"5  c #4A2C2A",
"6  c #402826",
"7  c #522B26",
"8  c #542D29",
"9  c #582E2A",
"0  c #582D27",
"q  c #5D322D",
"w  c #57312E",
"e  c #433B3C",
"r  c #4D3536",
"t  c #5C3533",
"y  c #543738",
"u  c #4D302E",
"i  c #60342F",
"p  c #643631",
"a  c #683732",
"s  c #663934",
"d  c #6C3A35",
"f  c #633D39",
"g  c #713C37",
"h  c #723E38",
"j  c #783E37",
"k  c #49403F",
"l  c #6A433F",
"z  c #71413C",
"x  c #79413C",
"c  c #3D3F40",
"v  c #503B41",
"b  c #5D3F41",
"n  c #623F41",
"m  c #414445",
"M  c #4D4444",
"N  c #4B4B4C",
"B  c #5C4146",
"V  c #5F4348",
"C  c #524948",
"Z  c #4D4E5A",
"A  c #5A4952",
"S  c #535455",
"D  c #5A5C5D",
"F  c #58504F",
"G  c #644243",
"H  c #694547",
"J  c #6C4945",
"K  c #6C4A4E",
"L  c #6A464A",
"P  c #744E4A",
"I  c #72514D",
"U  c #79514C",
"Y  c #6E4C50",
"T  c #724F52",
"R  c #675454",
"E  c #765253",
"W  c #7C5653",
"Q  c #7E5855",
"!  c #725A5F",
"~  c #414D63",
"^  c #4F4F60",
"/  c #455168",
"(  c #49566D",
")  c #525163",
"_  c #5F5B6A",
"`  c #565865",
"'  c #4C5972",
"]  c #525E75",
"[  c #665D6E",
"{  c #546076",
"}  c #566279",
"|  c #5A667B",
" . c #5D6075",
".. c #626364",
"X. c #696768",
"o. c #67686D",
"O. c #636379",
"+. c #676870",
"@. c #727373",
"#. c #7A7474",
"$. c #82463F",
"%. c #824740",
"&. c #8D4C45",
"*. c #904E47",
"=. c #9C554D",
"-. c #87595C",
";. c #915F61",
":. c #827675",
">. c #8C7D7B",
",. c #937E7C",
"<. c #5B6985",
"1. c #656A81",
"2. c #6C6D85",
"3. c #696F89",
"4. c #63718F",
"5. c #6F728A",
"6. c #74738A",
"7. c #79768B",
"8. c #7A798D",
"9. c #787483",
"0. c #637390",
"q. c #6E7C97",
"w. c #6E7E9F",
"e. c #737C94",
"r. c #6F7FA0",
"t. c #76839C",
"y. c #7B869D",
"u. c #6F80A1",
"i. c #7081A1",
"p. c #7C89A0",
"a. c #7E8CA9",
"s. c #848384",
"d. c #8D8D8D",
"f. c #86818F",
"g. c #998D8B",
"h. c #878290",
"j. c #8B8E93",
"k. c #8F8B9B",
"l. c #908D9D",
"z. c #8F9090",
"x. c #929393",
"c. c #9E9392",
"v. c #9B9A9B",
"b. c #90959A",
"n. c #A09594",
"m. c #838FA5",
"M. c #828FA9",
"N. c #8590A7",
"B. c #8794AF",
"V. c #8895AF",
"C. c #8F99AD",
"Z. c #8F99AD",
"A. c #8C91A0",
"S. c #909AAE",
"D. c #8996B0",
"F. c #8A97B1",
"G. c #8895B0",
"H. c #909CB5",
"J. c #919DB6",
"K. c #929EB6",
"L. c #909BB0",
"P. c #9DA0A0",
"I. c #99A5BC",
"U. c #9BA6BD",
"Y. c #9BA7BE",
"T. c #9BA6BD",
"R. c #9DA8BF",
"E. c #9CA8BF",
"W. c #98A1B2",
"Q. c #A4A4A4",
"!. c #ACADAD",
"~. c #B2B2B2",
"^. c #B9BABA",
"/. c #9CA9C0",
"(. c #A0ABC0",
"). c #A1ACC1",
"_. c #A2ADC2",
"`. c #C1C2C2",
"'. c #CACBCC",
"]. c #D8D8D8",
"[. c #E5E5E5",
/* pixels */
"                                                                                                                                ",
"                                                                                                                                ",
"                                                                                                                                ",
"                                                                                                                                ",
"                                                                                                                                ",
"                                                                                                                                ",
"                                                                                                                                ",
"                                                                                                                                ",
"                                                    V.V.V.V.V.V.V.V.V.V.V.V.                                                    ",
"                                                    V.V.V.V.V.V.V.V.V.V.V.V.                                                    ",
"                                                    G.V.V.V.V.V.V.V.V.V.V.G.                                                    ",
"                                                    M.V.V.V.V.V.B.B.V.V.V.M.                                                    ",
"                            V.V.V.V.V.V.V.G.G.t.] } y.G.G.B.B.B.V.V.V.G.G.y.} ] t.G.G.V.V.V.V.V.V.V.                            ",
"                            V.V.V.V.V.V.V.G.G.t.] { p.J.J.J.J.J.J.J.J.J.J.p.{ ] t.G.G.V.V.V.V.V.V.V.                            ",
"                            G.V.V.V.V.V.V.G.G.t.] } V.(.(.(.(.(.(.(.(.(.(.V.} ] t.G.G.V.V.V.V.V.V.G.                            ",
"                            M.V.V.V.V.V.B.G.G.t.] } m.I.I.I.I.I.I.I.I.I.I.m.} ] t.G.G.V.B.B.B.V.V.M.                            ",
"~ { t.G.G.V.V.V.V.G.G.t.] } y.G.V.B.B.B.B.G.G.t.] ] q.a.a.a.a.a.a.a.a.a.a.q.' ] t.G.V.B.B.B.B.V.G.y.} ] t.G.G.V.V.V.V.G.G.t.{ ~ ",
"~ { t.G.G.V.V.V.V.G.G.t.] { p.J.J.J.J.J.J.J.J.p.{ ' 4.r.w.w.w.w.w.w.w.w.w.4.' { p.J.J.J.J.J.J.J.J.p.{ ] t.G.G.V.V.V.V.G.G.t.] ~ ",
"~ { t.G.G.V.V.V.V.G.G.t.] } V.(.(.(.(.(.(.(.(.V.} ' 4.r.w.w.w.w.w.w.w.w.r.4.' } V.(.(.(.(.(.(.(.(.V.} ] t.G.G.V.V.V.V.G.G.t.{ ~ ",
"~ { t.G.G.B.V.V.V.G.G.t.] } m.I.I.I.I.I.I.I.I.m.} ' 0.i.i.w.w.w.w.w.w.u.i.0.' } m.I.I.I.I.I.I.I.I.m.} ] t.G.G.V.V.V.V.G.G.t.{ ~ ",
"~ { t.G.G.V.V.B.B.G.G.t.] ' q.a.a.a.a.a.a.a.a.q.] ' 0.i.u.w.w.w.w.w.w.u.i.0.' ] q.a.a.a.a.a.a.a.a.q.' ] t.G.G.B.B.B.B.G.G.t.] ~ ",
"~ } p.J.J.J.J.J.J.J.J.p.{ ' 4.r.w.w.w.w.w.w.w.0.' ' 0.i.i.u.u.u.u.u.u.i.i.0.' ' 0.r.w.w.w.w.w.w.r.4.' { p.J.J.J.J.J.J.J.J.p.} ~ ",
"~ } V.(.(.(.(.(.(.(.(.V.} ' 0.u.w.w.w.w.w.w.r.0.' ' 0.i.i.u.i.i.i.i.u.i.i.0.' ' 0.u.w.w.w.w.w.w.u.4.' } V.(.(.(.(.(.(.(.(.V.} ~ ",
"~ } m.I.I.I.I.I.I.I.I.N.} ' 0.i.i.u.i.i.u.i.i.4.) ^  .1.2.2.2.2.2.2.2.2.1. .^ ) 4.i.i.i.i.i.u.i.i.0.' } N.I.I.I.I.I.I.I.I.m.} ~ ",
"~ ] q.a.a.a.a.a.a.a.a.w.' ' 0.i.i.u.i.i.i.i.i.3.A y r v B V V V V V G B v r y A 3.i.i.u.i.i.u.i.i.0.' ' w.a.a.a.a.a.a.a.a.q.] ~ ",
"~ ' 0.r.w.w.w.w.w.w.r.4.) ^ O.2.2.2.1.1.2.2.2.[ b 7 1 2 7 9 9 9 9 9 9 7 2 1 7 b [ 2.2.2.1.1.2.2.2.O.^ ) 4.r.w.w.w.w.w.w.w.0.' ~ ",
"~ ' 0.r.w.w.w.w.w.r.u.2.A y b V V B v v B V G b t 7 2 2 7 9 9 9 9 9 9 7 2 2 7 t b V V B v v B V V b y A 2.u.u.w.w.w.w.w.r.0.' ~ ",
"~ ' 0.i.i.i.i.i.i.i.i.2.B 0 9 9 9 7 2 2 8 q i i q q 4 4 q q q q q q q q 4 4 q q q q q 8 2 1 7 9 9 9 9 B 2.i.i.i.i.i.i.i.i.0.' ~ ",
"~ ' 0.i.i.i.i.i.i.i.i.2.B 9 9 9 9 7 2 3 i s s s s p q q p s s s s s s p q q p s s a s q 3 2 7 9 9 9 9 B 2.i.i.i.i.i.i.i.i.0.' ~ ",
"~ ( <.0.0.4.4.4.4.0.0.O.B q q q q 8 4 8 p g g g s s p p s s s s s s s s p p s s s s s p 8 4 q i q q q B O.0.0.0.0.0.0.0.0.<.( ~ ",
"~ / ( ' ' ' ' ' ' ' ' ) n a a p p i q q s s s s s s p i s s g g g s g s p p s s s s s s q q p s s s s G ) ' ' ' ' ' ' ' ' ( / ~ ",
"~ ( { } } } } } } } } +.R P P U W P f i s s s s s s p p s s 9 7 7 9 s s p p s s s s s s i i s s s s s H _ } } } } } } } } { ( ~ ",
"~ { y.S.S.C.C.C.C.C.C.A.s.:.:.>.g.>.J q a s s s s s p p s q + X X @ q s p i s s s s g s p p s g g s s E h.J.S.C.C.C.C.S.S.y.{ ~ ",
"~ } N./.R.I.I.I.I.I.I.W.b.z.x.P.!.c.U q a s s s g p 8 4 4 u e m m e u 8 q p s s s s g s p p s s s s s W l./.R.I.I.I.I.R.R.N.} ~ ",
"~ ] w.a.a.a.a.a.a.a.a.m.j.x.Q.!.~.c.U q a s s s g q @ o X e v.'.'.v.e + 3 p s s s s s s i i s s s s s T 8.M.M.a.a.a.a.a.a.w.] ~ ",
"~ ' 0.r.w.w.w.w.w.w.w.e.9.>.g.n.n.>.J q a s s s g 8 o . $ S Q.].].^.X.> 6 4 p s s s s s i i s s s s s K 2.i.r.w.w.w.w.w.r.0.' ~ ",
"~ ' 0.u.w.w.w.w.w.r.i.6.! U W Q Q P f i s s s s g 8 o = ..#.S S @.v.^.v.> + 8 g s s s s i i s s s s s K 2.u.u.w.w.w.w.w.r.0.' ~ ",
"~ ' 0.i.i.w.w.w.w.i.i.2.K s s s s a i i s s s s s w @ m x.d.* O N x.].'.@.e 5 9 p s s s i i s s s s s Y 2.u.u.w.w.w.w.i.i.0.' ~ ",
"~ ' 0.i.i.w.w.w.w.i.i.2.K s s s s s i p s g s s s f M ..v.s.& $ @.Q.^.'.'.v.e + 8 g g s i i s s s s s Y 2.u.u.w.w.w.w.i.i.0.' ~ ",
"~ ' 0.i.i.i.i.i.i.i.i.2.K s s s s s p p s g s s s l R @.v.d.N N x.~.!.`.[.`.D - t g g s i i s z U U z K 2.i.i.i.i.i.i.i.i.0.' ~ ",
"~ ' 0.i.i.i.i.i.i.i.i.5.Y s s s s s i i s s s s s l R @.v.Q.d.d.Q.~.~.~.`.~.x.#.P g s s i i a U ,.,.U K 2.i.i.i.i.i.i.i.i.0.' ~ ",
"~ ( <.0.0.0.0.0.0.0.0.O.K s s s s s i i s s s p q t F @.v.~.~.Q.d.s.s.d.Q.!.~.c.K 9 p s i q a Q n.n.Q L O.0.0.4.0.0.0.0.0.<.( ~ ",
"~ / ( ' ' ' ' ' ' ' ' ) G s s s s s i i s g g q @ % N @.v.~.~.j.N & * N d.~.~.d.> + 9 s p q a Q n.n.Q n ^ ' ' ' ' ' ' ' ' ( / ~ ",
"~ ( { } } } } } } } } _ H s s s s s i i s g g q @ # > ..x.~.~.d.N O . * s.~.~.d.N > t s i i a Q n.n.W G _ } } } } } } } } { ( ~ ",
"~ { y.S.S.C.C.C.S.S.J.h.E s s g s s i i s s s f q 2 # , d.~.~.Q.z._ O & s.~.~.Q.x.:.P a i q p Q c.c.W T f.J.C.C.C.C.C.S.S.y.{ ~ ",
"~ } N./.R.I.I.I.I././.l.W s s g s s i i s s s g g 8 o & @.Q.!.~.~.x.N N d.~.~.Q.x.:.P a i q p Q c.c.W E k./.R.I.I.I.I.R.R.N.} ~ ",
"~ ] w.a.a.a.a.a.a.a.M.8.T s s s s s i p s s s g g 8 o O S s.Q.~.~.Q.d.d.Q.~.~.x.N > t s i q p Q c.c.W P 7.a.a.a.a.a.a.a.a.w.] ~ ",
"~ ' 0.r.w.w.w.w.w.r.u.2.K s s s s s i p s s s s s q @ = M @.v.~.~.~.~.!.j.s.s.X.- + 9 s i q p Q n.n.W K 2.u.r.w.w.w.w.w.r.0.' ~ ",
"~ ' 0.u.w.w.w.w.w.r.u.2.K s s s s s i i s s s s s p 7 u F @.v.~.~.~.~.x.N * * - 5 q s s i q a Q n.n.W K 2.u.r.w.w.w.w.w.r.0.' ~ ",
"~ ' 0.i.i.w.w.w.w.u.i.2.K s s s s s i p s s s s s s i t k D s.x.d.s.s.X.- X X @ q g g s i q a U ,.,.U K 2.i.i.w.w.w.w.i.i.0.' ~ ",
"~ ' 0.i.i.w.w.w.w.u.i.2.K s s s s s p p s s s s s s p 5 @ < D ..c * * - ; 3 4 q s g g s i i s z U U z K 2.u.i.w.w.w.w.i.i.0.' ~ ",
"~ ' 0.i.i.i.i.i.i.i.i.2.Y s s s g s p p s s s s s s p 4 + % M M % o o + 4 p s s g g g s i i s s s s s Y 2.i.i.i.i.i.i.i.i.0.' ~ ",
"~ ' 0.i.i.i.i.i.i.i.i.5.Y s s s s s p p s g g g s s p q 8 q f f q 8 8 8 q p s s s s s s i i s s s s s Y 2.i.i.i.i.i.i.i.i.0.' ~ ",
"~ ( <.0.0.0.0.0.4.0.0.O.K s s s s s i i s g s g s s i p s g g g s g g s i i s s s s s s i i s s s s s K O.0.0.0.0.0.0.0.0.<.( ~ ",
"~ / ( ' ' ' ' ' ' ' ' ) G s s s s a i i s s s s s s i i s g g g s s g s i i s s s s s s i p s s s s s G ) ' ' ' ' ' ' ' ' ( / ~ ",
"~ ( { } } } } } } } } O.R P P U W P f i s s s s s s i i s s s s s s s s i i s s s s s s p p s s s s s H [ } } } } } } } } { ( ~ ",
"~ { y.S.S.C.C.C.C.C.C.A.s.:.:.>.g.>.J q s s s s s s p p s s s s s s s s i i s s s s s s i i s s s s s E h.J.C.C.C.C.C.S.S.y.{ ~ ",
"~ } N./.R.I.I.I.I.I.I.W.b.z.x.P.!.c.U q a s s s s s p p s s s s s s s s i i s s s s s s i i s s s s s W l./.R.I.I.I.I.R.R.N.} ~ ",
"~ ] w.M.a.a.a.a.a.a.a.m.j.x.Q.!.~.c.U i a s s s s s p p s s s s s g s s i i s s g g s s i i s s g s s T 8.a.a.a.a.a.a.a.a.w.] ~ ",
"~ ' 0.r.w.w.w.w.w.w.w.e.9.>.g.c.c.>.J i a s s s s s p p s s s s s s g s i i s s s s s s i i s s s s s Y 2.r.w.w.w.w.w.w.w.0.' ~ ",
"~ ' 0.u.w.w.w.w.w.r.r.5.! P U W W P f q s s s s s s i i s s s s s s s s i i s s s s s s i i s s s s s K 2.u.r.w.w.w.w.w.r.0.' ~ ",
"~ ' 0.i.i.w.w.w.w.u.u.5.T j g g g g i p g x x x x g p p g x x x x x x g p p g x x x x g p p g x x x x W 5.u.i.w.w.w.w.i.i.0.' ~ ",
"~ ' 0.i.i.w.w.w.w.u.u.6.-.*.&.&.&.$.p f %.*.*.*.*.%.f s %.*.*.*.*.*.*.%.s s %.*.*.*.*.%.s s %.*.*.*.*.-.6.u.r.w.w.w.w.i.i.0.' ~ ",
"~ ' 0.i.i.w.w.w.w.u.u.7.;.=.=.=.=.&.s s &.=.=.=.=.&.s s &.=.=.=.=.=.=.&.s s &.=.=.=.=.&.s s &.=.=.=.=.;.7.u.r.w.w.w.w.i.i.0.' ~ "
};
