/* XPM */
static char *out2_9[] = {
/* columns rows colors chars-per-pixel */
"64 64 158 2 ",
"   c None",
".  c #3F1F1C",
"X  c #3F201C",
"o  c #3F211D",
"O  c #40211D",
"+  c #40211E",
"@  c #40221F",
"#  c #402320",
"$  c #412320",
"%  c #422421",
"&  c #462420",
"*  c #462521",
"=  c #452522",
"-  c #462522",
";  c #462623",
":  c #472623",
">  c #4C2925",
",  c #4F2A27",
"<  c #4F2B27",
"1  c #532B26",
"2  c #532C27",
"3  c #532D29",
"4  c #542D29",
"5  c #552E2A",
"6  c #562E2A",
"7  c #592F2A",
"8  c #592F2B",
"9  c #58302C",
"0  c #59302C",
"q  c #5A302C",
"w  c #5A312D",
"e  c #4B393E",
"r  c #4C393E",
"t  c #4F3C41",
"y  c #513C41",
"u  c #564245",
"i  c #5A4146",
"p  c #5F4348",
"a  c #58464A",
"s  c #404C62",
"d  c #414D63",
"f  c #424D63",
"g  c #424E63",
"h  c #424E64",
"j  c #434F65",
"k  c #455168",
"l  c #49546A",
"z  c #49566E",
"x  c #4B576F",
"c  c #4B5871",
"v  c #4B5971",
"b  c #4C5871",
"n  c #4C5971",
"m  c #4D5972",
"M  c #4D5A72",
"N  c #4D5A73",
"B  c #4E5A73",
"V  c #4E5B73",
"C  c #4F5C74",
"Z  c #4F5C75",
"A  c #505C74",
"S  c #515D75",
"D  c #515E75",
"F  c #525E75",
"G  c #535F76",
"H  c #536076",
"J  c #546076",
"K  c #556076",
"L  c #556177",
"P  c #596175",
"I  c #556178",
"U  c #566278",
"Y  c #576278",
"T  c #566279",
"R  c #576379",
"E  c #586379",
"W  c #58647A",
"Q  c #59657A",
"!  c #5B667B",
"~  c #5B667C",
"^  c #5B677C",
"/  c #5B6985",
"(  c #636880",
")  c #656A81",
"_  c #686B83",
"`  c #6A6C83",
"'  c #62718F",
"]  c #62728F",
"[  c #63728F",
"{  c #6F7388",
"}  c #637290",
"|  c #637390",
" . c #647390",
".. c #647391",
"X. c #657491",
"o. c #657492",
"O. c #667593",
"+. c #6E7C97",
"@. c #6B7B9A",
"#. c #6C7B9B",
"$. c #6F7D98",
"%. c #6E7E9E",
"&. c #6E7E9F",
"*. c #6E7F9F",
"=. c #6F7F9F",
"-. c #6E7FA0",
";. c #6F7FA0",
":. c #76839C",
">. c #77839C",
",. c #7C869B",
"<. c #79869F",
"1. c #6F80A0",
"2. c #6F80A1",
"3. c #6F81A2",
"4. c #7080A0",
"5. c #7080A1",
"6. c #7181A1",
"7. c #7081A2",
"8. c #7181A2",
"9. c #7C88A0",
"0. c #7D89A1",
"q. c #7D8BA8",
"w. c #7E8CA9",
"e. c #7E8DAA",
"r. c #7F8DAA",
"t. c #7F8EAB",
"y. c #7F8FAD",
"u. c #808292",
"i. c #858697",
"p. c #848FA6",
"a. c #828FA9",
"s. c #8590A7",
"d. c #8794AF",
"f. c #8893A9",
"g. c #8994A9",
"h. c #8895AF",
"j. c #8F99AD",
"k. c #909AAE",
"l. c #909AAF",
"z. c #919BAF",
"x. c #8895B0",
"c. c #8996B0",
"v. c #8A97B1",
"b. c #909BB0",
"n. c #909CB5",
"m. c #919DB6",
"M. c #929EB6",
"N. c #929EB7",
"B. c #99A5BC",
"V. c #9BA6BD",
"C. c #9BA7BE",
"Z. c #9CA8BF",
"A. c #9DA8BF",
"S. c #9CA8C0",
"D. c #9DAAC1",
"F. c #A0ABC0",
"G. c #A1ACC1",
"H. c #A2ADC2",
/* pixels */
"                                                                                                                                ",
"                                                                                                                                ",
"                                                                                                                                ",
"                                                                                                                                ",
"                                                                                                                                ",
"                                                                                                                                ",
"                                                                                                                                ",
"                                                                                                                                ",
"                                                    h.h.h.h.h.h.h.h.h.h.h.h.                                                    ",
"                                                    h.h.h.h.h.h.h.h.h.h.h.h.                                                    ",
"                                                    x.h.h.h.h.h.h.h.h.h.h.x.                                                    ",
"                                                    a.h.h.h.h.h.d.h.h.h.h.a.                                                    ",
"                            h.h.h.h.h.h.h.x.x.:.F T <.x.h.d.d.d.h.h.h.x.x.<.T F :.x.x.h.h.h.h.h.h.h.                            ",
"                            h.h.h.h.h.h.h.x.x.:.F J 9.m.m.m.m.m.m.m.m.m.m.9.J F :.x.x.h.h.h.h.h.h.h.                            ",
"                            x.h.h.h.h.h.h.x.x.:.F E h.F.F.F.F.F.F.F.F.F.F.h.E F :.x.x.h.h.h.h.h.h.x.                            ",
"                            a.h.h.h.h.h.h.x.x.:.F T p.B.B.B.B.B.B.B.B.B.B.p.T F :.x.x.h.h.h.h.h.h.a.                            ",
"d J :.x.x.h.h.h.h.x.x.:.F T <.x.h.d.d.d.d.x.x.:.F F +.w.w.w.w.w.w.w.w.w.w.+.n F :.x.h.d.d.d.d.h.x.<.T F :.x.x.h.h.h.h.x.x.:.J d ",
"d J :.x.x.h.h.h.h.x.x.:.F J 9.m.m.m.m.m.m.m.m.9.J n [ ;.%.%.%.%.%.%.%.%.;.[ n J 9.m.m.m.m.m.m.m.m.9.J F :.x.x.h.h.h.h.x.x.:.J d ",
"d J :.x.x.h.h.h.h.x.x.:.F E h.F.F.F.F.F.F.F.F.h.E n [ ;.%.%.%.%.%.%.%.%.1.[ n E h.F.F.F.F.F.F.F.F.h.E F :.x.x.h.h.h.h.x.x.:.J d ",
"d J :.x.x.h.h.h.h.x.x.:.F T p.B.B.B.B.B.B.B.B.p.T n O.4.4.%.%.%.%.%.%.4.4.O.n T p.B.B.B.B.B.B.B.B.p.T F :.x.x.h.h.h.h.x.x.:.J d ",
"d J :.x.x.h.h.d.h.x.x.:.F n +.w.w.w.w.w.w.w.w.+.F n O.4.4.%.%.%.%.%.%.4.4.O.n F +.w.w.w.w.w.w.w.w.+.n F :.x.x.h.d.d.d.x.x.:.F d ",
"d T 9.m.m.m.m.m.m.m.m.9.J n [ %.%.%.%.%.%.%.%.[ n n O.4.4.%.%.%.%.%.%.4.4.O.n n [ ;.%.%.%.%.%.%.%.[ n J 9.m.m.m.m.m.m.m.m.9.T d ",
"d E h.F.F.F.F.F.F.F.F.h.E n [ ;.%.%.%.%.%.%.;.[ n n O.4.4.%.%.%.%.%.%.4.4.O.n n O.1.%.%.%.%.%.%.1.[ n E h.F.F.F.F.F.F.F.F.h.E d ",
"d T p.B.B.B.B.B.B.B.B.p.T n O.4.4.%.%.%.%.4.4.O.n n O.4.4.%.%.%.%.%.%.4.4.O.n n O.4.4.%.%.%.%.4.4.O.n T p.B.B.B.B.B.B.B.B.p.T d ",
"d F +.w.w.w.w.w.w.w.w.+.F n O.4.4.%.%.%.%.%.%.%.                                %.%.%.%.%.%.%.4.4.O.n F +.w.w.w.w.w.w.w.w.+.F d ",
"d n O.;.%.%.%.%.%.%.%.O.n n O.4.4.%.%.%.%.%.%.1.                                4.%.%.%.%.%.%.4.4.O.n n O.%.%.%.%.%.%.%.%.O.n d ",
"d n O.1.%.%.%.%.%.%.%.%.                                                                                %.%.%.%.%.%.%.%.;.O.n d ",
"d n O.4.4.1.4.4.4.4.4.4.                                                                                4.4.4.4.4.4.4.4.4.O.n d ",
"d n O.4.4.4.4.4.4.4.4.4.                                                                                4.4.4.4.4.4.4.4.4.O.n d ",
"d x / O.O.[ O.O.O.O.O.O.                                                                                O.O.O.O.O.O.O.O.O./ z d ",
"d k z n n n n n n n n n                                                                                 n n n n n n n n n z k d ",
"d z J E E E E E E E E E                                                                                 E E E E E E E E E J z d ",
"d J <.z.z.j.j.j.j.j.j.j.                                                                                j.j.j.j.j.j.j.z.z.<.J d ",
"d E s.A.A.B.B.B.B.B.B.B.                                                                                B.B.B.B.B.B.B.A.S.s.E d ",
"d F %.a.w.w.w.w.w.w.w.w.                                                                                w.w.w.w.w.w.w.w.w.%.F d ",
"d n O.;.%.%.%.%.%.%.%.%.                                                                                %.%.%.%.%.%.%.%.%.O.n d ",
"d n O.1.%.%.%.%.%.%.%.%.                                                                                %.%.%.%.%.%.%.%.1.O.n d ",
"d n O.4.4.%.%.%.%.%.%.%.                                                                                %.%.%.%.%.%.%.4.4.O.n d ",
"d n O.4.4.%.%.%.%.%.%.%.                                                                                %.%.%.%.%.%.%.4.4.O.n d ",
"d n O.4.4.4.4.4.4.4.4.4.                                                                                4.4.4.4.4.4.4.4.4.O.n d ",
"d n O.4.4.4.4.4.4.4.4.4.                                                                                4.4.4.4.4.4.4.4.4.O.n d ",
"d z / O.O.O.O.O.O.O.O.O.                                                                                O.O.O.O.O.O.O.O.O./ z d ",
"d k z n n n n n n n n n                                                                                 n n n n n n n n n z k d ",
"d z J E E E E E E E E E                                                                                 E E E E E E E E E J z d ",
"d J <.z.z.j.j.j.j.j.j.j.                                                                                j.j.j.j.j.j.j.z.z.<.J d ",
"d E s.A.A.B.B.B.B.B.B.B.                                                                                B.B.B.B.B.B.B.B.S.s.E d ",
"d F %.w.w.w.w.w.w.w.w.w.                                                                                w.w.w.w.w.w.w.w.w.%.F d ",
"d n O.;.%.%.%.%.%.%.%.%.                                                                                %.%.%.%.%.%.%.%.%.O.n d ",
"d n O.1.%.%.%.%.%.%.%.%.                                                                                %.%.%.%.%.%.%.%.1.O.n d ",
"d n O.4.4.%.%.%.%.%.%.%.                                                                                %.%.%.%.%.%.%.4.4.O.n d ",
"d n O.4.4.%.%.%.%.%.%.%.                                                                                %.%.%.%.%.%.%.4.4.O.n d ",
"d n O.4.4.4.4.4.4.4.4.4.                                                                                4.4.4.4.4.4.4.4.4.O.n d ",
"d n O.4.4.4.4.4.4.4.4.4.                                                                                4.4.4.4.4.4.4.4.4.O.n d ",
"d x / O.O.O.O.O.O.O.O.O.                                                                                O.O.O.O.O.O.O.O.O./ z d ",
"d k z n n n n n n n n n                         & & & & @ @ & & @ & & & & & & &                         n n n n n n n n n z k d ",
"d z J E E E E E E E E P                         & & & & & @ & & & & & & & & & &                         P E E E E E E E E J z d ",
"d J <.z.z.j.j.j.j.z.m.u.p . o & & & & & & & & @ @ @ @ @ & & & & & & & & & & & & & & @ @ & & & @ & o . p u.m.z.j.j.j.j.z.z.<.J d ",
"d E s.A.A.B.B.B.B.S.S.u.u o o & & & & & & & & @ @ @ @ @ & & & & & & & & & & & & @ @ @ @ & & & & & + o u u.S.S.B.B.B.B.A.S.s.E d ",
"d F %.a.w.w.w.w.w.w.w.{ t o + & & & & & & & & & & & @ @ & & & & @ @ & & & & & & & & @ @ & & & & & + o t { w.w.w.w.w.w.w.w.%.F d ",
"d n O.;.%.%.%.%.%.;.1.( r + + & @ & & & & & & & & & & & & & & & & & & & & & & & & @ @ @ & & & & & + o r ( 1.;.%.%.%.%.%.%.O.n d ",
"d n O.1.%.%.%.%.%.1.1.( r o + & @ @ & & & @ @ & , , & & , 3 3 3 3 3 3 , & & , < & @ @ & & & @ @ & o o r ( 1.1.%.%.%.%.;.4.O.n d ",
"d n O.4.4.%.%.%.%.4.4.( y & & & & & & & & & & , 3 3 & & 3 w w w w w w 3 & & 3 3 , & & & & & & & & & & y ( 4.1.%.%.%.%.4.4.O.n d ",
"d n O.4.4.%.%.%.%.4.4.` i 1 3 3 3 , & & , 3 3 3 w 3 & & 3 w w w w w w 3 & & 3 w 3 3 3 , & & , 3 3 1 1 i ` 4.1.%.%.%.%.4.4.O.n d ",
"d n O.4.4.%.%.%.;.4.4.` p 7 7 w w 3 & & 3 w w w w 3 & & 3 w w w 9 w w 3 & & 3 w w w w 3 & & 3 w w 7 7 p ` 1.1.%.%.%.%.4.4.O.n d "
};
