/* XPM */
static char *out2_2[] = {
/* columns rows colors chars-per-pixel */
"64 64 178 2 ",
"   c None",
".  c #080607",
"X  c #140C0D",
"o  c #151112",
"O  c #2B1615",
"+  c #2B1D1D",
"@  c #291514",
"#  c #331C1A",
"$  c #1E1E20",
"%  c #1E2022",
"&  c #2E2E2F",
"*  c #362D2D",
"=  c #2F3234",
"-  c #3C3434",
";  c #3B3C3E",
":  c #323335",
">  c #45231F",
",  c #452420",
"<  c #4A2623",
"1  c #4D2926",
"2  c #4C2C29",
"3  c #522B26",
"4  c #582D27",
"5  c #552D29",
"6  c #582E2A",
"7  c #5D322D",
"8  c #56312D",
"9  c #4C393A",
"0  c #5C3532",
"q  c #513638",
"w  c #5A3938",
"e  c #60342F",
"r  c #643631",
"t  c #683732",
"y  c #663934",
"u  c #6C3A35",
"i  c #633C38",
"p  c #6D3E39",
"a  c #713C37",
"s  c #723E38",
"d  c #783E37",
"f  c #4B403F",
"g  c #68413D",
"h  c #71413C",
"j  c #79413C",
"k  c #503B41",
"l  c #5D3F41",
"z  c #623F41",
"x  c #474748",
"c  c #4A4849",
"v  c #5C4246",
"b  c #5F4348",
"n  c #5A4C4B",
"m  c #4E4E5F",
"M  c #5A4952",
"N  c #5A5D5E",
"B  c #644243",
"V  c #694547",
"C  c #6D4945",
"Z  c #6C4B4E",
"A  c #68494A",
"S  c #744E4A",
"D  c #72514D",
"F  c #79514C",
"G  c #6E4C50",
"H  c #724F52",
"J  c #6B5758",
"K  c #765253",
"L  c #7C5653",
"P  c #7E5855",
"I  c #725A5F",
"U  c #414D63",
"Y  c #4F4F60",
"T  c #455168",
"R  c #49566D",
"E  c #525163",
"W  c #5F5B6A",
"Q  c #555865",
"!  c #4C5972",
"~  c #525E75",
"^  c #665D6E",
"/  c #5E6161",
"(  c #546076",
")  c #566279",
"_  c #5A667B",
"`  c #5D6075",
"'  c #686468",
"]  c #756A69",
"[  c #636379",
"{  c #616070",
"}  c #7A7776",
"|  c #82463F",
" . c #824740",
".. c #8D4C45",
"X. c #904E47",
"o. c #9C554D",
"O. c #865B5B",
"+. c #915F61",
"@. c #816764",
"#. c #837776",
"$. c #8D7D7B",
"%. c #937E7C",
"&. c #5B6985",
"*. c #656A81",
"=. c #6C6D85",
"-. c #696F89",
";. c #63718F",
":. c #6F728A",
">. c #717087",
",. c #7E7980",
"<. c #74738A",
"1. c #79768B",
"2. c #7A798D",
"3. c #637390",
"4. c #6E7C97",
"5. c #6E7E9F",
"6. c #737C94",
"7. c #6F7FA0",
"8. c #7F8181",
"9. c #76839C",
"0. c #7B869D",
"q. c #6F80A1",
"w. c #7081A1",
"e. c #7C89A0",
"r. c #7E8CA9",
"t. c #848184",
"y. c #8C8C8C",
"u. c #87848B",
"i. c #998D8B",
"p. c #958C8B",
"a. c #98908F",
"s. c #878290",
"d. c #8B8E93",
"f. c #8F8B9B",
"g. c #908D9D",
"h. c #8F9090",
"j. c #939595",
"k. c #9E9392",
"l. c #93969A",
"z. c #A09594",
"x. c #A49D9C",
"c. c #838FA5",
"v. c #828FA9",
"b. c #8590A7",
"n. c #8794AF",
"m. c #8895AF",
"M. c #8F99AD",
"N. c #8F99AD",
"B. c #8C91A0",
"V. c #909AAE",
"C. c #8996B0",
"Z. c #8A97B1",
"A. c #8895B0",
"S. c #909CB5",
"D. c #919DB6",
"F. c #929EB6",
"G. c #909BB0",
"H. c #9DA0A0",
"J. c #98A1B2",
"K. c #99A5BC",
"L. c #9BA6BD",
"P. c #9BA7BE",
"I. c #9BA6BD",
"U. c #9DA8BF",
"Y. c #9CA8BF",
"T. c #A3A3A3",
"R. c #ACADAD",
"E. c #ABA5A5",
"W. c #B2B3B3",
"Q. c #B7B8B8",
"!. c #9CA9C0",
"~. c #A0ABC0",
"^. c #A1ACC1",
"/. c #A2ADC2",
"(. c #C7C8C8",
"). c #D1CFCF",
"_. c #DFD6D5",
"`. c #F9FAFA",
/* pixels */
"                                                                                                                                ",
"                                                                                                                                ",
"                                                                                                                                ",
"                                                                                                                                ",
"                                                                                                                                ",
"                                                                                                                                ",
"                                                                                                                                ",
"                                                                                                                                ",
"                                                    m.m.m.m.m.m.m.m.m.m.m.m.                                                    ",
"                                                    m.m.m.m.m.m.m.m.m.m.m.m.                                                    ",
"                                                    A.m.m.m.m.m.m.m.m.m.m.A.                                                    ",
"                                                    v.m.m.m.m.m.n.n.m.m.m.v.                                                    ",
"                            m.m.m.m.m.m.m.A.A.9.~ ) 0.A.A.n.n.n.m.m.m.A.A.0.) ~ 9.A.A.m.m.m.m.m.m.m.                            ",
"                            m.m.m.m.m.m.m.A.A.9.~ ( e.D.D.D.D.D.D.D.D.D.D.e.( ~ 9.A.A.m.m.m.m.m.m.m.                            ",
"                            A.m.m.m.m.m.m.A.A.9.~ ) m.~.~.~.~.~.~.~.~.~.~.m.) ~ 9.A.A.m.m.m.m.m.m.A.                            ",
"                            v.m.m.m.m.m.n.A.A.9.~ ) c.K.K.K.K.K.K.K.K.K.K.c.) ~ 9.A.A.m.n.n.n.m.m.v.                            ",
"U ( 9.A.A.m.m.m.m.A.A.9.~ ) 0.A.m.n.n.n.n.A.A.9.~ ~ 4.r.r.r.r.r.r.r.r.r.r.4.! ~ 9.A.m.n.n.n.n.m.A.0.) ~ 9.A.A.m.m.m.m.A.A.9.( U ",
"U ( 9.A.A.m.m.m.m.A.A.9.~ ( e.D.D.D.D.D.D.D.D.e.( ! ;.7.5.5.5.5.5.5.5.5.5.;.! ( e.D.D.D.D.D.D.D.D.e.( ~ 9.A.A.m.m.m.m.A.A.9.~ U ",
"U ( 9.A.A.m.m.m.m.A.A.9.~ ) m.~.~.~.~.~.~.~.~.m.) ! ;.7.5.5.5.5.5.5.5.5.7.;.! ) m.~.~.~.~.~.~.~.~.m.) ~ 9.A.A.m.m.m.m.A.A.9.( U ",
"U ( 9.A.A.n.m.m.m.A.A.9.~ ) c.K.K.K.K.K.K.K.K.c.) ! 3.w.w.5.5.5.5.5.5.q.w.3.! ) c.K.K.K.K.K.K.K.K.c.) ~ 9.A.A.m.m.m.m.A.A.9.( U ",
"U ( 9.A.A.m.m.n.n.A.A.9.~ ! 4.r.r.r.r.r.r.r.r.4.~ ! 3.w.q.5.5.5.5.5.5.q.w.3.! ~ 4.r.r.r.r.r.r.r.r.4.! ~ 9.A.A.n.n.n.n.A.A.9.~ U ",
"U ) e.D.D.D.D.D.D.D.D.e.( ! ;.7.5.5.5.5.5.5.5.3.! ! 3.w.w.q.q.q.q.q.q.w.w.3.! ! 3.7.5.5.5.5.5.5.7.;.! ( e.D.D.D.D.D.D.D.D.e.) U ",
"U ) m.~.~.~.~.~.~.~.~.m.) ! 3.q.5.5.5.5.5.5.7.3.! ! 3.w.w.q.w.w.w.w.q.w.w.3.! ! 3.q.5.5.5.5.5.5.q.;.! ) m.~.~.~.~.~.~.~.~.m.) U ",
"U ) c.K.K.K.K.K.K.K.K.b.) ! 3.w.w.q.w.w.q.w.w.;.E Y ` *.=.=.=.=.=.=.=.=.*.` m E ;.w.w.w.w.w.q.w.w.3.! ) b.K.K.K.K.K.K.K.K.c.) U ",
"U ~ 4.r.r.r.r.r.r.r.r.5.! ! 3.w.w.q.w.w.w.w.w.-.M q 9 k v b b b b b B v k 9 q M -.w.w.q.w.w.q.w.w.3.! ! 5.r.r.r.r.r.r.r.r.4.~ U ",
"U ! 3.7.5.5.5.5.5.5.7.;.E Y [ =.=.=.*.*.=.=.=.^ l 3 > , 3 6 6 6 6 6 6 3 , > 3 l ^ =.=.=.*.*.=.=.=.[ Y E ;.7.5.5.5.5.5.5.5.3.! U ",
"U ! 3.7.5.5.5.5.5.7.q.=.M w l b b v k k v b B l 0 3 , , 3 6 6 6 6 6 7 5 , , 3 0 l b b v k k v b b l w M =.q.7.5.5.5.5.5.7.3.! U ",
"U ! 3.w.w.w.w.w.w.w.w.=.v 4 6 6 6 3 , , 5 7 e e 7 7 1 1 7 7 7 7 e e e 7 1 1 7 7 7 7 7 5 , > 3 6 6 6 6 v =.w.w.w.w.w.w.w.w.3.! U ",
"U ! 3.w.w.w.w.w.w.w.w.=.v 6 5 6 6 3 , < e y y y y r 7 7 r y y y y y y r 7 7 r y t t y 7 < , 3 6 6 6 6 v =.w.w.w.w.w.w.w.w.3.! U ",
"U R &.3.3.;.;.;.;.3.3.[ v 7 7 7 7 5 1 5 r a a a y y r r y y y y y y y y r r y y y y y r 5 1 7 e 7 7 7 v [ 3.3.3.3.3.3.3.3.&.R U ",
"U T R ! ! ! ! ! ! ! ! E z t t r r e 7 7 y y y y y y r r y y y y y y y y r r y y y y y y 7 7 r y y y y B E ! ! ! ! ! ! ! ! R T U ",
"U R ( ) ) ) ) ) ) ) ) { J S S F L S i e y y y y y y e e y y y y y y y y e r y y y y y y e e y y y y y V W ) ) ) ) ) ) ) ) ( R U ",
"U ( 0.V.V.M.M.M.M.M.M.B.t.#.#.$.i.$.C 7 t y y y y y r r y y y y y y y y e e y y y y a y r r y a a y y K s.D.M.M.M.M.M.V.V.0.( U ",
"U ) b.!.U.K.K.K.K.K.K.J.l.h.j.H.R.k.F 7 t y y y y y r r y y a y y y y y e e y y y y a y r r y y y y y L g.!.U.K.K.K.K.U.U.b.) U ",
"U ~ 5.r.r.r.r.r.r.r.r.c.d.j.T.R.W.k.F 7 t y y y y y r r y d y y a y a y e e y y y y y y e e y y y y y H 2.v.v.r.r.r.r.r.r.5.~ U ",
"U ! 3.7.5.5.5.5.5.5.5.6.,.$.i.z.z.$.C 7 t y y y y y r 7 5 5 5 5 r y a y e e y y y y y y e e y y y y y Z >.w.7.5.5.5.5.5.7.3.! U ",
"U ! 3.q.5.5.5.5.5.7.7.<.I F L P P S i e y a a a y y r 5 # o X O 6 y a y e e y y y y y y e e y y y y y Z =.q.q.5.5.5.5.5.7.3.! U ",
"U ! 3.w.w.5.5.5.5.w.w.=.Z t t y y t e e y a a a y r 5 # X o = n @.O.i 5 6 e y y y y y y e e y y y y y G =.q.q.5.5.5.5.w.w.3.! U ",
"U ! 3.w.w.5.5.5.5.w.w.=.Z y y y y t 7 e y y a a y 7 O . . : j.)._.E.9 @ < r y y y y y y e e y y y y y G =.q.q.5.5.5.5.w.w.3.! U ",
"U ! 3.w.w.w.w.w.w.w.w.>.Z y y y y y e 7 y y a a y w - & . ; W.`.`.(.N * 2 e y y y y y y e e y h F F h Z =.w.w.w.w.w.w.w.w.3.! U ",
"U ! 3.w.w.w.w.w.w.w.w.>.G y y y y y e e y y y y y S #.' $ & j.(.(.Q.j.] g 7 t y a a y y e e t F %.%.F Z =.w.w.w.w.w.w.w.w.3.! U ",
"U R &.3.3.3.3.3.3.3.3.[ Z y y y y y e e y y y y y L p.t.x c y.T.y.y.T.x.@.C p y y a y y e e t P z.z.P V [ 3.3.3.3.3.3.3.3.&.R U ",
"U T R ! ! ! ! ! ! ! ! E B y y y y y e e y y y y y C ] } t.j.T.y.x x y.R.x.%.F y y a a y e e t P z.z.P z Y ! ! ! ! ! ! ! ! R T U ",
"U R ( ) ) ) ) ) ) ) ) W V y y y y y e e y y y y y i f / l.W.W.y.x x y.R.j.} S y y a a y e e t P z.z.L B W ) ) ) ) ) ) ) ) ( R U ",
"U ( 0.V.V.M.M.M.V.V.D.s.K y y a y y e e y y y y y 8 + ; y.W.W.T.y.y.T.h.c - 0 a y y y y e 7 r P k.k.L H s.D.M.M.M.M.M.V.V.0.( U ",
"U ) b.!.U.K.K.K.K.!.!.g.L y y a y y e e y y y y y 5 O * } T.R.W.W.W.W.u.- O 6 a y y y y e 7 r P k.k.L K f.!.U.K.K.K.K.U.U.b.) U ",
"U ~ 5.r.r.r.r.r.r.r.v.2.H y y y y y r r y a y y y r 1 q J t.T.W.W.W.W.p.B 1 r a y y y y e 7 r P k.k.L S 1.r.r.r.r.r.r.r.r.5.~ U ",
"U ! 3.7.5.5.5.5.5.7.q.=.Z y y y a y r r y a y y y y e w b ' y.j.y.y.a.$.C e y y y y y y e 7 r P z.z.L Z =.7.7.5.5.5.5.5.7.3.! U ",
"U ! 3.q.5.5.5.5.5.7.q.=.Z y y y y y e e y y y y y y e r i Z ] / ; - Z S i e y y y y y y e 7 t P z.z.L Z =.q.7.5.5.5.5.5.7.3.! U ",
"U ! 3.w.w.5.5.5.5.q.q.=.G y y y y y e e y y y y y y e e y g A c + O 6 y e r y y y a y y e 7 t F %.%.F Z =.w.w.5.5.5.5.w.w.3.! U ",
"U ! 3.w.w.5.5.5.5.q.w.=.Z y y y y y e r y y y y y y e e y p g i 8 6 r y e e y y a a a y e e y h F F h Z =.q.w.5.5.5.5.w.w.3.! U ",
"U ! 3.w.w.w.w.w.w.w.w.>.G y y y a y r r y y y y y y e e y y y y y y y y e e y y a a a y e e y y y y y G =.w.w.w.w.w.w.w.w.3.! U ",
"U ! 3.w.w.w.w.w.w.w.w.>.G y y y y y e e y a a a y y e e y a a a a a a y e e y y y y y y e e y y y y y G >.w.w.w.w.w.w.w.w.3.! U ",
"U R &.3.3.3.3.3.;.3.3.[ Z y y y y y e e y a a a y y e e y a a y y y y y e e y y y y y y e e y y y y y Z [ 3.3.3.3.3.3.3.3.&.R U ",
"U T R ! ! ! ! ! ! ! ! E B y y y y t e e y y y y y y e e y a y y y y y y e e y y y y y y e e y y y y y B E ! ! ! ! ! ! ! ! R T U ",
"U R ( ) ) ) ) ) ) ) ) { J S S F L S i e y y y y y y e r y a y y y y y y e e y y y y y y e r y y y y y V W ) ) ) ) ) ) ) ) ( R U ",
"U ( 0.V.V.M.M.M.M.M.M.B.t.#.#.$.i.$.C e y y y y y y r e y y y y y y y y e e y y y y y y e e y y y y y K s.D.M.M.M.M.M.V.V.0.( U ",
"U ) b.!.U.K.K.K.K.K.K.J.l.h.j.H.R.k.F 7 t y y y y y r r y y y y y y a y e e y y y y y y e e y y y y y L g.!.U.K.K.K.K.U.U.b.) U ",
"U ~ 5.v.r.r.r.r.r.r.r.c.d.j.T.R.W.k.F e t y y y y y r e y y y y a a y y e e y y a a y y e e y y a y y H 2.r.r.r.r.r.r.r.r.5.~ U ",
"U ! 3.7.5.5.5.5.5.5.5.6.,.$.i.k.k.$.C e t y y y y y r e y y y y y y y y e e y y y y y y e e y y y y y G =.7.7.5.5.5.5.5.5.3.! U ",
"U ! 3.q.5.5.5.5.5.7.7.:.I S F L L S i 7 y y y y y y e e y y y y y y y y e e y y y y y y e e y y y y y Z =.q.7.5.5.5.5.5.7.3.! U ",
"U ! 3.w.w.5.5.5.5.q.q.>.H d d d d a e r d j j j j d r r d j j j j j j d r r d j j j j d r r d j j j j L >.q.w.5.5.5.5.w.w.3.! U ",
"U ! 3.w.w.5.5.5.5.q.q.<.O.X.......| r i  .X.X.X.X. .y y  .X.X.X.X.X.X. .y y  .X.X.X.X. .y y  .X.X.X.X.O.<.q.7.5.5.5.5.w.w.3.! U ",
"U ! 3.w.w.5.5.5.5.q.q.1.+.o.o.o.o...y y ..o.o.o.o...y y ..o.o.o.o.o.o...y y ..o.o.o.o...y y ..o.o.o.o.+.1.q.7.5.5.5.5.w.w.3.! U "
};
