/* XPM */
static char *revbig_knight_run_anim_f4[] = {
/* columns rows colors chars-per-pixel */
"64 64 7 1 ",
"  c None",
". c #060608",
"X c #AC3232",
"o c #DF7126",
"O c #847E87",
"+ c #9BADB7",
"@ c white",
/* pixels */
"                                ....                            ",
"                                ....                            ",
"                                ....                            ",
"                                ....                            ",
"                            ....XXXX........                    ",
"                            ....XXXX........                    ",
"                            ....XXXX........                    ",
"                            ....XXXX........                    ",
"                ................OOOOXXXX....                    ",
"                ................OOOOXXXX....                    ",
"                ................OOOOXXXX....                    ",
"                ................OOOOXXXX....                    ",
"            ....++++++++++++++++OOOOOOOO....                    ",
"            ....++++++++++++++++OOOOOOOO....                    ",
"            ....++++++++++++++++OOOOOOOO....                    ",
"            ....++++++++++++++++OOOOOOOO....                    ",
"            ....@@@@@@@@@@@@@@@@@@@@++++OOOO....                ",
"            ....@@@@@@@@@@@@@@@@@@@@++++OOOO....                ",
"            ....@@@@@@@@@@@@@@@@@@@@++++OOOO....                ",
"            ....@@@@@@@@@@@@@@@@@@@@++++OOOO....                ",
"            ....................@@@@++++++++....                ",
"            ....................@@@@++++++++....                ",
"            ....................@@@@++++++++....                ",
"            ....................@@@@++++++++....                ",
"            ....@@@@....@@@@@@@@@@@@++++++++....                ",
"            ....@@@@....@@@@@@@@@@@@++++++++....                ",
"            ....@@@@....@@@@@@@@@@@@++++++++....                ",
"            ....@@@@....@@@@@@@@@@@@++++++++....                ",
"            ....@@@@@@@@@@@@++++++++++++OOOO....                ",
"            ....@@@@@@@@@@@@++++++++++++OOOO....                ",
"            ....@@@@@@@@@@@@++++++++++++OOOO....                ",
"            ....@@@@@@@@@@@@++++++++++++OOOO....                ",
"            ....XXXXooooXXXXXXXXOOOOOOOO....                    ",
"            ....XXXXooooXXXXXXXXOOOOOOOO....                    ",
"            ....XXXXooooXXXXXXXXOOOOOOOO....                    ",
"            ....XXXXooooXXXXXXXXOOOOOOOO....                    ",
"            ....OOOOOOOOOOOOOOOOXXXXXXXX....                    ",
"            ....OOOOOOOOOOOOOOOOXXXXXXXX....                    ",
"            ....OOOOOOOOOOOOOOOOXXXXXXXX....                    ",
"            ....OOOOOOOOOOOOOOOOXXXXXXXX....                    ",
"            ....OOOOOOOOOOOOOOOOOOOOOOOO....XXXX                ",
"            ....OOOOOOOOOOOOOOOOOOOOOOOO....XXXX                ",
"            ....OOOOOOOOOOOOOOOOOOOOOOOO....XXXX                ",
"            ....OOOOOOOOOOOOOOOOOOOOOOOO....XXXX                ",
"            ....++++++++++++++++OOOOOOOO....XXXXXXXX            ",
"            ....++++++++++++++++OOOOOOOO....XXXXXXXX            ",
"            ....++++++++++++++++OOOOOOOO....XXXXXXXX            ",
"            ....++++++++++++++++OOOOOOOO....XXXXXXXX            ",
"                ........................XXXXXXXXXXXXXXXX        ",
"                ........................XXXXXXXXXXXXXXXX        ",
"                ........................XXXXXXXXXXXXXXXX        ",
"                ........................XXXXXXXXXXXXXXXX        ",
"                                                                ",
"                                                                ",
"                                                                ",
"                                                                ",
"                                                                ",
"                                                                ",
"                                                                ",
"                                                                ",
"                                                                ",
"                                                                ",
"                                                                ",
"                                                                "
};
