/* XPM */
static char *revbig_knight_idle_anim_f5[] = {
/* columns rows colors chars-per-pixel */
"64 64 7 1 ",
"  c None",
". c #060608",
"X c #AC3232",
"o c #DF7126",
"O c #847E87",
"+ c #9BADB7",
"@ c white",
/* pixels */
"                                ....                            ",
"                                ....                            ",
"                                ....                            ",
"                                ....                            ",
"                            ....XXXX........                    ",
"                            ....XXXX........                    ",
"                            ....XXXX........                    ",
"                            ....XXXX........                    ",
"                ................OOOOXXXX....                    ",
"                ................OOOOXXXX....                    ",
"                ................OOOOXXXX....                    ",
"                ................OOOOXXXX....                    ",
"            ....++++++++++++++++OOOOOOOO....                    ",
"            ....++++++++++++++++OOOOOOOO....                    ",
"            ....++++++++++++++++OOOOOOOO....                    ",
"            ....++++++++++++++++OOOOOOOO....                    ",
"            ....++++++++++++++++++++++++OOOO....                ",
"            ....++++++++++++++++++++++++OOOO....                ",
"            ....++++++++++++++++++++++++OOOO....                ",
"            ....++++++++++++++++++++++++OOOO....                ",
"            ....++++++++++++++++++++++++++++....                ",
"            ....++++++++++++++++++++++++++++....                ",
"            ....++++++++++++++++++++++++++++....                ",
"            ....++++++++++++++++++++++++++++....                ",
"            ....@@@@@@@@@@@@@@@@@@@@++++++++....                ",
"            ....@@@@@@@@@@@@@@@@@@@@++++++++....                ",
"            ....@@@@@@@@@@@@@@@@@@@@++++++++....                ",
"            ....@@@@@@@@@@@@@@@@@@@@++++++++....                ",
"            ....................@@@@++++OOOO....                ",
"            ....................@@@@++++OOOO....                ",
"            ....................@@@@++++OOOO....                ",
"            ....................@@@@++++OOOO....                ",
"            ....@@@@....@@@@@@@@@@@@OOOO........                ",
"            ....@@@@....@@@@@@@@@@@@OOOO........                ",
"            ....@@@@....@@@@@@@@@@@@OOOO........                ",
"            ....@@@@....@@@@@@@@@@@@OOOO........                ",
"            ....XXXXooooXXXXXXXXXXXXXXXX....                    ",
"            ....XXXXooooXXXXXXXXXXXXXXXX....                    ",
"            ....XXXXooooXXXXXXXXXXXXXXXX....                    ",
"            ....XXXXooooXXXXXXXXXXXXXXXX....                    ",
"            ....OOOOOOOOOOOOOOOOOOOOOOOO....XXXX                ",
"            ....OOOOOOOOOOOOOOOOOOOOOOOO....XXXX                ",
"            ....OOOOOOOOOOOOOOOOOOOOOOOO....XXXX                ",
"            ....OOOOOOOOOOOOOOOOOOOOOOOO....XXXX                ",
"            ....OOOO............OOOOOOOO....XXXX                ",
"            ....OOOO............OOOOOOOO....XXXX                ",
"            ....OOOO............OOOOOOOO....XXXX                ",
"            ....OOOO............OOOOOOOO....XXXX                ",
"                ....OOOO....XXXX....OOOO....XXXXXXXX            ",
"                ....OOOO....XXXX....OOOO....XXXXXXXX            ",
"                ....OOOO....XXXX....OOOO....XXXXXXXX            ",
"                ....OOOO....XXXX....OOOO....XXXXXXXX            ",
"                    ........        ........                    ",
"                    ........        ........                    ",
"                    ........        ........                    ",
"                    ........        ........                    ",
"                                                                ",
"                                                                ",
"                                                                ",
"                                                                ",
"                                                                ",
"                                                                ",
"                                                                ",
"                                                                "
};
